<svg width="120" height="30" viewBox="0 0 120 30" fill="none" xmlns="http://www.w3.org/2000/svg">
<path d="M11.9913 14.0336L0.333008 26.6867C0.334103 26.6889 0.334103 26.6923 0.335198 26.6945C0.693256 28.0685 1.91964 29.0796 3.37596 29.0796C3.95849 29.0796 4.50488 28.9183 4.97354 28.6362L5.01077 28.6138L18.133 20.8708L11.9913 14.0336Z" fill="#EA4335"/>
<path d="M23.7846 11.8792L23.7737 11.8714L18.1082 8.51326L11.7256 14.3214L18.1312 20.8696L23.766 17.5451C24.7537 16.9987 25.4249 15.9338 25.4249 14.7066C25.4249 13.486 24.7635 12.4268 23.7846 11.8792Z" fill="#FBBC04"/>
<path d="M0.331917 2.67139C0.261839 2.93565 0.224609 3.21334 0.224609 3.5V25.859C0.224609 26.1457 0.261839 26.4234 0.333012 26.6865L12.3909 14.357L0.331917 2.67139Z" fill="#4285F4"/>
<path d="M12.0768 14.6797L18.1101 8.51102L5.00322 0.740005C4.5269 0.447752 3.97065 0.279792 3.37608 0.279792C1.91975 0.279792 0.691184 1.29316 0.333126 2.6682C0.333126 2.66932 0.332031 2.67044 0.332031 2.67156L12.0768 14.6797Z" fill="#34A853"/>
<path d="M37.9699 3.02844C38.6914 3.02844 39.3219 3.16819 39.8614 3.44769C40.4074 3.72069 40.8266 4.11719 41.1191 4.63719C41.4181 5.15069 41.5676 5.75194 41.5676 6.44094C41.5676 7.12994 41.4181 7.72794 41.1191 8.23494C40.8266 8.74194 40.4074 9.13194 39.8614 9.40494C39.3219 9.67144 38.6914 9.80469 37.9699 9.80469H35.7566V3.02844H37.9699ZM37.9699 8.89794C38.7629 8.89794 39.3706 8.68344 39.7931 8.25444C40.2156 7.82544 40.4269 7.22094 40.4269 6.44094C40.4269 5.65444 40.2156 5.04019 39.7931 4.59819C39.3706 4.15619 38.7629 3.93519 37.9699 3.93519H36.8681V8.89794H37.9699ZM44.9995 9.89244C44.4925 9.89244 44.0342 9.77869 43.6247 9.55119C43.2152 9.31719 42.8935 8.99219 42.6595 8.57619C42.4255 8.15369 42.3085 7.66619 42.3085 7.11369C42.3085 6.56769 42.4287 6.08344 42.6692 5.66094C42.9097 5.23844 43.238 4.91344 43.654 4.68594C44.07 4.45844 44.5347 4.34469 45.0482 4.34469C45.5617 4.34469 46.0265 4.45844 46.4425 4.68594C46.8585 4.91344 47.1867 5.23844 47.4272 5.66094C47.6677 6.08344 47.788 6.56769 47.788 7.11369C47.788 7.65969 47.6645 8.14394 47.4175 8.56644C47.1705 8.98894 46.8325 9.31719 46.4035 9.55119C45.981 9.77869 45.513 9.89244 44.9995 9.89244ZM44.9995 8.92719C45.2855 8.92719 45.552 8.85894 45.799 8.72244C46.0525 8.58594 46.2572 8.38119 46.4132 8.10819C46.5692 7.83519 46.6472 7.50369 46.6472 7.11369C46.6472 6.72369 46.5725 6.39544 46.423 6.12894C46.2735 5.85594 46.0752 5.65119 45.8282 5.51469C45.5812 5.37819 45.3147 5.30994 45.0287 5.30994C44.7427 5.30994 44.4762 5.37819 44.2292 5.51469C43.9887 5.65119 43.797 5.85594 43.654 6.12894C43.511 6.39544 43.4395 6.72369 43.4395 7.11369C43.4395 7.69219 43.5857 8.14069 43.8782 8.45919C44.1772 8.77119 44.551 8.92719 44.9995 8.92719ZM56.1018 4.43244L54.4345 9.80469H53.2645L52.1823 5.83644L51.1 9.80469H49.93L48.253 4.43244H49.384L50.5053 8.75169L51.646 4.43244H52.8063L53.8983 8.73219L55.0098 4.43244H56.1018ZM59.6429 4.34469C60.0654 4.34469 60.4424 4.43244 60.7739 4.60794C61.1119 4.78344 61.3752 5.04344 61.5637 5.38794C61.7522 5.73244 61.8464 6.14844 61.8464 6.63594V9.80469H60.7447V6.80169C60.7447 6.32069 60.6244 5.95344 60.3839 5.69994C60.1434 5.43994 59.8152 5.30994 59.3992 5.30994C58.9832 5.30994 58.6517 5.43994 58.4047 5.69994C58.1642 5.95344 58.0439 6.32069 58.0439 6.80169V9.80469H56.9324V4.43244H58.0439V5.04669C58.2259 4.82569 58.4567 4.65344 58.7362 4.52994C59.0222 4.40644 59.3244 4.34469 59.6429 4.34469ZM64.3757 2.58969V9.80469H63.2642V2.58969H64.3757ZM68.1653 9.89244C67.6583 9.89244 67.2 9.77869 66.7905 9.55119C66.381 9.31719 66.0593 8.99219 65.8253 8.57619C65.5913 8.15369 65.4743 7.66619 65.4743 7.11369C65.4743 6.56769 65.5945 6.08344 65.835 5.66094C66.0755 5.23844 66.4038 4.91344 66.8198 4.68594C67.2358 4.45844 67.7005 4.34469 68.214 4.34469C68.7275 4.34469 69.1923 4.45844 69.6083 4.68594C70.0243 4.91344 70.3525 5.23844 70.593 5.66094C70.8335 6.08344 70.9538 6.56769 70.9538 7.11369C70.9538 7.65969 70.8303 8.14394 70.5833 8.56644C70.3363 8.98894 69.9983 9.31719 69.5693 9.55119C69.1468 9.77869 68.6788 9.89244 68.1653 9.89244ZM68.1653 8.92719C68.4513 8.92719 68.7178 8.85894 68.9648 8.72244C69.2183 8.58594 69.423 8.38119 69.579 8.10819C69.735 7.83519 69.813 7.50369 69.813 7.11369C69.813 6.72369 69.7383 6.39544 69.5888 6.12894C69.4393 5.85594 69.241 5.65119 68.994 5.51469C68.747 5.37819 68.4805 5.30994 68.1945 5.30994C67.9085 5.30994 67.642 5.37819 67.395 5.51469C67.1545 5.65119 66.9628 5.85594 66.8198 6.12894C66.6768 6.39544 66.6053 6.72369 66.6053 7.11369C66.6053 7.69219 66.7515 8.14069 67.044 8.45919C67.343 8.77119 67.7168 8.92719 68.1653 8.92719ZM71.682 7.09419C71.682 6.55469 71.7925 6.07694 72.0135 5.66094C72.241 5.24494 72.5465 4.92319 72.93 4.69569C73.32 4.46169 73.749 4.34469 74.217 4.34469C74.6395 4.34469 75.0068 4.42919 75.3188 4.59819C75.6373 4.76069 75.8908 4.96544 76.0793 5.21244V4.43244H77.2005V9.80469H76.0793V9.00519C75.8908 9.25869 75.634 9.46994 75.309 9.63894C74.984 9.80794 74.6135 9.89244 74.1975 9.89244C73.736 9.89244 73.3135 9.77544 72.93 9.54144C72.5465 9.30094 72.241 8.96944 72.0135 8.54694C71.7925 8.11794 71.682 7.63369 71.682 7.09419ZM76.0793 7.11369C76.0793 6.74319 76.0013 6.42144 75.8453 6.14844C75.6958 5.87544 75.4975 5.66744 75.2505 5.52444C75.0035 5.38144 74.737 5.30994 74.451 5.30994C74.165 5.30994 73.8985 5.38144 73.6515 5.52444C73.4045 5.66094 73.203 5.86569 73.047 6.13869C72.8975 6.40519 72.8228 6.72369 72.8228 7.09419C72.8228 7.46469 72.8975 7.78969 73.047 8.06919C73.203 8.34869 73.4045 8.56319 73.6515 8.71269C73.905 8.85569 74.1715 8.92719 74.451 8.92719C74.737 8.92719 75.0035 8.85569 75.2505 8.71269C75.4975 8.56969 75.6958 8.36169 75.8453 8.08869C76.0013 7.80919 76.0793 7.48419 76.0793 7.11369ZM78.2899 7.09419C78.2899 6.55469 78.4004 6.07694 78.6214 5.66094C78.8489 5.24494 79.1544 4.92319 79.5379 4.69569C79.9279 4.46169 80.3602 4.34469 80.8347 4.34469C81.1857 4.34469 81.5302 4.42269 81.8682 4.57869C82.2127 4.72819 82.4857 4.92969 82.6872 5.18319V2.58969H83.8084V9.80469H82.6872V8.99544C82.5052 9.25544 82.2517 9.46994 81.9267 9.63894C81.6082 9.80794 81.2409 9.89244 80.8249 9.89244C80.3569 9.89244 79.9279 9.77544 79.5379 9.54144C79.1544 9.30094 78.8489 8.96944 78.6214 8.54694C78.4004 8.11794 78.2899 7.63369 78.2899 7.09419ZM82.6872 7.11369C82.6872 6.74319 82.6092 6.42144 82.4532 6.14844C82.3037 5.87544 82.1054 5.66744 81.8584 5.52444C81.6114 5.38144 81.3449 5.30994 81.0589 5.30994C80.7729 5.30994 80.5064 5.38144 80.2594 5.52444C80.0124 5.66094 79.8109 5.86569 79.6549 6.13869C79.5054 6.40519 79.4307 6.72369 79.4307 7.09419C79.4307 7.46469 79.5054 7.78969 79.6549 8.06919C79.8109 8.34869 80.0124 8.56319 80.2594 8.71269C80.5129 8.85569 80.7794 8.92719 81.0589 8.92719C81.3449 8.92719 81.6114 8.85569 81.8584 8.71269C82.1054 8.56969 82.3037 8.36169 82.4532 8.08869C82.6092 7.80919 82.6872 7.48419 82.6872 7.11369ZM90.1313 9.89244C89.6243 9.89244 89.1661 9.77869 88.7566 9.55119C88.3471 9.31719 88.0253 8.99219 87.7913 8.57619C87.5573 8.15369 87.4403 7.66619 87.4403 7.11369C87.4403 6.56769 87.5606 6.08344 87.8011 5.66094C88.0416 5.23844 88.3698 4.91344 88.7858 4.68594C89.2018 4.45844 89.6666 4.34469 90.1801 4.34469C90.6936 4.34469 91.1583 4.45844 91.5743 4.68594C91.9903 4.91344 92.3186 5.23844 92.5591 5.66094C92.7996 6.08344 92.9198 6.56769 92.9198 7.11369C92.9198 7.65969 92.7963 8.14394 92.5493 8.56644C92.3023 8.98894 91.9643 9.31719 91.5353 9.55119C91.1128 9.77869 90.6448 9.89244 90.1313 9.89244ZM90.1313 8.92719C90.4173 8.92719 90.6838 8.85894 90.9308 8.72244C91.1843 8.58594 91.3891 8.38119 91.5451 8.10819C91.7011 7.83519 91.7791 7.50369 91.7791 7.11369C91.7791 6.72369 91.7043 6.39544 91.5548 6.12894C91.4053 5.85594 91.2071 5.65119 90.9601 5.51469C90.7131 5.37819 90.4466 5.30994 90.1606 5.30994C89.8746 5.30994 89.6081 5.37819 89.3611 5.51469C89.1206 5.65119 88.9288 5.85594 88.7858 6.12894C88.6428 6.39544 88.5713 6.72369 88.5713 7.11369C88.5713 7.69219 88.7176 8.14069 89.0101 8.45919C89.3091 8.77119 89.6828 8.92719 90.1313 8.92719ZM96.7291 4.34469C97.1516 4.34469 97.5286 4.43244 97.8601 4.60794C98.1981 4.78344 98.4614 5.04344 98.6499 5.38794C98.8384 5.73244 98.9326 6.14844 98.9326 6.63594V9.80469H97.8309V6.80169C97.8309 6.32069 97.7106 5.95344 97.4701 5.69994C97.2296 5.43994 96.9014 5.30994 96.4854 5.30994C96.0694 5.30994 95.7379 5.43994 95.4909 5.69994C95.2504 5.95344 95.1301 6.32069 95.1301 6.80169V9.80469H94.0186V4.43244H95.1301V5.04669C95.3121 4.82569 95.5429 4.65344 95.8224 4.52994C96.1084 4.40644 96.4106 4.34469 96.7291 4.34469ZM104.18 5.33919V8.31294C104.18 8.51444 104.225 8.66069 104.316 8.75169C104.414 8.83619 104.576 8.87844 104.804 8.87844H105.486V9.80469H104.609C104.108 9.80469 103.725 9.68769 103.458 9.45369C103.192 9.21969 103.059 8.83944 103.059 8.31294V5.33919H102.425V4.43244H103.059V3.09669H104.18V4.43244H105.486V5.33919H104.18ZM109.29 4.34469C109.699 4.34469 110.063 4.43244 110.382 4.60794C110.707 4.78344 110.96 5.04344 111.142 5.38794C111.331 5.73244 111.425 6.14844 111.425 6.63594V9.80469H110.323V6.80169C110.323 6.32069 110.203 5.95344 109.962 5.69994C109.722 5.43994 109.394 5.30994 108.978 5.30994C108.562 5.30994 108.23 5.43994 107.983 5.69994C107.743 5.95344 107.622 6.32069 107.622 6.80169V9.80469H106.511V2.58969H107.622V5.05644C107.811 4.82894 108.048 4.65344 108.334 4.52994C108.627 4.40644 108.945 4.34469 109.29 4.34469ZM117.766 6.98694C117.766 7.18844 117.753 7.37044 117.727 7.53294H113.623C113.655 7.96194 113.814 8.30644 114.1 8.56644C114.386 8.82644 114.737 8.95644 115.153 8.95644C115.751 8.95644 116.174 8.70619 116.421 8.20569H117.62C117.458 8.69969 117.162 9.10594 116.733 9.42444C116.31 9.73644 115.784 9.89244 115.153 9.89244C114.64 9.89244 114.178 9.77869 113.769 9.55119C113.366 9.31719 113.047 8.99219 112.813 8.57619C112.586 8.15369 112.472 7.66619 112.472 7.11369C112.472 6.56119 112.583 6.07694 112.804 5.66094C113.031 5.23844 113.346 4.91344 113.749 4.68594C114.159 4.45844 114.627 4.34469 115.153 4.34469C115.66 4.34469 116.112 4.45519 116.509 4.67619C116.905 4.89719 117.214 5.20919 117.435 5.61219C117.656 6.00869 117.766 6.46694 117.766 6.98694ZM116.606 6.63594C116.6 6.22644 116.453 5.89819 116.167 5.65119C115.881 5.40419 115.527 5.28069 115.105 5.28069C114.721 5.28069 114.393 5.40419 114.12 5.65119C113.847 5.89169 113.684 6.21994 113.632 6.63594H116.606Z" fill="white"/>
<path d="M43.6954 17.3797C43.4254 16.8597 43.0504 16.4697 42.5704 16.2097C42.0904 15.9397 41.5354 15.8047 40.9054 15.8047C40.2154 15.8047 39.6004 15.9597 39.0604 16.2697C38.5204 16.5797 38.0954 17.0197 37.7854 17.5897C37.4854 18.1597 37.3354 18.8197 37.3354 19.5697C37.3354 20.3197 37.4854 20.9847 37.7854 21.5647C38.0954 22.1347 38.5204 22.5747 39.0604 22.8847C39.6004 23.1947 40.2154 23.3497 40.9054 23.3497C41.8354 23.3497 42.5904 23.0897 43.1704 22.5697C43.7504 22.0497 44.1054 21.3447 44.2354 20.4547H40.3204V19.0897H46.0654V20.4247C45.9554 21.2347 45.6654 21.9797 45.1954 22.6597C44.7354 23.3397 44.1304 23.8847 43.3804 24.2947C42.6404 24.6947 41.8154 24.8947 40.9054 24.8947C39.9254 24.8947 39.0304 24.6697 38.2204 24.2197C37.4104 23.7597 36.7654 23.1247 36.2854 22.3147C35.8154 21.5047 35.5804 20.5897 35.5804 19.5697C35.5804 18.5497 35.8154 17.6347 36.2854 16.8247C36.7654 16.0147 37.4104 15.3847 38.2204 14.9347C39.0404 14.4747 39.9354 14.2447 40.9054 14.2447C42.0154 14.2447 43.0004 14.5197 43.8604 15.0697C44.7304 15.6097 45.3604 16.3797 45.7504 17.3797H43.6954ZM50.773 24.9397C49.993 24.9397 49.288 24.7647 48.658 24.4147C48.028 24.0547 47.533 23.5547 47.173 22.9147C46.813 22.2647 46.633 21.5147 46.633 20.6647C46.633 19.8247 46.818 19.0797 47.188 18.4297C47.558 17.7797 48.063 17.2797 48.703 16.9297C49.343 16.5797 50.058 16.4047 50.848 16.4047C51.638 16.4047 52.353 16.5797 52.993 16.9297C53.633 17.2797 54.138 17.7797 54.508 18.4297C54.878 19.0797 55.063 19.8247 55.063 20.6647C55.063 21.5047 54.873 22.2497 54.493 22.8997C54.113 23.5497 53.593 24.0547 52.933 24.4147C52.283 24.7647 51.563 24.9397 50.773 24.9397ZM50.773 23.4547C51.213 23.4547 51.623 23.3497 52.003 23.1397C52.393 22.9297 52.708 22.6147 52.948 22.1947C53.188 21.7747 53.308 21.2647 53.308 20.6647C53.308 20.0647 53.193 19.5597 52.963 19.1497C52.733 18.7297 52.428 18.4147 52.048 18.2047C51.668 17.9947 51.258 17.8897 50.818 17.8897C50.378 17.8897 49.968 17.9947 49.588 18.2047C49.218 18.4147 48.923 18.7297 48.703 19.1497C48.483 19.5597 48.373 20.0647 48.373 20.6647C48.373 21.5547 48.598 22.2447 49.048 22.7347C49.508 23.2147 50.083 23.4547 50.773 23.4547ZM59.7744 24.9397C58.9944 24.9397 58.2894 24.7647 57.6594 24.4147C57.0294 24.0547 56.5344 23.5547 56.1744 22.9147C55.8144 22.2647 55.6344 21.5147 55.6344 20.6647C55.6344 19.8247 55.8194 19.0797 56.1894 18.4297C56.5594 17.7797 57.0644 17.2797 57.7044 16.9297C58.3444 16.5797 59.0594 16.4047 59.8494 16.4047C60.6394 16.4047 61.3544 16.5797 61.9944 16.9297C62.6344 17.2797 63.1394 17.7797 63.5094 18.4297C63.8794 19.0797 64.0644 19.8247 64.0644 20.6647C64.0644 21.5047 63.8744 22.2497 63.4944 22.8997C63.1144 23.5497 62.5944 24.0547 61.9344 24.4147C61.2844 24.7647 60.5644 24.9397 59.7744 24.9397ZM59.7744 23.4547C60.2144 23.4547 60.6244 23.3497 61.0044 23.1397C61.3944 22.9297 61.7094 22.6147 61.9494 22.1947C62.1894 21.7747 62.3094 21.2647 62.3094 20.6647C62.3094 20.0647 62.1944 19.5597 61.9644 19.1497C61.7344 18.7297 61.4294 18.4147 61.0494 18.2047C60.6694 17.9947 60.2594 17.8897 59.8194 17.8897C59.3794 17.8897 58.9694 17.9947 58.5894 18.2047C58.2194 18.4147 57.9244 18.7297 57.7044 19.1497C57.4844 19.5597 57.3744 20.0647 57.3744 20.6647C57.3744 21.5547 57.5994 22.2447 58.0494 22.7347C58.5094 23.2147 59.0844 23.4547 59.7744 23.4547ZM68.5208 16.4047C69.1608 16.4047 69.7258 16.5347 70.2158 16.7947C70.7158 17.0447 71.1058 17.3597 71.3858 17.7397V16.5397H73.1108V24.9397C73.1108 25.6997 72.9508 26.3747 72.6308 26.9647C72.3108 27.5647 71.8458 28.0347 71.2358 28.3747C70.6358 28.7147 69.9158 28.8847 69.0758 28.8847C67.9558 28.8847 67.0258 28.6197 66.2858 28.0897C65.5458 27.5697 65.1258 26.8597 65.0258 25.9597H66.7208C66.8508 26.3897 67.1258 26.7347 67.5458 26.9947C67.9758 27.2647 68.4858 27.3997 69.0758 27.3997C69.7658 27.3997 70.3208 27.1897 70.7408 26.7697C71.1708 26.3497 71.3858 25.7397 71.3858 24.9397V23.5597C71.0958 23.9497 70.7008 24.2797 70.2008 24.5497C69.7108 24.8097 69.1508 24.9397 68.5208 24.9397C67.8008 24.9397 67.1408 24.7597 66.5408 24.3997C65.9508 24.0297 65.4808 23.5197 65.1308 22.8697C64.7908 22.2097 64.6208 21.4647 64.6208 20.6347C64.6208 19.8047 64.7908 19.0697 65.1308 18.4297C65.4808 17.7897 65.9508 17.2947 66.5408 16.9447C67.1408 16.5847 67.8008 16.4047 68.5208 16.4047ZM71.3858 20.6647C71.3858 20.0947 71.2658 19.5997 71.0258 19.1797C70.7958 18.7597 70.4908 18.4397 70.1108 18.2197C69.7308 17.9997 69.3208 17.8897 68.8808 17.8897C68.4408 17.8897 68.0308 17.9997 67.6508 18.2197C67.2708 18.4297 66.9608 18.7447 66.7208 19.1647C66.4908 19.5747 66.3758 20.0647 66.3758 20.6347C66.3758 21.2047 66.4908 21.7047 66.7208 22.1347C66.9608 22.5647 67.2708 22.8947 67.6508 23.1247C68.0408 23.3447 68.4508 23.4547 68.8808 23.4547C69.3208 23.4547 69.7308 23.3447 70.1108 23.1247C70.4908 22.9047 70.7958 22.5847 71.0258 22.1647C71.2658 21.7347 71.3858 21.2347 71.3858 20.6647ZM76.5028 13.7047V24.8047H74.7928V13.7047H76.5028ZM85.7589 20.4697C85.7589 20.7797 85.7389 21.0597 85.6989 21.3097H79.3839C79.4339 21.9697 79.6789 22.4997 80.1189 22.8997C80.5589 23.2997 81.0989 23.4997 81.7389 23.4997C82.6589 23.4997 83.3089 23.1147 83.6889 22.3447H85.5339C85.2839 23.1047 84.8289 23.7297 84.1689 24.2197C83.5189 24.6997 82.7089 24.9397 81.7389 24.9397C80.9489 24.9397 80.2389 24.7647 79.6089 24.4147C78.9889 24.0547 78.4989 23.5547 78.1389 22.9147C77.7889 22.2647 77.6139 21.5147 77.6139 20.6647C77.6139 19.8147 77.7839 19.0697 78.1239 18.4297C78.4739 17.7797 78.9589 17.2797 79.5789 16.9297C80.2089 16.5797 80.9289 16.4047 81.7389 16.4047C82.5189 16.4047 83.2139 16.5747 83.8239 16.9147C84.4339 17.2547 84.9089 17.7347 85.2489 18.3547C85.5889 18.9647 85.7589 19.6697 85.7589 20.4697ZM83.9739 19.9297C83.9639 19.2997 83.7389 18.7947 83.2989 18.4147C82.8589 18.0347 82.3139 17.8447 81.6639 17.8447C81.0739 17.8447 80.5689 18.0347 80.1489 18.4147C79.7289 18.7847 79.4789 19.2897 79.3989 19.9297H83.9739ZM97.5002 17.4847C97.5002 18.0147 97.3752 18.5147 97.1252 18.9847C96.8752 19.4547 96.4752 19.8397 95.9252 20.1397C95.3752 20.4297 94.6702 20.5747 93.8102 20.5747H91.9202V24.8047H90.2102V14.3797H93.8102C94.6102 14.3797 95.2852 14.5197 95.8352 14.7997C96.3952 15.0697 96.8102 15.4397 97.0802 15.9097C97.3602 16.3797 97.5002 16.9047 97.5002 17.4847ZM93.8102 19.1797C94.4602 19.1797 94.9452 19.0347 95.2652 18.7447C95.5852 18.4447 95.7452 18.0247 95.7452 17.4847C95.7452 16.3447 95.1002 15.7747 93.8102 15.7747H91.9202V19.1797H93.8102ZM100.277 13.7047V24.8047H98.5671V13.7047H100.277ZM101.388 20.6347C101.388 19.8047 101.558 19.0697 101.898 18.4297C102.248 17.7897 102.718 17.2947 103.308 16.9447C103.908 16.5847 104.568 16.4047 105.288 16.4047C105.938 16.4047 106.503 16.5347 106.983 16.7947C107.473 17.0447 107.863 17.3597 108.153 17.7397V16.5397H109.878V24.8047H108.153V23.5747C107.863 23.9647 107.468 24.2897 106.968 24.5497C106.468 24.8097 105.898 24.9397 105.258 24.9397C104.548 24.9397 103.898 24.7597 103.308 24.3997C102.718 24.0297 102.248 23.5197 101.898 22.8697C101.558 22.2097 101.388 21.4647 101.388 20.6347ZM108.153 20.6647C108.153 20.0947 108.033 19.5997 107.793 19.1797C107.563 18.7597 107.258 18.4397 106.878 18.2197C106.498 17.9997 106.088 17.8897 105.648 17.8897C105.208 17.8897 104.798 17.9997 104.418 18.2197C104.038 18.4297 103.728 18.7447 103.488 19.1647C103.258 19.5747 103.143 20.0647 103.143 20.6347C103.143 21.2047 103.258 21.7047 103.488 22.1347C103.728 22.5647 104.038 22.8947 104.418 23.1247C104.808 23.3447 105.218 23.4547 105.648 23.4547C106.088 23.4547 106.498 23.3447 106.878 23.1247C107.258 22.9047 107.563 22.5847 107.793 22.1647C108.033 21.7347 108.153 21.2347 108.153 20.6647ZM119 16.5397L113.93 28.6897H112.16L113.84 24.6697L110.585 16.5397H112.49L114.815 22.8397L117.23 16.5397H119Z" fill="white"/>
</svg>
