<svg width="120" height="30" viewBox="0 0 120 30" fill="none" xmlns="http://www.w3.org/2000/svg">
<path d="M20.8706 15.5958C20.8852 14.4919 21.1855 13.4095 21.7437 12.4494C22.3018 11.4893 23.0997 10.6826 24.063 10.1044C23.451 9.25116 22.6437 8.54896 21.7051 8.0536C20.7666 7.55823 19.7227 7.28334 18.6563 7.25077C16.3814 7.01765 14.1761 8.57972 13.0169 8.57972C11.8353 8.57972 10.0505 7.27392 8.12859 7.31252C6.88545 7.35173 5.67391 7.70466 4.61201 8.33692C3.55012 8.96918 2.67409 9.85921 2.06928 10.9203C-0.550583 15.3487 1.4036 21.8571 3.91325 25.4368C5.16889 27.1897 6.63636 29.1476 8.55655 29.0782C10.4356 29.0021 11.1373 27.9084 13.4054 27.9084C15.6525 27.9084 16.3109 29.0782 18.27 29.0341C20.2863 29.0021 21.5566 27.2734 22.7682 25.504C23.6704 24.255 24.3646 22.8746 24.8252 21.4139C23.6538 20.9302 22.6542 20.1206 21.9509 19.086C21.2477 18.0513 20.872 16.8375 20.8706 15.5958Z" fill="white"/>
<path d="M17.1704 4.89634C18.2698 3.6079 18.8114 1.95181 18.6803 0.279785C17.0007 0.452008 15.4493 1.2357 14.3351 2.47471C13.7903 3.08 13.3731 3.78418 13.1072 4.54699C12.8414 5.3098 12.7321 6.11629 12.7857 6.92035C13.6258 6.92879 14.4569 6.75102 15.2164 6.40043C15.9759 6.04984 16.644 5.53556 17.1704 4.89634Z" fill="white"/>
<path d="M37.3693 3.02844C38.0908 3.02844 38.7213 3.16819 39.2608 3.44769C39.8068 3.72069 40.2261 4.11719 40.5186 4.63719C40.8176 5.15069 40.9671 5.75194 40.9671 6.44094C40.9671 7.12994 40.8176 7.72794 40.5186 8.23494C40.2261 8.74194 39.8068 9.13194 39.2608 9.40494C38.7213 9.67144 38.0908 9.80469 37.3693 9.80469H35.1561V3.02844H37.3693ZM37.3693 8.89794C38.1623 8.89794 38.7701 8.68344 39.1926 8.25444C39.6151 7.82544 39.8263 7.22094 39.8263 6.44094C39.8263 5.65444 39.6151 5.04019 39.1926 4.59819C38.7701 4.15619 38.1623 3.93519 37.3693 3.93519H36.2676V8.89794H37.3693ZM44.3989 9.89244C43.8919 9.89244 43.4337 9.77869 43.0242 9.55119C42.6147 9.31719 42.2929 8.99219 42.0589 8.57619C41.8249 8.15369 41.7079 7.66619 41.7079 7.11369C41.7079 6.56769 41.8282 6.08344 42.0687 5.66094C42.3092 5.23844 42.6374 4.91344 43.0534 4.68594C43.4694 4.45844 43.9342 4.34469 44.4477 4.34469C44.9612 4.34469 45.4259 4.45844 45.8419 4.68594C46.2579 4.91344 46.5862 5.23844 46.8267 5.66094C47.0672 6.08344 47.1874 6.56769 47.1874 7.11369C47.1874 7.65969 47.0639 8.14394 46.8169 8.56644C46.5699 8.98894 46.2319 9.31719 45.8029 9.55119C45.3804 9.77869 44.9124 9.89244 44.3989 9.89244ZM44.3989 8.92719C44.6849 8.92719 44.9514 8.85894 45.1984 8.72244C45.4519 8.58594 45.6567 8.38119 45.8127 8.10819C45.9687 7.83519 46.0467 7.50369 46.0467 7.11369C46.0467 6.72369 45.9719 6.39544 45.8224 6.12894C45.6729 5.85594 45.4747 5.65119 45.2277 5.51469C44.9807 5.37819 44.7142 5.30994 44.4282 5.30994C44.1422 5.30994 43.8757 5.37819 43.6287 5.51469C43.3882 5.65119 43.1964 5.85594 43.0534 6.12894C42.9104 6.39544 42.8389 6.72369 42.8389 7.11369C42.8389 7.69219 42.9852 8.14069 43.2777 8.45919C43.5767 8.77119 43.9504 8.92719 44.3989 8.92719ZM55.5012 4.43244L53.8339 9.80469H52.6639L51.5817 5.83644L50.4994 9.80469H49.3294L47.6524 4.43244H48.7834L49.9047 8.75169L51.0454 4.43244H52.2057L53.2977 8.73219L54.4092 4.43244H55.5012ZM59.0423 4.34469C59.4648 4.34469 59.8418 4.43244 60.1733 4.60794C60.5113 4.78344 60.7746 5.04344 60.9631 5.38794C61.1516 5.73244 61.2458 6.14844 61.2458 6.63594V9.80469H60.1441V6.80169C60.1441 6.32069 60.0238 5.95344 59.7833 5.69994C59.5428 5.43994 59.2146 5.30994 58.7986 5.30994C58.3826 5.30994 58.0511 5.43994 57.8041 5.69994C57.5636 5.95344 57.4433 6.32069 57.4433 6.80169V9.80469H56.3318V4.43244H57.4433V5.04669C57.6253 4.82569 57.8561 4.65344 58.1356 4.52994C58.4216 4.40644 58.7238 4.34469 59.0423 4.34469ZM63.7751 2.58969V9.80469H62.6636V2.58969H63.7751ZM67.5647 9.89244C67.0577 9.89244 66.5994 9.77869 66.1899 9.55119C65.7804 9.31719 65.4587 8.99219 65.2247 8.57619C64.9907 8.15369 64.8737 7.66619 64.8737 7.11369C64.8737 6.56769 64.9939 6.08344 65.2344 5.66094C65.4749 5.23844 65.8032 4.91344 66.2192 4.68594C66.6352 4.45844 67.0999 4.34469 67.6134 4.34469C68.1269 4.34469 68.5917 4.45844 69.0077 4.68594C69.4237 4.91344 69.7519 5.23844 69.9924 5.66094C70.2329 6.08344 70.3532 6.56769 70.3532 7.11369C70.3532 7.65969 70.2297 8.14394 69.9827 8.56644C69.7357 8.98894 69.3977 9.31719 68.9687 9.55119C68.5462 9.77869 68.0782 9.89244 67.5647 9.89244ZM67.5647 8.92719C67.8507 8.92719 68.1172 8.85894 68.3642 8.72244C68.6177 8.58594 68.8224 8.38119 68.9784 8.10819C69.1344 7.83519 69.2124 7.50369 69.2124 7.11369C69.2124 6.72369 69.1377 6.39544 68.9882 6.12894C68.8387 5.85594 68.6404 5.65119 68.3934 5.51469C68.1464 5.37819 67.8799 5.30994 67.5939 5.30994C67.3079 5.30994 67.0414 5.37819 66.7944 5.51469C66.5539 5.65119 66.3622 5.85594 66.2192 6.12894C66.0762 6.39544 66.0047 6.72369 66.0047 7.11369C66.0047 7.69219 66.1509 8.14069 66.4434 8.45919C66.7424 8.77119 67.1162 8.92719 67.5647 8.92719ZM71.0815 7.09419C71.0815 6.55469 71.192 6.07694 71.413 5.66094C71.6405 5.24494 71.946 4.92319 72.3295 4.69569C72.7195 4.46169 73.1485 4.34469 73.6165 4.34469C74.039 4.34469 74.4062 4.42919 74.7182 4.59819C75.0367 4.76069 75.2902 4.96544 75.4787 5.21244V4.43244H76.6V9.80469H75.4787V9.00519C75.2902 9.25869 75.0335 9.46994 74.7085 9.63894C74.3835 9.80794 74.013 9.89244 73.597 9.89244C73.1355 9.89244 72.713 9.77544 72.3295 9.54144C71.946 9.30094 71.6405 8.96944 71.413 8.54694C71.192 8.11794 71.0815 7.63369 71.0815 7.09419ZM75.4787 7.11369C75.4787 6.74319 75.4007 6.42144 75.2447 6.14844C75.0952 5.87544 74.897 5.66744 74.65 5.52444C74.403 5.38144 74.1365 5.30994 73.8505 5.30994C73.5645 5.30994 73.298 5.38144 73.051 5.52444C72.804 5.66094 72.6025 5.86569 72.4465 6.13869C72.297 6.40519 72.2222 6.72369 72.2222 7.09419C72.2222 7.46469 72.297 7.78969 72.4465 8.06919C72.6025 8.34869 72.804 8.56319 73.051 8.71269C73.3045 8.85569 73.571 8.92719 73.8505 8.92719C74.1365 8.92719 74.403 8.85569 74.65 8.71269C74.897 8.56969 75.0952 8.36169 75.2447 8.08869C75.4007 7.80919 75.4787 7.48419 75.4787 7.11369ZM77.6894 7.09419C77.6894 6.55469 77.7999 6.07694 78.0209 5.66094C78.2484 5.24494 78.5539 4.92319 78.9374 4.69569C79.3274 4.46169 79.7596 4.34469 80.2341 4.34469C80.5851 4.34469 80.9296 4.42269 81.2676 4.57869C81.6121 4.72819 81.8851 4.92969 82.0866 5.18319V2.58969H83.2079V9.80469H82.0866V8.99544C81.9046 9.25544 81.6511 9.46994 81.3261 9.63894C81.0076 9.80794 80.6404 9.89244 80.2244 9.89244C79.7564 9.89244 79.3274 9.77544 78.9374 9.54144C78.5539 9.30094 78.2484 8.96944 78.0209 8.54694C77.7999 8.11794 77.6894 7.63369 77.6894 7.09419ZM82.0866 7.11369C82.0866 6.74319 82.0086 6.42144 81.8526 6.14844C81.7031 5.87544 81.5049 5.66744 81.2579 5.52444C81.0109 5.38144 80.7444 5.30994 80.4584 5.30994C80.1724 5.30994 79.9059 5.38144 79.6589 5.52444C79.4119 5.66094 79.2104 5.86569 79.0544 6.13869C78.9049 6.40519 78.8301 6.72369 78.8301 7.09419C78.8301 7.46469 78.9049 7.78969 79.0544 8.06919C79.2104 8.34869 79.4119 8.56319 79.6589 8.71269C79.9124 8.85569 80.1789 8.92719 80.4584 8.92719C80.7444 8.92719 81.0109 8.85569 81.2579 8.71269C81.5049 8.56969 81.7031 8.36169 81.8526 8.08869C82.0086 7.80919 82.0866 7.48419 82.0866 7.11369ZM89.5307 9.89244C89.0237 9.89244 88.5655 9.77869 88.156 9.55119C87.7465 9.31719 87.4247 8.99219 87.1907 8.57619C86.9567 8.15369 86.8397 7.66619 86.8397 7.11369C86.8397 6.56769 86.96 6.08344 87.2005 5.66094C87.441 5.23844 87.7692 4.91344 88.1852 4.68594C88.6012 4.45844 89.066 4.34469 89.5795 4.34469C90.093 4.34469 90.5577 4.45844 90.9737 4.68594C91.3897 4.91344 91.718 5.23844 91.9585 5.66094C92.199 6.08344 92.3192 6.56769 92.3192 7.11369C92.3192 7.65969 92.1957 8.14394 91.9487 8.56644C91.7017 8.98894 91.3637 9.31719 90.9347 9.55119C90.5122 9.77869 90.0442 9.89244 89.5307 9.89244ZM89.5307 8.92719C89.8167 8.92719 90.0832 8.85894 90.3302 8.72244C90.5837 8.58594 90.7885 8.38119 90.9445 8.10819C91.1005 7.83519 91.1785 7.50369 91.1785 7.11369C91.1785 6.72369 91.1037 6.39544 90.9542 6.12894C90.8047 5.85594 90.6065 5.65119 90.3595 5.51469C90.1125 5.37819 89.846 5.30994 89.56 5.30994C89.274 5.30994 89.0075 5.37819 88.7605 5.51469C88.52 5.65119 88.3282 5.85594 88.1852 6.12894C88.0422 6.39544 87.9707 6.72369 87.9707 7.11369C87.9707 7.69219 88.117 8.14069 88.4095 8.45919C88.7085 8.77119 89.0822 8.92719 89.5307 8.92719ZM96.1285 4.34469C96.551 4.34469 96.928 4.43244 97.2595 4.60794C97.5975 4.78344 97.8608 5.04344 98.0493 5.38794C98.2378 5.73244 98.332 6.14844 98.332 6.63594V9.80469H97.2303V6.80169C97.2303 6.32069 97.11 5.95344 96.8695 5.69994C96.629 5.43994 96.3008 5.30994 95.8848 5.30994C95.4688 5.30994 95.1373 5.43994 94.8903 5.69994C94.6498 5.95344 94.5295 6.32069 94.5295 6.80169V9.80469H93.418V4.43244H94.5295V5.04669C94.7115 4.82569 94.9423 4.65344 95.2218 4.52994C95.5078 4.40644 95.81 4.34469 96.1285 4.34469ZM103.579 5.33919V8.31294C103.579 8.51444 103.625 8.66069 103.716 8.75169C103.813 8.83619 103.976 8.87844 104.203 8.87844H104.886V9.80469H104.008C103.508 9.80469 103.124 9.68769 102.858 9.45369C102.591 9.21969 102.458 8.83944 102.458 8.31294V5.33919H101.824V4.43244H102.458V3.09669H103.579V4.43244H104.886V5.33919H103.579ZM108.689 4.34469C109.098 4.34469 109.462 4.43244 109.781 4.60794C110.106 4.78344 110.359 5.04344 110.541 5.38794C110.73 5.73244 110.824 6.14844 110.824 6.63594V9.80469H109.722V6.80169C109.722 6.32069 109.602 5.95344 109.362 5.69994C109.121 5.43994 108.793 5.30994 108.377 5.30994C107.961 5.30994 107.629 5.43994 107.382 5.69994C107.142 5.95344 107.022 6.32069 107.022 6.80169V9.80469H105.91V2.58969H107.022V5.05644C107.21 4.82894 107.447 4.65344 107.733 4.52994C108.026 4.40644 108.344 4.34469 108.689 4.34469ZM117.166 6.98694C117.166 7.18844 117.153 7.37044 117.127 7.53294H113.022C113.054 7.96194 113.214 8.30644 113.5 8.56644C113.786 8.82644 114.137 8.95644 114.553 8.95644C115.151 8.95644 115.573 8.70619 115.82 8.20569H117.019C116.857 8.69969 116.561 9.10594 116.132 9.42444C115.71 9.73644 115.183 9.89244 114.553 9.89244C114.039 9.89244 113.578 9.77869 113.168 9.55119C112.765 9.31719 112.447 8.99219 112.213 8.57619C111.985 8.15369 111.871 7.66619 111.871 7.11369C111.871 6.56119 111.982 6.07694 112.203 5.66094C112.43 5.23844 112.746 4.91344 113.149 4.68594C113.558 4.45844 114.026 4.34469 114.553 4.34469C115.06 4.34469 115.511 4.45519 115.908 4.67619C116.304 4.89719 116.613 5.20919 116.834 5.61219C117.055 6.00869 117.166 6.46694 117.166 6.98694ZM116.005 6.63594C115.999 6.22644 115.853 5.89819 115.567 5.65119C115.281 5.40419 114.926 5.28069 114.504 5.28069C114.12 5.28069 113.792 5.40419 113.519 5.65119C113.246 5.89169 113.084 6.21994 113.032 6.63594H116.005Z" fill="white"/>
<path d="M41.8348 22.6747H37.4698L36.7198 24.8047H34.9348L38.6698 14.3647H40.6498L44.3848 24.8047H42.5848L41.8348 22.6747ZM41.3548 21.2797L39.6598 16.4347L37.9498 21.2797H41.3548ZM47.1548 17.7547C47.4448 17.3747 47.8398 17.0547 48.3398 16.7947C48.8398 16.5347 49.4048 16.4047 50.0348 16.4047C50.7548 16.4047 51.4098 16.5847 51.9998 16.9447C52.5998 17.2947 53.0698 17.7897 53.4098 18.4297C53.7498 19.0697 53.9198 19.8047 53.9198 20.6347C53.9198 21.4647 53.7498 22.2097 53.4098 22.8697C53.0698 23.5197 52.5998 24.0297 51.9998 24.3997C51.4098 24.7597 50.7548 24.9397 50.0348 24.9397C49.4048 24.9397 48.8448 24.8147 48.3548 24.5647C47.8648 24.3047 47.4648 23.9847 47.1548 23.6047V28.7347H45.4448V16.5397H47.1548V17.7547ZM52.1798 20.6347C52.1798 20.0647 52.0598 19.5747 51.8198 19.1647C51.5898 18.7447 51.2798 18.4297 50.8898 18.2197C50.5098 17.9997 50.0998 17.8897 49.6598 17.8897C49.2298 17.8897 48.8198 17.9997 48.4298 18.2197C48.0498 18.4397 47.7398 18.7597 47.4998 19.1797C47.2698 19.5997 47.1548 20.0947 47.1548 20.6647C47.1548 21.2347 47.2698 21.7347 47.4998 22.1647C47.7398 22.5847 48.0498 22.9047 48.4298 23.1247C48.8198 23.3447 49.2298 23.4547 49.6598 23.4547C50.0998 23.4547 50.5098 23.3447 50.8898 23.1247C51.2798 22.8947 51.5898 22.5647 51.8198 22.1347C52.0598 21.7047 52.1798 21.2047 52.1798 20.6347ZM56.7568 17.7547C57.0468 17.3747 57.4418 17.0547 57.9418 16.7947C58.4418 16.5347 59.0068 16.4047 59.6368 16.4047C60.3568 16.4047 61.0118 16.5847 61.6018 16.9447C62.2018 17.2947 62.6718 17.7897 63.0118 18.4297C63.3518 19.0697 63.5218 19.8047 63.5218 20.6347C63.5218 21.4647 63.3518 22.2097 63.0118 22.8697C62.6718 23.5197 62.2018 24.0297 61.6018 24.3997C61.0118 24.7597 60.3568 24.9397 59.6368 24.9397C59.0068 24.9397 58.4468 24.8147 57.9568 24.5647C57.4668 24.3047 57.0668 23.9847 56.7568 23.6047V28.7347H55.0468V16.5397H56.7568V17.7547ZM61.7818 20.6347C61.7818 20.0647 61.6618 19.5747 61.4218 19.1647C61.1918 18.7447 60.8818 18.4297 60.4918 18.2197C60.1118 17.9997 59.7018 17.8897 59.2618 17.8897C58.8318 17.8897 58.4218 17.9997 58.0318 18.2197C57.6518 18.4397 57.3418 18.7597 57.1018 19.1797C56.8718 19.5997 56.7568 20.0947 56.7568 20.6647C56.7568 21.2347 56.8718 21.7347 57.1018 22.1647C57.3418 22.5847 57.6518 22.9047 58.0318 23.1247C58.4218 23.3447 58.8318 23.4547 59.2618 23.4547C59.7018 23.4547 60.1118 23.3447 60.4918 23.1247C60.8818 22.8947 61.1918 22.5647 61.4218 22.1347C61.6618 21.7047 61.7818 21.2047 61.7818 20.6347ZM71.4163 24.9097C70.7163 24.9097 70.0863 24.7897 69.5263 24.5497C68.9663 24.2997 68.5263 23.9497 68.2063 23.4997C67.8863 23.0497 67.7263 22.5247 67.7263 21.9247H69.5563C69.5963 22.3747 69.7713 22.7447 70.0813 23.0347C70.4013 23.3247 70.8463 23.4697 71.4163 23.4697C72.0063 23.4697 72.4663 23.3297 72.7963 23.0497C73.1263 22.7597 73.2913 22.3897 73.2913 21.9397C73.2913 21.5897 73.1863 21.3047 72.9763 21.0847C72.7763 20.8647 72.5213 20.6947 72.2113 20.5747C71.9113 20.4547 71.4913 20.3247 70.9513 20.1847C70.2713 20.0047 69.7163 19.8247 69.2863 19.6447C68.8663 19.4547 68.5063 19.1647 68.2063 18.7747C67.9063 18.3847 67.7563 17.8647 67.7563 17.2147C67.7563 16.6147 67.9063 16.0897 68.2063 15.6397C68.5063 15.1897 68.9263 14.8447 69.4663 14.6047C70.0063 14.3647 70.6313 14.2447 71.3413 14.2447C72.3513 14.2447 73.1763 14.4997 73.8163 15.0097C74.4663 15.5097 74.8263 16.1997 74.8963 17.0797H73.0063C72.9763 16.6997 72.7963 16.3747 72.4663 16.1047C72.1363 15.8347 71.7013 15.6997 71.1613 15.6997C70.6713 15.6997 70.2713 15.8247 69.9613 16.0747C69.6513 16.3247 69.4963 16.6847 69.4963 17.1547C69.4963 17.4747 69.5913 17.7397 69.7813 17.9497C69.9813 18.1497 70.2313 18.3097 70.5313 18.4297C70.8313 18.5497 71.2413 18.6797 71.7613 18.8197C72.4513 19.0097 73.0113 19.1997 73.4413 19.3897C73.8813 19.5797 74.2513 19.8747 74.5513 20.2747C74.8613 20.6647 75.0163 21.1897 75.0163 21.8497C75.0163 22.3797 74.8713 22.8797 74.5813 23.3497C74.3013 23.8197 73.8863 24.1997 73.3363 24.4897C72.7963 24.7697 72.1563 24.9097 71.4163 24.9097ZM78.465 17.9347V22.5097C78.465 22.8197 78.535 23.0447 78.675 23.1847C78.825 23.3147 79.075 23.3797 79.425 23.3797H80.475V24.8047H79.125C78.355 24.8047 77.765 24.6247 77.355 24.2647C76.945 23.9047 76.74 23.3197 76.74 22.5097V17.9347H75.765V16.5397H76.74V14.4847H78.465V16.5397H80.475V17.9347H78.465ZM85.0721 24.9397C84.2921 24.9397 83.5871 24.7647 82.9571 24.4147C82.3271 24.0547 81.8321 23.5547 81.4721 22.9147C81.1121 22.2647 80.9321 21.5147 80.9321 20.6647C80.9321 19.8247 81.1171 19.0797 81.4871 18.4297C81.8571 17.7797 82.3621 17.2797 83.0021 16.9297C83.6421 16.5797 84.3571 16.4047 85.1471 16.4047C85.9371 16.4047 86.6521 16.5797 87.2921 16.9297C87.9321 17.2797 88.4371 17.7797 88.8071 18.4297C89.1771 19.0797 89.3621 19.8247 89.3621 20.6647C89.3621 21.5047 89.1721 22.2497 88.7921 22.8997C88.4121 23.5497 87.8921 24.0547 87.2321 24.4147C86.5821 24.7647 85.8621 24.9397 85.0721 24.9397ZM85.0721 23.4547C85.5121 23.4547 85.9221 23.3497 86.3021 23.1397C86.6921 22.9297 87.0071 22.6147 87.2471 22.1947C87.4871 21.7747 87.6071 21.2647 87.6071 20.6647C87.6071 20.0647 87.4921 19.5597 87.2621 19.1497C87.0321 18.7297 86.7271 18.4147 86.3471 18.2047C85.9671 17.9947 85.5571 17.8897 85.1171 17.8897C84.6771 17.8897 84.2671 17.9947 83.8871 18.2047C83.5171 18.4147 83.2221 18.7297 83.0021 19.1497C82.7821 19.5597 82.6721 20.0647 82.6721 20.6647C82.6721 21.5547 82.8971 22.2447 83.3471 22.7347C83.8071 23.2147 84.3821 23.4547 85.0721 23.4547ZM92.1985 17.7397C92.4485 17.3197 92.7785 16.9947 93.1885 16.7647C93.6085 16.5247 94.1035 16.4047 94.6735 16.4047V18.1747H94.2385C93.5685 18.1747 93.0585 18.3447 92.7085 18.6847C92.3685 19.0247 92.1985 19.6147 92.1985 20.4547V24.8047H90.4885V16.5397H92.1985V17.7397ZM103.256 20.4697C103.256 20.7797 103.236 21.0597 103.196 21.3097H96.8814C96.9314 21.9697 97.1764 22.4997 97.6164 22.8997C98.0564 23.2997 98.5964 23.4997 99.2364 23.4997C100.156 23.4997 100.806 23.1147 101.186 22.3447H103.031C102.781 23.1047 102.326 23.7297 101.666 24.2197C101.016 24.6997 100.206 24.9397 99.2364 24.9397C98.4464 24.9397 97.7364 24.7647 97.1064 24.4147C96.4864 24.0547 95.9964 23.5547 95.6364 22.9147C95.2864 22.2647 95.1114 21.5147 95.1114 20.6647C95.1114 19.8147 95.2814 19.0697 95.6214 18.4297C95.9714 17.7797 96.4564 17.2797 97.0764 16.9297C97.7064 16.5797 98.4264 16.4047 99.2364 16.4047C100.016 16.4047 100.711 16.5747 101.321 16.9147C101.931 17.2547 102.406 17.7347 102.746 18.3547C103.086 18.9647 103.256 19.6697 103.256 20.4697ZM101.471 19.9297C101.461 19.2997 101.236 18.7947 100.796 18.4147C100.356 18.0347 99.8114 17.8447 99.1614 17.8447C98.5714 17.8447 98.0664 18.0347 97.6464 18.4147C97.2264 18.7847 96.9764 19.2897 96.8964 19.9297H101.471Z" fill="white"/>
</svg>
