<svg width="24" height="24" viewBox="0 0 24 24" fill="none" xmlns="http://www.w3.org/2000/svg">
<rect width="24" height="24" rx="12" transform="matrix(-1 0 0 1 24 0)" fill="white"/>
<path d="M18.1263 11.994C18.1263 12.1255 18.0765 12.2563 17.9764 12.3564L13.8916 16.4439C13.7947 16.5342 13.6666 16.5833 13.5343 16.581C13.4019 16.5787 13.2756 16.525 13.182 16.4314C13.0884 16.3378 13.0348 16.2115 13.0324 16.0792C13.0301 15.9468 13.0792 15.8187 13.1695 15.7218L16.385 12.5036H6.71392C6.57841 12.5036 6.44845 12.4497 6.35263 12.3539C6.25681 12.2581 6.20298 12.1281 6.20298 11.9926C6.20298 11.8571 6.25681 11.7272 6.35263 11.6313C6.44845 11.5355 6.57841 11.4817 6.71392 11.4817H16.3802L13.1695 8.26891C13.1207 8.22175 13.0818 8.16535 13.0551 8.10301C13.0283 8.04066 13.0142 7.9736 13.0137 7.90576C13.0131 7.83792 13.0261 7.77065 13.0518 7.70787C13.0775 7.64509 13.1155 7.58806 13.1635 7.54011C13.2115 7.49215 13.2685 7.45424 13.3314 7.42858C13.3942 7.40292 13.4614 7.39003 13.5293 7.39065C13.5971 7.39127 13.6642 7.40539 13.7265 7.4322C13.7888 7.45901 13.8452 7.49796 13.8923 7.54678L17.9457 11.6023C18.0025 11.6502 18.0482 11.71 18.0795 11.7774C18.1107 11.8449 18.127 11.9183 18.127 11.9926L18.1263 11.994Z" fill="black"/>
</svg>
