<svg width="24" height="24" viewBox="0 0 24 24" fill="none" xmlns="http://www.w3.org/2000/svg">
<path d="M11.3142 3.12063C11.7763 2.6467 12.328 2.26926 12.9371 2.01019C13.5463 1.75111 14.2008 1.61557 14.8627 1.61143C15.5246 1.60728 16.1808 1.73461 16.7931 1.98603C17.4055 2.23744 17.9618 2.60795 18.4298 3.07604C18.8978 3.54414 19.2683 4.10051 19.5196 4.71288C19.7709 5.32525 19.8982 5.98144 19.8939 6.64336C19.8897 7.30529 19.754 7.95979 19.4949 8.56889C19.2357 9.17799 18.8582 9.72957 18.3842 10.1916L10.6072 17.9696C10.3295 18.252 9.99866 18.4765 9.63373 18.6303C9.2688 18.7842 8.87703 18.8642 8.48102 18.8659C8.085 18.8675 7.69257 18.7908 7.32637 18.64C6.96017 18.4892 6.62744 18.2675 6.34738 17.9875C6.06732 17.7075 5.84546 17.3748 5.69461 17.0086C5.54376 16.6425 5.46691 16.2501 5.46847 15.854C5.47004 15.458 5.55 15.0662 5.70374 14.7013C5.85748 14.3363 6.08195 14.0054 6.36422 13.7276L14.1422 5.94963L15.5562 7.36363L7.77822 15.1416C7.68271 15.2339 7.60653 15.3442 7.55412 15.4662C7.50171 15.5882 7.47412 15.7194 7.47297 15.8522C7.47182 15.985 7.49712 16.1167 7.5474 16.2396C7.59768 16.3625 7.67193 16.4741 7.76583 16.568C7.85972 16.6619 7.97137 16.7362 8.09427 16.7865C8.21716 16.8367 8.34884 16.862 8.48162 16.8609C8.6144 16.8597 8.74562 16.8321 8.86763 16.7797C8.98963 16.7273 9.09997 16.6511 9.19222 16.5556L16.9712 8.77763C17.2498 8.49903 17.4708 8.16828 17.6216 7.80428C17.7724 7.44027 17.85 7.05013 17.85 6.65613C17.85 6.26213 17.7724 5.87199 17.6216 5.50798C17.4708 5.14397 17.2498 4.81323 16.9712 4.53463C16.6926 4.25603 16.3619 4.03503 15.9979 3.88426C15.6339 3.73348 15.2437 3.65587 14.8497 3.65587C14.4557 3.65587 14.0656 3.73348 13.7016 3.88426C13.3376 4.03503 13.0068 4.25603 12.7282 4.53463L4.95022 12.3136C4.03943 13.2566 3.53546 14.5197 3.54685 15.8306C3.55824 17.1416 4.08409 18.3957 5.01113 19.3227C5.93817 20.2498 7.19223 20.7756 8.50321 20.787C9.8142 20.7984 11.0772 20.2944 12.0202 19.3836L20.5062 10.8986L21.9202 12.3136L13.4352 20.7986C12.1224 22.1115 10.3418 22.849 8.48522 22.849C6.62861 22.849 4.84804 22.1115 3.53522 20.7986C2.2224 19.4858 1.48486 17.7052 1.48486 15.8486C1.48486 13.992 2.2224 12.2115 3.53522 10.8986L11.3142 3.12063Z" fill="white"/>
</svg>
