<svg width="31" height="30" viewBox="0 0 31 30" fill="none" xmlns="http://www.w3.org/2000/svg">
<path d="M7.0625 14.0625H25.8125C26.0611 14.0625 26.2996 14.1613 26.4754 14.3371C26.6512 14.5129 26.75 14.7514 26.75 15C26.75 15.2486 26.6512 15.4871 26.4754 15.6629C26.2996 15.8387 26.0611 15.9375 25.8125 15.9375H7.0625C6.81386 15.9375 6.5754 15.8387 6.39959 15.6629C6.22377 15.4871 6.125 15.2486 6.125 15C6.125 14.7514 6.22377 14.5129 6.39959 14.3371C6.5754 14.1613 6.81386 14.0625 7.0625 14.0625Z" fill="#FC4006"/>
<path d="M7.45035 15L15.226 22.7737C15.402 22.9498 15.5009 23.1885 15.5009 23.4375C15.5009 23.6864 15.402 23.9252 15.226 24.1012C15.0499 24.2773 14.8112 24.3762 14.5622 24.3762C14.3133 24.3762 14.0745 24.2773 13.8985 24.1012L5.46097 15.6637C5.37367 15.5767 5.3044 15.4732 5.25714 15.3593C5.20987 15.2454 5.18555 15.1233 5.18555 15C5.18555 14.8767 5.20987 14.7546 5.25714 14.6407C5.3044 14.5268 5.37367 14.4233 5.46097 14.3362L13.8985 5.89874C14.0745 5.72271 14.3133 5.62381 14.5622 5.62381C14.8112 5.62381 15.0499 5.72271 15.226 5.89874C15.402 6.07478 15.5009 6.31354 15.5009 6.56249C15.5009 6.81145 15.402 7.05021 15.226 7.22624L7.45035 15Z" fill="#FC4006"/>
</svg>
