<svg width="32" height="33" viewBox="0 0 32 33" fill="none" xmlns="http://www.w3.org/2000/svg">
<path d="M30.1198 19.5749C29.4907 18.5964 28.8619 17.6527 28.2328 16.6744C28.0933 16.4648 28.0933 16.325 28.2328 16.1154C28.8619 15.172 29.4558 14.2284 30.0849 13.285C30.8187 12.1669 30.4344 11.0834 29.1761 10.6293C28.1281 10.245 27.0798 9.8258 26.0315 9.44148C25.8219 9.3714 25.7169 9.23156 25.7169 8.98708C25.6821 7.83413 25.6123 6.68084 25.5422 5.56276C25.4725 4.33972 24.5291 3.64084 23.3409 3.9554C22.2229 4.23476 21.1048 4.54932 20.0213 4.86388C19.7768 4.93364 19.6373 4.86388 19.4622 4.68916C18.7633 3.78036 18.0296 2.90708 17.331 2.03348C16.5621 1.05524 15.3739 1.05524 14.5704 2.03348C13.8715 2.90708 13.1377 3.78068 12.4737 4.65428C12.299 4.89876 12.1243 4.93364 11.8449 4.86388C10.7617 4.54932 9.67854 4.26996 8.90958 4.06004C7.40718 3.7106 6.4987 4.30484 6.42862 5.56276C6.35886 6.71572 6.2891 7.869 6.2539 9.05716C6.2539 9.30164 6.14926 9.40628 5.93966 9.51124L2.69006 10.7692C1.57166 11.2236 1.22222 12.3068 1.88622 13.3199C2.51534 14.2984 3.14414 15.2418 3.77326 16.22C3.91278 16.43 3.91278 16.5695 3.77326 16.8143C3.1124 17.791 2.47163 18.7812 1.85134 19.7842C1.25742 20.7279 1.64174 21.846 2.68974 22.2652C3.77326 22.6844 4.89134 23.1036 5.97454 23.5231C6.21902 23.5932 6.2891 23.7327 6.2891 23.9775C6.32398 25.0956 6.46382 26.1791 6.46382 27.2968C6.46382 28.4152 7.44206 29.4284 8.80494 29.0092C9.88814 28.6597 10.9713 28.4152 12.0545 28.1004C12.2641 28.0306 12.404 28.0658 12.5438 28.2754C13.2776 29.1839 13.9765 30.0575 14.7102 30.966C15.5137 31.9442 16.667 31.9442 17.4357 30.966C18.1694 30.0572 18.8683 29.1836 19.6021 28.2754C19.7419 28.1007 19.8465 28.0306 20.0913 28.1007C21.2094 28.4152 22.3275 28.6946 23.4459 29.0092C24.5989 29.3237 25.5771 28.6248 25.6123 27.4367C25.6821 26.2837 25.7518 25.1304 25.787 23.9423C25.787 23.6629 25.9265 23.5583 26.1365 23.4882C27.2021 23.0958 28.262 22.688 29.316 22.2652C30.4344 21.7061 30.7838 20.5884 30.1198 19.5749ZM21.7685 13.8437L14.78 20.8325C14.6053 21.0069 14.3608 21.1468 14.116 21.1816C14.0462 21.1816 13.9413 21.2168 13.8715 21.2168C13.5569 21.2168 13.2075 21.077 12.963 20.8322L10.0977 17.9669C9.86267 17.7299 9.73078 17.4097 9.73078 17.0759C9.73078 16.7421 9.86267 16.4218 10.0977 16.1848C10.3347 15.9498 10.655 15.8179 10.9888 15.8179C11.3226 15.8179 11.6428 15.9498 11.8798 16.1848L13.8366 18.1416L19.9166 12.0616C20.1536 11.8266 20.4739 11.6947 20.8077 11.6947C21.1414 11.6947 21.4617 11.8266 21.6987 12.0616C22.2577 12.5509 22.2577 13.3541 21.7685 13.8437Z" fill="#34A853"/>
</svg>
