<svg width="20" height="20" viewBox="0 0 20 20" fill="none" xmlns="http://www.w3.org/2000/svg">
<path d="M10 -6.10352e-05C4.47715 -6.10352e-05 0 4.47709 0 9.99994C0 15.5228 4.47715 19.9999 10 19.9999C15.5228 19.9999 20 15.5228 20 9.99994C19.9936 4.47976 15.5202 0.00636793 10 -6.10352e-05Z" fill="black" fill-opacity="1"/>
<path d="M15.7722 6.83325L10.068 14.5741C9.93197 14.7546 9.72912 14.8728 9.50503 14.9023C9.28094 14.9318 9.05441 14.8699 8.87634 14.7308L4.80301 11.4741C4.44356 11.1864 4.38536 10.6619 4.67301 10.3024C4.96066 9.94297 5.48523 9.88477 5.84468 10.1724L9.24134 12.8899L14.4305 5.84742C14.6007 5.59208 14.8974 5.4509 15.2029 5.47995C15.5083 5.50899 15.7731 5.70356 15.8921 5.98639C16.0111 6.26923 15.965 6.59457 15.7722 6.83325Z" fill="white"/>
</svg>
