<svg width="36" height="36" viewBox="0 0 36 36" fill="none" xmlns="http://www.w3.org/2000/svg">
<path d="M32.625 18C32.625 26.0768 26.0768 32.625 18 32.625C9.9232 32.625 3.375 26.0768 3.375 18C3.375 9.9232 9.9232 3.375 18 3.375C26.0768 3.375 32.625 9.9232 32.625 18ZM14.5287 18L20.4827 12.0452C20.6848 11.8325 20.7958 11.5493 20.792 11.256C20.7883 10.9626 20.6701 10.6823 20.4626 10.4749C20.2552 10.2674 19.9749 10.1492 19.6815 10.1455C19.3882 10.1417 19.105 10.2527 18.8923 10.4548L12.1423 17.2048C11.9314 17.4157 11.813 17.7018 11.813 18C11.813 18.2982 11.9314 18.5843 12.1423 18.7952L18.8923 25.5452C19.105 25.7473 19.3882 25.8583 19.6815 25.8545C19.9749 25.8508 20.2552 25.7326 20.4626 25.5251C20.6701 25.3177 20.7883 25.0374 20.792 24.744C20.7958 24.4507 20.6848 24.1675 20.4827 23.9548L14.5287 18Z" fill="#FC4006"/>
</svg>
