<svg width="37" height="37" viewBox="0 0 37 37" fill="none" xmlns="http://www.w3.org/2000/svg">
<path d="M3.46875 18.5C3.46875 26.8012 10.1988 33.5312 18.5 33.5312C26.8012 33.5312 33.5312 26.8012 33.5312 18.5C33.5312 10.1988 26.8012 3.46875 18.5 3.46875C10.1988 3.46875 3.46875 10.1988 3.46875 18.5ZM22.0678 18.5L15.9483 12.3798C15.7406 12.1612 15.6265 11.8701 15.6304 11.5686C15.6343 11.2671 15.7558 10.9791 15.969 10.7658C16.1822 10.5526 16.4702 10.4311 16.7718 10.4273C17.0733 10.4234 17.3643 10.5375 17.5829 10.7452L24.5204 17.6827C24.7371 17.8995 24.8588 18.1935 24.8588 18.5C24.8588 18.8065 24.7371 19.1005 24.5204 19.3173L17.5829 26.2548C17.3643 26.4625 17.0733 26.5766 16.7718 26.5727C16.4702 26.5689 16.1822 26.4474 15.969 26.2342C15.7558 26.0209 15.6343 25.7329 15.6304 25.4314C15.6265 25.1299 15.7406 24.8388 15.9483 24.6202L22.0678 18.5Z" fill="#FC4006"/>
</svg>
