<svg width="25" height="24" viewBox="0 0 25 24" fill="none" xmlns="http://www.w3.org/2000/svg">
<path d="M19.1103 5.25844C17.9787 3.31875 16.43 2.25 14.75 2.25H10.25C8.57 2.25 7.02125 3.31875 5.88969 5.25844C4.83219 7.07062 4.25 9.46875 4.25 12C4.25 14.5312 4.83219 16.9294 5.88969 18.7416C7.02125 20.6812 8.57 21.75 10.25 21.75H14.75C16.43 21.75 17.9787 20.6812 19.1103 18.7416C20.1678 16.9294 20.75 14.5312 20.75 12C20.75 9.46875 20.1678 7.07062 19.1103 5.25844ZM19.2303 11.25H16.2303C16.1717 9.71097 15.8653 8.19146 15.3228 6.75H18.1906C18.7644 8.00437 19.1431 9.5625 19.2303 11.25ZM17.2991 5.25H14.6056C14.2925 4.70648 13.9147 4.20283 13.4806 3.75H14.75C15.6875 3.75 16.5688 4.3125 17.2991 5.25ZM5.75 12C5.75 7.52812 7.8125 3.75 10.25 3.75C12.6875 3.75 14.75 7.52812 14.75 12C14.75 16.4719 12.6875 20.25 10.25 20.25C7.8125 20.25 5.75 16.4719 5.75 12ZM14.75 20.25H13.4834C13.9175 19.7972 14.2953 19.2935 14.6084 18.75H17.3019C16.5688 19.6875 15.6875 20.25 14.75 20.25ZM18.1906 17.25H15.3237C15.8662 15.8085 16.1726 14.289 16.2313 12.75H19.2313C19.1431 14.4375 18.7644 15.9956 18.1906 17.25Z" fill="#A4A5A6"/>
</svg>
