<svg width="25" height="24" viewBox="0 0 25 24" fill="none" xmlns="http://www.w3.org/2000/svg">
<g clip-path="url(#clip0_1180_42271)">
<path d="M15.0951 24.0001C10.8651 24.0001 7.41505 20.5651 7.41505 16.3201C7.41249 14.9254 7.79123 13.5566 8.51034 12.3616C9.22945 11.1666 10.2616 10.1909 11.4951 9.54007C11.8551 9.34507 12.3201 9.48007 12.5151 9.85507C12.7101 10.2151 12.5751 10.6801 12.2001 10.8751C11.2082 11.401 10.3784 12.1871 9.7996 13.149C9.22084 14.111 8.91505 15.2124 8.91505 16.3351C8.91505 19.7401 11.6901 22.5151 15.0951 22.5151C18.5001 22.5151 21.2751 19.7401 21.2751 16.3351C21.2751 15.0901 20.9001 13.8901 20.2101 12.8701C19.9701 12.5251 20.0601 12.0601 20.4051 11.8351C20.7501 11.5951 21.2151 11.6851 21.4401 12.0301C22.3101 13.3051 22.7751 14.8051 22.7751 16.3501C22.7751 20.5801 19.3401 24.0301 15.0951 24.0301V24.0001Z" fill="#A4A5A6"/>
<path d="M17.7498 21H12.4248C12.0048 21 11.6748 20.67 11.6748 20.25C11.6748 19.83 12.0048 19.5 12.4248 19.5H17.7498C18.1698 19.5 18.4998 19.83 18.4998 20.25C18.4998 20.67 18.1698 21 17.7498 21ZM15.6348 18H12.4398C12.0198 18 11.6898 17.67 11.6898 17.25C11.6898 16.83 12.0198 16.5 12.4398 16.5H15.6348C16.0548 16.5 16.3848 16.83 16.3848 17.25C16.3848 17.67 16.0548 18 15.6348 18Z" fill="#A4A5A6"/>
<path d="M13.5049 20.8051C13.0849 20.8051 12.7549 20.4751 12.7549 20.0551V14.8651C12.7549 13.7101 13.3999 12.6901 14.4199 12.1651C14.7949 11.9851 15.2449 12.1351 15.4249 12.4951C15.6049 12.8701 15.4549 13.3201 15.0949 13.5001C14.5849 13.7551 14.2549 14.2801 14.2549 14.8501V20.0401C14.2549 20.4601 13.9249 20.7901 13.5049 20.7901V20.8051Z" fill="#A4A5A6"/>
<path d="M17.48 14.055C13.61 14.055 10.46 10.905 10.46 7.035C10.46 3.165 13.61 0 17.48 0C21.35 0 24.5 3.15 24.5 7.02C24.5 10.89 21.35 14.04 17.48 14.04V14.055ZM17.48 1.5C14.435 1.5 11.96 3.975 11.96 7.02C11.96 10.065 14.435 12.54 17.48 12.54C20.525 12.54 23 10.065 23 7.02C23 3.975 20.525 1.5 17.48 1.5Z" fill="#A4A5A6"/>
<path d="M17.375 11.145C15.92 11.145 14.75 9.96002 14.75 8.52002V5.52002C14.75 4.06502 15.935 2.89502 17.375 2.89502C18.815 2.89502 20 4.08002 20 5.52002C20 5.94002 19.67 6.27002 19.25 6.27002C18.83 6.27002 18.5 5.94002 18.5 5.52002C18.5 4.90502 17.99 4.39502 17.375 4.39502C16.76 4.39502 16.25 4.90502 16.25 5.52002V8.52002C16.25 9.13502 16.76 9.64502 17.375 9.64502C17.99 9.64502 18.5 9.13502 18.5 8.52002C18.5 8.10002 18.83 7.77002 19.25 7.77002C19.67 7.77002 20 8.10002 20 8.52002C20 9.97502 18.815 11.145 17.375 11.145Z" fill="#A4A5A6"/>
<path d="M17 6.68996H14.75C14.33 6.68996 14 6.35996 14 5.93996C14 5.51996 14.33 5.18996 14.75 5.18996H17C17.42 5.18996 17.75 5.51996 17.75 5.93996C17.75 6.35996 17.42 6.68996 17 6.68996ZM17 8.99996H14.75C14.33 8.99996 14 8.66996 14 8.24996C14 7.82996 14.33 7.49996 14.75 7.49996H17C17.42 7.49996 17.75 7.82996 17.75 8.24996C17.75 8.66996 17.42 8.99996 17 8.99996ZM8.6 20.1C4.13 20.1 0.5 16.47 0.5 12C0.50049 10.6675 0.829499 9.35573 1.4579 8.18076C2.0863 7.0058 2.9947 6.00389 4.10269 5.26375C5.21067 4.52362 6.48405 4.06808 7.81009 3.93747C9.13612 3.80686 10.4739 4.00521 11.705 4.51496C12.095 4.67996 12.275 5.11496 12.11 5.48996C11.945 5.87996 11.51 6.05996 11.135 5.89496C10.1318 5.48293 9.0427 5.32408 7.96364 5.43244C6.88458 5.5408 5.84877 5.91303 4.94757 6.5163C4.04636 7.11958 3.30746 7.93535 2.79604 8.89167C2.28461 9.848 2.01638 10.9155 2.015 12C2.015 15.63 4.985 18.6 8.615 18.6C9.035 18.6 9.365 18.93 9.365 19.35C9.365 19.77 9.035 20.1 8.615 20.1H8.6Z" fill="#A4A5A6"/>
<path d="M8.70508 14.2499C8.28508 14.2499 7.95508 13.9199 7.95508 13.4999V7.2749C7.95508 6.8549 8.28508 6.5249 8.70508 6.5249C9.12508 6.5249 9.45508 6.8549 9.45508 7.2749V13.4999C9.45508 13.9199 9.12508 14.2499 8.70508 14.2499Z" fill="#A4A5A6"/>
<path d="M8.44998 12.7501C7.76174 12.7501 7.1017 12.4767 6.61504 11.99C6.12838 11.5033 5.85498 10.8433 5.85498 10.1551C5.85498 9.46682 6.12838 8.80677 6.61504 8.32012C7.1017 7.83346 7.76174 7.56006 8.44998 7.56006H8.97498C10.4 7.56006 11.57 8.71506 11.57 10.1551V10.4251C11.57 10.8451 11.24 11.1751 10.82 11.1751C10.4 11.1751 10.07 10.8451 10.07 10.4251V10.1551C10.07 9.55506 9.57498 9.06006 8.97498 9.06006H8.44998C7.84998 9.06006 7.35498 9.55506 7.35498 10.1551C7.35498 10.7551 7.84998 11.2501 8.44998 11.2501C8.86998 11.2501 9.19998 11.5801 9.19998 12.0001C9.19998 12.4201 8.86998 12.7501 8.44998 12.7501ZM7.99998 16.3801C7.99998 16.3801 7.87998 16.3801 7.81998 16.3501C6.66498 16.0651 5.85498 15.0301 5.85498 13.8451V13.5751C5.85498 13.1551 6.18498 12.8251 6.60498 12.8251C7.02498 12.8251 7.35498 13.1551 7.35498 13.5751V13.8451C7.35498 14.3401 7.69998 14.7751 8.17998 14.8951C8.58498 15.0001 8.82498 15.4051 8.71998 15.8101C8.62998 16.1551 8.32998 16.3801 7.99998 16.3801Z" fill="#A4A5A6"/>
</g>
<defs>
<clipPath id="clip0_1180_42271">
<rect width="24" height="24" fill="white" transform="translate(0.5)"/>
</clipPath>
</defs>
</svg>
