<svg width="40" height="40" viewBox="0 0 40 40" fill="none" xmlns="http://www.w3.org/2000/svg">
<g clip-path="url(#clip0_692_3073)">
<path fill-rule="evenodd" clip-rule="evenodd" d="M17.3062 1.91649L14.4134 4.80673C14.178 5.03764 13.8625 5.16878 13.5328 5.17281H8.98112C6.87679 5.17281 5.17183 6.87777 5.17183 8.98209V13.5338C5.16846 13.8644 5.03728 14.1809 4.80575 14.417L1.91295 17.3072C1.2001 18.0222 0.799805 18.9907 0.799805 20.0003C0.799805 21.01 1.2001 21.9784 1.91295 22.6935L4.80575 25.5863C5.03667 25.8217 5.1678 26.1371 5.17183 26.4669V31.0186C5.17183 33.1229 6.87679 34.8279 8.98112 34.8279H13.5328C13.8634 34.8312 14.1799 34.9624 14.416 35.1939L17.3062 38.0867C18.0212 38.7996 18.9897 39.1999 19.9994 39.1999C21.009 39.1999 21.9775 38.7996 22.6925 38.0867L25.5853 35.1939C25.8207 34.963 26.1362 34.8319 26.4659 34.8279H31.0176C33.1219 34.8279 34.8269 33.1229 34.8269 31.0186V26.4669C34.8302 26.1363 34.9614 25.8198 35.193 25.5837L38.0858 22.6935C38.7986 21.9784 39.1989 21.01 39.1989 20.0003C39.1989 18.9907 38.7986 18.0222 38.0858 17.3072L35.193 14.4144C34.962 14.179 34.8309 13.8635 34.8269 13.5338V8.98209C34.8269 6.87777 33.1219 5.17281 31.0176 5.17281H26.4659C26.1353 5.16944 25.8188 5.03825 25.5827 4.80673L22.6925 1.91393C21.9775 1.20108 21.009 0.800781 19.9994 0.800781C18.9897 0.800781 18.0212 1.20364 17.3062 1.91649ZM12.6931 25.4915L25.4931 12.6915L27.3056 14.504L14.5056 27.304L12.6931 25.4915ZM13.5994 13.6003V16.1603H16.1594V13.6003H13.5994ZM23.8394 26.4003H26.3994V23.8403H23.8394V26.4003Z" fill="#FC4006"/>
</g>
<defs>
<clipPath id="clip0_692_3073">
<rect width="38.4" height="38.4" fill="white" transform="translate(0.799805 0.800781)"/>
</clipPath>
</defs>
</svg>
