<svg width="24" height="24" viewBox="0 0 24 24" fill="none" xmlns="http://www.w3.org/2000/svg">
<path d="M14.9958 3.49147L14.9958 3.49149L5.48896 13.0113C5.48891 13.0114 5.48885 13.0114 5.4888 13.0115C5.01595 13.4855 4.75028 14.1276 4.75 14.7972C4.75 14.7972 4.75 14.7973 4.75 14.7974V18.0002C4.75 18.138 4.86214 18.2502 5 18.2502H8.223C8.89299 18.2502 9.53587 17.9831 10.0093 17.5097C10.0094 17.5097 10.0094 17.5097 10.0094 17.5096L19.509 8.00404C19.9822 7.52975 20.2479 6.88714 20.2479 6.21718C20.2479 5.54721 19.9822 4.90461 19.509 4.43031L18.5713 3.49063L18.5711 3.49035M14.9958 3.49147L14.642 3.13818C14.9231 2.8567 15.2568 2.63338 15.6243 2.48098C15.9917 2.32858 16.3855 2.25009 16.7833 2.25C17.1811 2.24991 17.575 2.32821 17.9424 2.48044C18.3099 2.63267 18.6438 2.85583 18.925 3.13718L18.5711 3.49035M14.9958 3.49147C15.2304 3.25649 15.5091 3.07005 15.8158 2.94283C16.1225 2.8156 16.4513 2.75008 16.7834 2.75C17.1155 2.74992 17.4443 2.81529 17.7511 2.94238C18.0578 3.06941 18.3364 3.25561 18.5711 3.49035M14.9958 3.49147L18.5711 3.49035M3.82322 20.8234C3.87011 20.7765 3.9337 20.7502 4 20.7502H20C20.0663 20.7502 20.1299 20.7765 20.1768 20.8234C20.2237 20.8703 20.25 20.9339 20.25 21.0002C20.25 21.0665 20.2237 21.1301 20.1768 21.177C20.1299 21.2238 20.0663 21.2502 20 21.2502H4C3.9337 21.2502 3.87011 21.2238 3.82322 21.177C3.77634 21.1301 3.75 21.0665 3.75 21.0002C3.75 20.9339 3.77634 20.8703 3.82322 20.8234Z" fill="#FD9F83" stroke="#FC4006"/>
</svg>
