<svg width="25" height="25" viewBox="0 0 25 25" fill="none" xmlns="http://www.w3.org/2000/svg">
<path d="M7.29199 7.29102H6.25033C5.69779 7.29102 5.16789 7.51051 4.77719 7.90121C4.38649 8.29191 4.16699 8.82181 4.16699 9.37435V18.7493C4.16699 19.3019 4.38649 19.8318 4.77719 20.2225C5.16789 20.6132 5.69779 20.8327 6.25033 20.8327H15.6253C16.1779 20.8327 16.7078 20.6132 17.0985 20.2225C17.4892 19.8318 17.7087 19.3019 17.7087 18.7493V17.7077" stroke="#4A454F" stroke-width="2.08333" stroke-linecap="round" stroke-linejoin="round"/>
<path d="M16.6667 5.20844L19.7917 8.33344M21.2344 6.85949C21.6446 6.44923 21.8751 5.8928 21.8751 5.31261C21.8751 4.73242 21.6446 4.17599 21.2344 3.76574C20.8241 3.35548 20.2677 3.125 19.6875 3.125C19.1073 3.125 18.5509 3.35548 18.1406 3.76574L9.375 12.5001V15.6251H12.5L21.2344 6.85949Z" stroke="#4A454F" stroke-width="2.08333" stroke-linecap="round" stroke-linejoin="round"/>
</svg>
