<svg width="24" height="25" viewBox="0 0 24 25" fill="none" xmlns="http://www.w3.org/2000/svg">
<path d="M20 4.26465H4C2.9 4.26465 2 5.16465 2 6.26465V18.2646C2 19.3646 2.9 20.2646 4 20.2646H20C21.1 20.2646 22 19.3646 22 18.2646V6.26465C22 5.16465 21.1 4.26465 20 4.26465ZM19.6 8.51465L13.06 12.6046C12.41 13.0146 11.59 13.0146 10.94 12.6046L4.4 8.51465C4.29973 8.45836 4.21192 8.38231 4.14189 8.2911C4.07186 8.19989 4.02106 8.09543 3.99258 7.98402C3.96409 7.87261 3.9585 7.75658 3.97616 7.64296C3.99381 7.52933 4.03434 7.42046 4.09528 7.32295C4.15623 7.22544 4.23632 7.1413 4.33073 7.07564C4.42513 7.00998 4.53187 6.96416 4.6445 6.94095C4.75712 6.91773 4.87328 6.91762 4.98595 6.9406C5.09863 6.96358 5.20546 7.00918 5.3 7.07465L12 11.2646L18.7 7.07465C18.7945 7.00918 18.9014 6.96358 19.014 6.9406C19.1267 6.91762 19.2429 6.91773 19.3555 6.94095C19.4681 6.96416 19.5749 7.00998 19.6693 7.07564C19.7637 7.1413 19.8438 7.22544 19.9047 7.32295C19.9657 7.42046 20.0062 7.52933 20.0238 7.64296C20.0415 7.75658 20.0359 7.87261 20.0074 7.98402C19.9789 8.09543 19.9281 8.19989 19.8581 8.2911C19.7881 8.38231 19.7003 8.45836 19.6 8.51465Z" fill="black"/>
</svg>
