<svg width="24" height="25" viewBox="0 0 24 25" fill="none" xmlns="http://www.w3.org/2000/svg">
<path d="M20 4.67969H4C2.9 4.67969 2.01 5.57969 2.01 6.67969L2 18.6797C2 19.7797 2.9 20.6797 4 20.6797H20C21.1 20.6797 22 19.7797 22 18.6797V6.67969C22 5.57969 21.1 4.67969 20 4.67969ZM19.6 8.92969L12.53 13.3497C12.21 13.5497 11.79 13.5497 11.47 13.3497L4.4 8.92969C4.29973 8.8734 4.21192 8.79735 4.14189 8.70614C4.07186 8.61493 4.02106 8.51047 3.99258 8.39906C3.96409 8.28765 3.9585 8.17162 3.97616 8.05799C3.99381 7.94437 4.03434 7.8355 4.09528 7.73799C4.15623 7.64048 4.23632 7.55634 4.33073 7.49068C4.42513 7.42502 4.53187 7.3792 4.6445 7.35599C4.75712 7.33277 4.87328 7.33265 4.98595 7.35564C5.09863 7.37862 5.20546 7.42422 5.3 7.48969L12 11.6797L18.7 7.48969C18.7945 7.42422 18.9014 7.37862 19.014 7.35564C19.1267 7.33265 19.2429 7.33277 19.3555 7.35599C19.4681 7.3792 19.5749 7.42502 19.6693 7.49068C19.7637 7.55634 19.8438 7.64048 19.9047 7.73799C19.9657 7.8355 20.0062 7.94437 20.0238 8.05799C20.0415 8.17162 20.0359 8.28765 20.0074 8.39906C19.9789 8.51047 19.9281 8.61493 19.8581 8.70614C19.7881 8.79735 19.7003 8.8734 19.6 8.92969Z" fill="white"/>
</svg>
