<svg width="25" height="24" viewBox="0 0 25 24" fill="none" xmlns="http://www.w3.org/2000/svg">
<g opacity="0.6">
<path d="M1.23145 11.9998C2.21061 6.87976 6.88353 2.99976 12.5002 2.99976C18.1169 2.99976 22.7898 6.87976 23.77 11.9998C22.7908 17.1198 18.1169 20.9998 12.5002 20.9998C6.88353 20.9998 2.21061 17.1198 1.23145 11.9998ZM12.5002 16.9998C13.8815 16.9998 15.2063 16.473 16.183 15.5353C17.1598 14.5976 17.7085 13.3258 17.7085 11.9998C17.7085 10.6737 17.1598 9.4019 16.183 8.46422C15.2063 7.52654 13.8815 6.99976 12.5002 6.99976C11.1189 6.99976 9.7941 7.52654 8.81735 8.46422C7.8406 9.4019 7.29186 10.6737 7.29186 11.9998C7.29186 13.3258 7.8406 14.5976 8.81735 15.5353C9.7941 16.473 11.1189 16.9998 12.5002 16.9998ZM12.5002 14.9998C11.6714 14.9998 10.8765 14.6837 10.2905 14.1211C9.70443 13.5585 9.37519 12.7954 9.37519 11.9998C9.37519 11.2041 9.70443 10.441 10.2905 9.87844C10.8765 9.31583 11.6714 8.99976 12.5002 8.99976C13.329 8.99976 14.1239 9.31583 14.7099 9.87844C15.296 10.441 15.6252 11.2041 15.6252 11.9998C15.6252 12.7954 15.296 13.5585 14.7099 14.1211C14.1239 14.6837 13.329 14.9998 12.5002 14.9998Z" fill="#596569"/>
</g>
</svg>
