<svg width="24" height="25" viewBox="0 0 24 25" fill="none" xmlns="http://www.w3.org/2000/svg">
<path d="M22.501 12.9128C22.501 12.0494 22.4296 11.4194 22.2748 10.7661H12.2153V14.6627H18.12C18.001 15.6311 17.3582 17.0894 15.9296 18.0694L15.9096 18.1998L19.0902 20.6146L19.3106 20.6361C21.3343 18.8044 22.501 16.1094 22.501 12.9128Z" fill="#FC4006"/>
<path d="M12.214 23.1798C15.1068 23.1798 17.5353 22.2464 19.3092 20.6364L15.9282 18.0697C15.0235 18.688 13.8092 19.1197 12.214 19.1197C9.38069 19.1197 6.97596 17.288 6.11874 14.7563L5.99309 14.7668L2.68583 17.2752L2.64258 17.393C4.40446 20.823 8.0235 23.1798 12.214 23.1798Z" fill="#FC4006"/>
<path d="M6.12046 14.7564C5.89428 14.1031 5.76337 13.403 5.76337 12.6797C5.76337 11.9564 5.89428 11.2564 6.10856 10.6031L6.10257 10.4639L2.75386 7.91528L2.64429 7.96636C1.91814 9.38971 1.50146 10.9881 1.50146 12.6797C1.50146 14.3714 1.91814 15.9697 2.64429 17.393L6.12046 14.7564Z" fill="#FC4006"/>
<path d="M12.2141 6.23966C14.2259 6.23966 15.583 7.09132 16.3569 7.80304L19.3807 4.90969C17.5236 3.21803 15.1069 2.17969 12.2141 2.17969C8.02353 2.17969 4.40447 4.53634 2.64258 7.96631L6.10686 10.603C6.97598 8.07135 9.38073 6.23966 12.2141 6.23966Z" fill="#FC4006"/>
</svg>
