<svg width="17" height="16" viewBox="0 0 17 16" fill="none" xmlns="http://www.w3.org/2000/svg">
<path d="M8.18718 11.3335C8.37606 11.3335 8.53451 11.2695 8.66251 11.1415C8.79051 11.0135 8.85429 10.8553 8.85384 10.6668V8.00016C8.85384 7.81127 8.78984 7.65305 8.66184 7.5255C8.53384 7.39794 8.37562 7.33394 8.18718 7.3335C7.99873 7.33305 7.84051 7.39705 7.71251 7.5255C7.58451 7.65394 7.52051 7.81216 7.52051 8.00016V10.6668C7.52051 10.8557 7.58451 11.0142 7.71251 11.1422C7.84051 11.2702 7.99873 11.3339 8.18718 11.3335ZM8.18718 6.00016C8.37606 6.00016 8.53451 5.93616 8.66251 5.80816C8.79051 5.68016 8.85429 5.52194 8.85384 5.3335C8.8534 5.14505 8.7894 4.98683 8.66184 4.85883C8.53429 4.73083 8.37606 4.66683 8.18718 4.66683C7.99829 4.66683 7.84006 4.73083 7.71251 4.85883C7.58495 4.98683 7.52095 5.14505 7.52051 5.3335C7.52006 5.52194 7.58406 5.68039 7.71251 5.80883C7.84095 5.93727 7.99918 6.00105 8.18718 6.00016ZM8.18718 14.6668C7.26495 14.6668 6.39829 14.4917 5.58718 14.1415C4.77606 13.7913 4.07051 13.3164 3.47051 12.7168C2.87051 12.1173 2.39562 11.4117 2.04584 10.6002C1.69606 9.78861 1.52095 8.92194 1.52051 8.00016C1.52006 7.07838 1.69518 6.21172 2.04584 5.40016C2.39651 4.58861 2.8714 3.88305 3.47051 3.2835C4.06962 2.68394 4.77518 2.20905 5.58718 1.85883C6.39918 1.50861 7.26584 1.3335 8.18718 1.3335C9.10851 1.3335 9.97517 1.50861 10.7872 1.85883C11.5992 2.20905 12.3047 2.68394 12.9038 3.2835C13.503 3.88305 13.9781 4.58861 14.3292 5.40016C14.6803 6.21172 14.8552 7.07838 14.8538 8.00016C14.8525 8.92194 14.6774 9.78861 14.3285 10.6002C13.9796 11.4117 13.5047 12.1173 12.9038 12.7168C12.303 13.3164 11.5974 13.7915 10.7872 14.1422C9.97695 14.4928 9.11029 14.6677 8.18718 14.6668Z" fill="#FC4006"/>
</svg>
