<svg width="21" height="21" viewBox="0 0 21 21" fill="none" xmlns="http://www.w3.org/2000/svg">
<path d="M10.5 9.66667V13.8333M10.5 18C9.51509 18 8.53982 17.806 7.62987 17.4291C6.71993 17.0522 5.89314 16.4997 5.1967 15.8033C4.50026 15.1069 3.94781 14.2801 3.5709 13.3701C3.19399 12.4602 3 11.4849 3 10.5C3 9.51509 3.19399 8.53982 3.5709 7.62987C3.94781 6.71993 4.50026 5.89314 5.1967 5.1967C5.89314 4.50026 6.71993 3.94781 7.62987 3.5709C8.53982 3.19399 9.51509 3 10.5 3C12.4891 3 14.3968 3.79018 15.8033 5.1967C17.2098 6.60322 18 8.51088 18 10.5C18 12.4891 17.2098 14.3968 15.8033 15.8033C14.3968 17.2098 12.4891 18 10.5 18ZM10.5417 7.16667V7.25H10.4583V7.16667H10.5417Z" stroke="black" stroke-width="1.5" stroke-linecap="round" stroke-linejoin="round"/>
</svg>
