<svg width="32" height="32" viewBox="0 0 32 32" fill="none" xmlns="http://www.w3.org/2000/svg">
<path d="M15.9987 21.333C16.3009 21.333 16.5544 21.2306 16.7592 21.0258C16.964 20.821 17.0661 20.5678 17.0654 20.2663V15.9997C17.0654 15.6974 16.963 15.4443 16.7582 15.2402C16.5534 15.0361 16.3002 14.9337 15.9987 14.933C15.6972 14.9323 15.444 15.0347 15.2392 15.2402C15.0344 15.4457 14.932 15.6989 14.932 15.9997V20.2663C14.932 20.5686 15.0344 20.8221 15.2392 21.0269C15.444 21.2317 15.6972 21.3337 15.9987 21.333ZM15.9987 12.7997C16.3009 12.7997 16.5544 12.6973 16.7592 12.4925C16.964 12.2877 17.0661 12.0345 17.0654 11.733C17.0646 11.4315 16.9622 11.1783 16.7582 10.9735C16.5541 10.7687 16.3009 10.6663 15.9987 10.6663C15.6965 10.6663 15.4433 10.7687 15.2392 10.9735C15.0351 11.1783 14.9327 11.4315 14.932 11.733C14.9313 12.0345 15.0337 12.288 15.2392 12.4935C15.4447 12.6991 15.6979 12.8011 15.9987 12.7997ZM15.9987 26.6663C14.5231 26.6663 13.1365 26.3862 11.8387 25.8258C10.5409 25.2654 9.41203 24.5056 8.45203 23.5463C7.49203 22.587 6.73221 21.4582 6.17257 20.1597C5.61292 18.8612 5.33274 17.4745 5.33203 15.9997C5.33132 14.5248 5.6115 13.1382 6.17257 11.8397C6.73363 10.5412 7.49345 9.4123 8.45203 8.45301C9.41061 7.49372 10.5395 6.7339 11.8387 6.17354C13.1379 5.61319 14.5246 5.33301 15.9987 5.33301C17.4728 5.33301 18.8595 5.61319 20.1587 6.17354C21.4579 6.7339 22.5868 7.49372 23.5454 8.45301C24.5039 9.4123 25.2641 10.5412 25.8259 11.8397C26.3877 13.1382 26.6675 14.5248 26.6654 15.9997C26.6632 17.4745 26.383 18.8612 25.8248 20.1597C25.2666 21.4582 24.5068 22.587 23.5454 23.5463C22.5839 24.5056 21.455 25.2658 20.1587 25.8269C18.8623 26.3879 17.4757 26.6678 15.9987 26.6663Z" fill="black"/>
</svg>
