<svg width="23" height="22" viewBox="0 0 23 22" fill="none" xmlns="http://www.w3.org/2000/svg">
<path d="M11.501 16.3989C11.8068 16.3989 12.0634 16.2953 12.2707 16.088C12.478 15.8807 12.5813 15.6245 12.5805 15.3193V11.001C12.5805 10.6951 12.4769 10.4389 12.2696 10.2323C12.0623 10.0257 11.8061 9.92209 11.501 9.92137C11.1958 9.92065 10.9396 10.0243 10.7323 10.2323C10.525 10.4403 10.4214 10.6965 10.4214 11.001V15.3193C10.4214 15.6252 10.525 15.8818 10.7323 16.0891C10.9396 16.2963 11.1958 16.3996 11.501 16.3989ZM11.501 7.76219C11.8068 7.76219 12.0634 7.65855 12.2707 7.45127C12.478 7.24399 12.5813 6.98777 12.5805 6.68261C12.5798 6.37744 12.4762 6.12122 12.2696 5.91394C12.0631 5.70666 11.8068 5.60302 11.501 5.60302C11.1951 5.60302 10.9389 5.70666 10.7323 5.91394C10.5257 6.12122 10.4221 6.37744 10.4214 6.68261C10.4207 6.98777 10.5243 7.24435 10.7323 7.45235C10.9403 7.66035 11.1965 7.76363 11.501 7.76219ZM11.501 21.7968C10.0075 21.7968 8.60407 21.5133 7.29057 20.9461C5.97707 20.379 4.8345 19.61 3.86287 18.639C2.89125 17.6681 2.12222 16.5256 1.55579 15.2114C0.989371 13.8971 0.705799 12.4937 0.705079 11.001C0.70436 9.50825 0.987932 8.10478 1.55579 6.79057C2.12366 5.47635 2.89268 4.33378 3.86287 3.36287C4.83306 2.39196 5.97563 1.62294 7.29057 1.05579C8.6055 0.48865 10.009 0.205078 11.501 0.205078C12.9929 0.205078 14.3964 0.48865 15.7114 1.05579C17.0263 1.62294 18.1689 2.39196 19.139 3.36287C20.1092 4.33378 20.8786 5.47635 21.4472 6.79057C22.0158 8.10478 22.299 9.50825 22.2968 11.001C22.2947 12.4937 22.0111 13.8971 21.4461 15.2114C20.8811 16.5256 20.1121 17.6681 19.139 18.639C18.166 19.61 17.0234 20.3793 15.7114 20.9472C14.3993 21.5151 12.9958 21.7983 11.501 21.7968Z" fill="white"/>
</svg>
