<svg width="40" height="40" viewBox="0 0 40 40" fill="none" xmlns="http://www.w3.org/2000/svg">
<g clip-path="url(#clip0_692_3040)">
<path d="M31.1998 28.0008V31.2008H11.9998V28.0008C11.9998 28.0008 11.9998 21.6008 21.5998 21.6008C31.1998 21.6008 31.1998 28.0008 31.1998 28.0008ZM26.3998 13.6008C26.3998 12.6514 26.1183 11.7234 25.5909 10.934C25.0634 10.1447 24.3138 9.52946 23.4367 9.16616C22.5596 8.80286 21.5945 8.7078 20.6634 8.89301C19.7323 9.07822 18.877 9.53538 18.2057 10.2067C17.5344 10.878 17.0772 11.7332 16.892 12.6644C16.7068 13.5955 16.8019 14.5606 17.1652 15.4377C17.5285 16.3147 18.1437 17.0644 18.9331 17.5918C19.7224 18.1193 20.6505 18.4008 21.5998 18.4008C22.8728 18.4008 24.0937 17.8951 24.9939 16.9949C25.8941 16.0947 26.3998 14.8738 26.3998 13.6008ZM31.5198 21.6968C32.3944 22.5037 33.0995 23.4767 33.594 24.559C34.0885 25.6414 34.3624 26.8114 34.3998 28.0008V31.2008H39.1998V28.0008C39.1998 28.0008 39.1998 22.4808 31.5198 21.6968ZM29.5998 8.80078C29.1164 8.80081 28.6359 8.87639 28.1758 9.02478C29.1119 10.3671 29.6138 11.9643 29.6138 13.6008C29.6138 15.2373 29.1119 16.8344 28.1758 18.1768C28.6359 18.3252 29.1164 18.4008 29.5998 18.4008C30.8728 18.4008 32.0937 17.8951 32.9939 16.9949C33.8941 16.0947 34.3998 14.8738 34.3998 13.6008C34.3998 12.3277 33.8941 11.1068 32.9939 10.2067C32.0937 9.3065 30.8728 8.80078 29.5998 8.80078ZM13.5998 16.8008H8.7998V12.0008H5.5998V16.8008H0.799805V20.0008H5.5998V24.8008H8.7998V20.0008H13.5998V16.8008Z" fill="#FC4006"/>
</g>
<defs>
<clipPath id="clip0_692_3040">
<rect width="38.4" height="38.4" fill="white" transform="translate(0.799805 0.800781)"/>
</clipPath>
</defs>
</svg>
