<svg width="25" height="24" viewBox="0 0 25 24" fill="none" xmlns="http://www.w3.org/2000/svg">
<path d="M15.5 1.125H1.25V15.375H9.5V23.25H23.75V9H15.5V1.125ZM7.4518 4.5L5.09811 11.2172H6.6875L7.07028 10.125H9.5V13.875H2.75V2.625H14V9H10.8749L9.29844 4.5H7.4518ZM9.15416 8.625H7.59584L8.375 6.40134L9.15416 8.625ZM22.25 10.5V21.75H11V10.5H22.25Z" fill="#A4A5A6"/>
<path d="M15.3796 17.2725C15.5231 17.5029 15.6811 17.724 15.8525 17.9344C15.3088 18.2276 14.6913 18.3745 14 18.375V19.875C15.1316 19.875 16.1427 19.5746 17 18.9926C17.8573 19.5746 18.8684 19.875 20 19.875V18.375C19.3102 18.375 18.6927 18.228 18.1475 17.934C18.3189 17.7237 18.4769 17.5028 18.6204 17.2725C19.0527 16.5697 19.3706 15.8026 19.5623 15H20.375V13.5H17.75V12.375H16.25V13.5H13.625V15H14.4377C14.6294 15.8026 14.9473 16.5697 15.3796 17.2725ZM18.0092 15C17.854 15.5191 17.6319 16.0158 17.3483 16.4775C17.2424 16.6478 17.1261 16.8113 17 16.9672C16.8832 16.8228 16.7747 16.6717 16.6752 16.5149C16.3801 16.0429 16.1498 15.5334 15.9906 15H18.0092Z" fill="#A4A5A6"/>
</svg>
