<svg width="24" height="25" viewBox="0 0 24 25" fill="none" xmlns="http://www.w3.org/2000/svg">
<path d="M15 1.625H0.75V15.875H9V23.75H23.25V9.5H15V1.625ZM6.9518 5L4.59811 11.7172H6.1875L6.57028 10.625H9V14.375H2.25V3.125H13.5V9.5H10.3749L8.79844 5H6.9518ZM8.65416 9.125H7.09584L7.875 6.90134L8.65416 9.125ZM21.75 11V22.25H10.5V11H21.75Z" fill="black"/>
<path d="M14.8796 17.7725C15.0231 18.0029 15.1811 18.224 15.3525 18.4344C14.8088 18.7276 14.1913 18.8745 13.5 18.875V20.375C14.6316 20.375 15.6427 20.0746 16.5 19.4926C17.3573 20.0746 18.3684 20.375 19.5 20.375V18.875C18.8102 18.875 18.1927 18.728 17.6475 18.434C17.8189 18.2237 17.9769 18.0028 18.1204 17.7725C18.5527 17.0697 18.8706 16.3026 19.0623 15.5H19.875V14H17.25V12.875H15.75V14H13.125V15.5H13.9377C14.1294 16.3026 14.4473 17.0697 14.8796 17.7725ZM17.5092 15.5C17.354 16.0191 17.1319 16.5158 16.8483 16.9775C16.7424 17.1478 16.6261 17.3113 16.5 17.4672C16.3832 17.3228 16.2747 17.1717 16.1752 17.0149C15.8801 16.5429 15.6498 16.0334 15.4906 15.5H17.5092Z" fill="black"/>
</svg>
