<svg width="24" height="25" viewBox="0 0 24 25" fill="none" xmlns="http://www.w3.org/2000/svg">
<g clip-path="url(#clip0_464_5479)">
<path d="M10.3594 18.2637C10.4766 18.7871 10.6406 19.2871 10.8516 19.7637H1.5C1.28906 19.7637 1.09375 19.7246 0.914062 19.6465C0.734375 19.5684 0.578125 19.4629 0.445312 19.3301C0.3125 19.1973 0.203125 19.0371 0.117188 18.8496C0.03125 18.6621 -0.0078125 18.4668 1.16415e-10 18.2637C1.16415e-10 18.1387 0.0117187 18.0059 0.0351562 17.8652C0.0585938 17.7246 0.0898438 17.5762 0.128906 17.4199C0.167969 17.2637 0.222656 17.127 0.292969 17.0098C0.363281 16.8926 0.445312 16.7793 0.539062 16.6699L3 14.1973V3.26367H21V10.4238C20.7656 10.291 20.5234 10.1816 20.2734 10.0957C20.0234 10.0098 19.7656 9.93555 19.5 9.87305V4.76367H4.5V13.7637H10.125V15.2637H4.06641L1.65234 17.666C1.62891 17.6895 1.60938 17.7285 1.59375 17.7832C1.57812 17.8379 1.5625 17.8926 1.54688 17.9473C1.53125 18.002 1.51953 18.0605 1.51172 18.123C1.50391 18.1855 1.5 18.2324 1.5 18.2637H0.75H10.3594ZM18 11.5723C18.4609 11.5723 18.8828 11.627 19.2656 11.7363C19.6484 11.8457 20.0391 12.0137 20.4375 12.2402C20.7656 12.4355 21.1406 12.5566 21.5625 12.6035C21.9844 12.6504 22.4062 12.6777 22.8281 12.6855H23.4258C23.6211 12.6855 23.8125 12.6816 24 12.6738V16.4824C24 17.3027 23.8516 18.0762 23.5547 18.8027C23.2578 19.5293 22.8633 20.2051 22.3711 20.8301C21.8789 21.4551 21.3125 22.0176 20.6719 22.5176C20.0312 23.0176 19.3711 23.4473 18.6914 23.8066L18 24.1699L17.2969 23.8066C16.6172 23.4551 15.9609 23.0293 15.3281 22.5293C14.6953 22.0293 14.1289 21.4629 13.6289 20.8301C13.1289 20.1973 12.7344 19.5215 12.4453 18.8027C12.1563 18.084 12.0078 17.3105 12 16.4824V12.6738H12.5859C12.7891 12.6738 13 12.6777 13.2188 12.6855C13.6328 12.6855 14.0469 12.6621 14.4609 12.6152C14.875 12.5684 15.25 12.4395 15.5859 12.2285C15.9766 12.002 16.3633 11.8379 16.7461 11.7363C17.1289 11.6348 17.5469 11.5801 18 11.5723ZM22.5 14.1738C21.9844 14.1738 21.4883 14.127 21.0117 14.0332C20.5352 13.9395 20.0742 13.7637 19.6289 13.5059C19.3633 13.3496 19.1055 13.2402 18.8555 13.1777C18.6055 13.1152 18.3203 13.0801 18 13.0723C17.7031 13.0723 17.4258 13.1035 17.168 13.166C16.9102 13.2285 16.6523 13.3379 16.3945 13.4941C15.9414 13.752 15.4766 13.9277 15 14.0215C14.5234 14.1152 14.0234 14.166 13.5 14.1738V16.4824C13.5 17.1543 13.6289 17.7871 13.8867 18.3809C14.1445 18.9746 14.4883 19.5293 14.918 20.0449C15.3477 20.5605 15.8281 21.0215 16.3594 21.4277C16.8906 21.834 17.4375 22.1855 18 22.4824C18.5469 22.1934 19.0898 21.8457 19.6289 21.4395C20.168 21.0332 20.6484 20.5723 21.0703 20.0566C21.4922 19.541 21.8359 18.9863 22.1016 18.3926C22.3672 17.7988 22.5 17.1621 22.5 16.4824V14.1738Z" fill="#FC4006"/>
</g>
<defs>
<clipPath id="clip0_464_5479">
<rect width="24" height="24" fill="white" transform="translate(0 0.263672)"/>
</clipPath>
</defs>
</svg>
