<svg width="24" height="25" viewBox="0 0 24 25" fill="none" xmlns="http://www.w3.org/2000/svg">
<path d="M2 16.2637C2 13.4357 2 12.0207 2.879 11.1427C3.757 10.2637 5.172 10.2637 8 10.2637H16C18.828 10.2637 20.243 10.2637 21.121 11.1427C22 12.0207 22 13.4357 22 16.2637C22 19.0917 22 20.5067 21.121 21.3847C20.243 22.2637 18.828 22.2637 16 22.2637H8C5.172 22.2637 3.757 22.2637 2.879 21.3847C2 20.5067 2 19.0917 2 16.2637Z" stroke="#FC4006" stroke-width="1.5"/>
<path d="M6 10.2637V8.26367C6 6.67237 6.63214 5.14625 7.75736 4.02103C8.88258 2.89581 10.4087 2.26367 12 2.26367C13.5913 2.26367 15.1174 2.89581 16.2426 4.02103C17.3679 5.14625 18 6.67237 18 8.26367V10.2637" stroke="#FC4006" stroke-width="1.5" stroke-linecap="round"/>
<path d="M8 16.2637H8.009M11.991 16.2637H12M15.991 16.2637H16" stroke="#FC4006" stroke-width="2" stroke-linecap="round" stroke-linejoin="round"/>
</svg>
