<svg width="25" height="24" viewBox="0 0 25 24" fill="none" xmlns="http://www.w3.org/2000/svg">
<path d="M8.50195 7C8.51395 4.825 8.61095 3.647 9.37895 2.879C10.258 2 11.672 2 14.5 2H15.5C18.329 2 19.743 2 20.622 2.879C21.5 3.757 21.5 5.172 21.5 8V16C21.5 18.828 21.5 20.243 20.622 21.121C19.742 22 18.329 22 15.5 22H14.5C11.672 22 10.258 22 9.37895 21.121C8.61095 20.353 8.51395 19.175 8.50195 17" stroke="#A4A5A6" stroke-width="1.5" stroke-linecap="round"/>
<path d="M8.5 19.5C6.143 19.5 4.964 19.5 4.232 18.768C3.5 18.035 3.5 16.857 3.5 14.5V9.5C3.5 7.143 3.5 5.964 4.232 5.232C4.964 4.5 6.143 4.5 8.5 4.5" stroke="#A4A5A6" stroke-width="1.5"/>
<path d="M15.5 12H6.5M6.5 12L8.5 14M6.5 12L8.5 10" stroke="#A4A5A6" stroke-width="1.5" stroke-linecap="round" stroke-linejoin="round"/>
</svg>
