<svg width="25" height="24" viewBox="0 0 25 24" fill="none" xmlns="http://www.w3.org/2000/svg">
<path d="M12.5 15.2387C12.6835 15.2387 12.8375 15.1765 12.9618 15.0521C13.0862 14.9278 13.1482 14.774 13.1477 14.5909V11.9999C13.1477 11.8164 13.0856 11.6627 12.9612 11.5387C12.8368 11.4148 12.6831 11.3526 12.5 11.3522C12.3169 11.3517 12.1632 11.4139 12.0388 11.5387C11.9144 11.6635 11.8522 11.8173 11.8522 11.9999V14.5909C11.8522 14.7745 11.9144 14.9284 12.0388 15.0528C12.1632 15.1772 12.3169 15.2391 12.5 15.2387ZM12.5 10.0567C12.6835 10.0567 12.8375 9.99449 12.9618 9.87012C13.0862 9.74575 13.1482 9.59202 13.1477 9.40892C13.1473 9.22582 13.0851 9.07209 12.9612 8.94772C12.8373 8.82335 12.6835 8.76116 12.5 8.76116C12.3165 8.76116 12.1627 8.82335 12.0388 8.94772C11.9149 9.07209 11.8527 9.22582 11.8522 9.40892C11.8518 9.59202 11.914 9.74596 12.0388 9.87076C12.1636 9.99557 12.3173 10.0575 12.5 10.0567ZM12.5 18.4775C11.6039 18.4775 10.7619 18.3073 9.97375 17.967C9.18566 17.6267 8.50012 17.1653 7.91714 16.5828C7.33416 16.0002 6.87275 15.3147 6.53289 14.5262C6.19304 13.7376 6.02289 12.8956 6.02246 11.9999C6.02203 11.1043 6.19217 10.2622 6.53289 9.47369C6.87361 8.68516 7.33502 7.99962 7.91714 7.41708C8.49925 6.83453 9.18479 6.37312 9.97375 6.03283C10.7627 5.69254 11.6048 5.5224 12.5 5.5224C13.3952 5.5224 14.2373 5.69254 15.0262 6.03283C15.8152 6.37312 16.5007 6.83453 17.0828 7.41708C17.665 7.99962 18.1266 8.68516 18.4677 9.47369C18.8089 10.2622 18.9788 11.1043 18.9775 11.9999C18.9762 12.8956 18.8061 13.7376 18.4671 14.5262C18.1281 15.3147 17.6667 16.0002 17.0828 16.5828C16.499 17.1653 15.8135 17.627 15.0262 17.9677C14.239 18.3084 13.3969 18.4783 12.5 18.4775Z" fill="#979797"/>
</svg>
