<svg width="49" height="50" viewBox="0 0 49 50" fill="none" xmlns="http://www.w3.org/2000/svg">
<rect width="48" height="48" rx="24" fill="#4F81EA"/>
<path d="M17 17.5C16.2707 17.5 15.5712 17.7897 15.0555 18.3055C14.5397 18.8212 14.25 19.5207 14.25 20.25V27.75C14.25 28.4793 14.5397 29.1788 15.0555 29.6945C15.5712 30.2103 16.2707 30.5 17 30.5H25.5C26.2293 30.5 26.9288 30.2103 27.4445 29.6945C27.9603 29.1788 28.25 28.4793 28.25 27.75V26.156L31.669 29.201C32.474 29.918 33.75 29.346 33.75 28.267V19.365C33.75 18.285 32.474 17.714 31.669 18.431L28.25 21.476V20.25C28.25 19.5207 27.9603 18.8212 27.4445 18.3055C26.9288 17.7897 26.2293 17.5 25.5 17.5H17Z" fill="white"/>
<g clip-path="url(#clip0_842_3082)">
<path d="M39 34C39.2652 34 39.5196 34.1054 39.7071 34.2929C39.8946 34.4804 40 34.7348 40 35V39.422L42.098 40.634C42.3258 40.7676 42.4915 40.9858 42.559 41.2411C42.6265 41.4964 42.5903 41.768 42.4583 41.9967C42.3262 42.2254 42.1091 42.3926 41.8543 42.4617C41.5994 42.5309 41.3276 42.4965 41.098 42.366L38.5 40.866C38.348 40.7782 38.2217 40.652 38.134 40.5C38.0462 40.348 38 40.1755 38 40V35C38 34.7348 38.1054 34.4804 38.2929 34.2929C38.4804 34.1054 38.7348 34 39 34Z" fill="white"/>
<path d="M29 40C29 41.9778 29.5865 43.9112 30.6853 45.5557C31.7841 47.2002 33.3459 48.4819 35.1732 49.2388C37.0004 49.9957 39.0111 50.1937 40.9509 49.8079C42.8907 49.422 44.6725 48.4696 46.0711 47.0711C47.4696 45.6725 48.422 43.8907 48.8079 41.9509C49.1937 40.0111 48.9957 38.0004 48.2388 36.1732C47.4819 34.3459 46.2002 32.7841 44.5557 31.6853C42.9112 30.5865 40.9778 30 39 30C37.6868 30 36.3864 30.2587 35.1732 30.7612C33.9599 31.2638 32.8575 32.0003 31.9289 32.9289C30.0536 34.8043 29 37.3478 29 40ZM38 35C38 34.7348 38.1054 34.4804 38.2929 34.2929C38.4804 34.1054 38.7348 34 39 34C39.2652 34 39.5196 34.1054 39.7071 34.2929C39.8946 34.4804 40 34.7348 40 35V39.422L42.098 40.634C42.3258 40.7676 42.4915 40.9858 42.559 41.2411C42.6265 41.4964 42.5903 41.768 42.4583 41.9967C42.3262 42.2254 42.1091 42.3926 41.8543 42.4617C41.5994 42.5309 41.3276 42.4965 41.098 42.366L38.5 40.866C38.348 40.7782 38.2217 40.652 38.134 40.5C38.0462 40.348 38 40.1755 38 40V35Z" fill="#EB9114"/>
</g>
<rect x="30" y="31" width="18" height="18" rx="9" stroke="white" stroke-width="2"/>
<defs>
<clipPath id="clip0_842_3082">
<rect x="29" y="30" width="20" height="20" rx="10" fill="white"/>
</clipPath>
</defs>
</svg>
