<svg width="50" height="48" viewBox="0 0 50 48" fill="none" xmlns="http://www.w3.org/2000/svg">
<rect width="48" height="48" rx="24" fill="#A4A5A6"/>
<path d="M17 17.5C16.2707 17.5 15.5712 17.7897 15.0555 18.3055C14.5397 18.8212 14.25 19.5207 14.25 20.25V27.75C14.25 28.4793 14.5397 29.1788 15.0555 29.6945C15.5712 30.2103 16.2707 30.5 17 30.5H25.5C26.2293 30.5 26.9288 30.2103 27.4445 29.6945C27.9603 29.1788 28.25 28.4793 28.25 27.75V26.156L31.669 29.201C32.474 29.918 33.75 29.346 33.75 28.267V19.365C33.75 18.285 32.474 17.714 31.669 18.431L28.25 21.476V20.25C28.25 19.5207 27.9603 18.8212 27.4445 18.3055C26.9288 17.7897 26.2293 17.5 25.5 17.5H17Z" fill="white"/>
<path d="M40.0003 46.3327C44.5837 46.3327 48.3337 42.5827 48.3337 37.9993C48.3337 33.416 44.5837 29.666 40.0003 29.666C35.417 29.666 31.667 33.416 31.667 37.9993C31.667 42.5827 35.417 46.3327 40.0003 46.3327Z" fill="#A4A5A6" stroke="white" stroke-width="1.5" stroke-linecap="round" stroke-linejoin="round"/>
<path d="M36.458 38.0009L38.8163 40.3592L43.5413 35.6426" stroke="white" stroke-width="1.5" stroke-linecap="round" stroke-linejoin="round"/>
</svg>
