<svg width="48" height="48" viewBox="0 0 48 48" fill="none" xmlns="http://www.w3.org/2000/svg">
<path fill-rule="evenodd" clip-rule="evenodd" d="M24 34C17.66 34 12.5 28.84 12.5 22.5V14.5C12.5 8.16 17.66 3 24 3C24.82 3 25.5 3.68 25.5 4.5C25.5 5.32 24.82 6 24 6C21.7473 6.00528 19.5883 6.90251 17.9954 8.49543C16.4025 10.0883 15.5053 12.2473 15.5 14.5V22.5C15.5053 24.7527 16.4025 26.9117 17.9954 28.5046C19.5883 30.0975 21.7473 30.9947 24 31C26.2527 30.9947 28.4117 30.0975 30.0046 28.5046C31.5975 26.9117 32.4947 24.7527 32.5 22.5C32.5 21.68 33.18 21 34 21C34.82 21 35.5 21.68 35.5 22.5C35.5 28.84 30.34 34 24 34ZM24 46C23.18 46 22.5 45.32 22.5 44.5V39.94C13.54 39.18 6.5 31.64 6.5 22.5C6.5 21.68 7.18 21 8 21C8.82 21 9.5 21.68 9.5 22.5C9.5 30.5 16 37 24 37C32 37 38.5 30.5 38.5 22.5C38.5 21.68 39.18 21 40 21C40.82 21 41.5 21.68 41.5 22.5C41.5 31.64 34.46 39.18 25.5 39.94V44.5C25.5 45.32 24.82 46 24 46ZM31.8 16.02C31.94 17.14 32.88 18 34 18C35.12 18 36.06 17.16 36.2 16.02C36.42 14.28 37.78 12.92 39.52 12.7C40.64 12.56 41.5 11.62 41.5 10.5C41.5 9.38 40.64 8.44 39.52 8.3C38.676 8.19517 37.8911 7.81167 37.2897 7.21028C36.6883 6.60889 36.3048 5.82401 36.2 4.98C36.1368 4.43888 35.8786 3.93934 35.4736 3.57488C35.0687 3.21043 34.5448 3.00605 34 3C32.88 3 31.94 3.84 31.8 4.98C31.6952 5.82401 31.3117 6.60889 30.7103 7.21028C30.1089 7.81167 29.324 8.19517 28.48 8.3C27.36 8.44 26.5 9.38 26.5 10.5C26.5 11.62 27.36 12.56 28.48 12.7C30.22 12.92 31.58 14.28 31.8 16.02ZM34 13.22C33.38 12.08 32.42 11.12 31.28 10.5C32.42 9.88 33.38 8.92 34 7.78C34.62 8.92 35.58 9.88 36.72 10.5C35.58 11.12 34.62 12.08 34 13.22Z" fill="#FC4006"/>
</svg>
