<svg width="40" height="40" viewBox="0 0 40 40" fill="none" xmlns="http://www.w3.org/2000/svg">
<path d="M5.59961 7.40117C5.59961 5.08277 7.48121 3.20117 9.79961 3.20117H20.5996C22.918 3.20117 24.7996 5.08277 24.7996 7.40117V8.70437L31.9396 15.8444C32.7196 16.6244 33.3383 17.5505 33.7604 18.5697C34.1825 19.5889 34.3997 20.6812 34.3996 21.7844V35.6012C34.3996 35.9194 34.2732 36.2247 34.0481 36.4497C33.8231 36.6747 33.5179 36.8012 33.1996 36.8012C32.8813 36.8012 32.5761 36.6747 32.3511 36.4497C32.126 36.2247 31.9996 35.9194 31.9996 35.6012V21.7844C31.9998 20.9964 31.8447 20.2161 31.5432 19.488C31.2418 18.76 30.7999 18.0984 30.2428 17.5412L24.7996 12.098V18.302L26.8492 20.3516C27.0745 20.5766 27.2013 20.8819 27.2015 21.2003C27.2017 21.5188 27.0754 21.8242 26.8504 22.0496C26.6254 22.2749 26.3201 22.4016 26.0017 22.4018C25.6832 22.4021 25.3777 22.2758 25.1524 22.0508L20.2828 17.1788L19.3324 16.3484C18.9569 16.156 18.5252 16.104 18.1148 16.2017C17.7044 16.2994 17.3423 16.5403 17.0937 16.8812C16.8452 17.222 16.7264 17.6404 16.7589 18.0611C16.7914 18.4817 16.9729 18.8769 17.2708 19.1756L20.8492 22.7516C20.961 22.863 21.0497 22.9954 21.1103 23.1412C21.1708 23.287 21.202 23.4433 21.202 23.6012V26.0012C21.202 26.6377 21.4549 27.2481 21.905 27.6982C22.355 28.1483 22.9655 28.4012 23.602 28.4012C23.9199 28.4018 24.2245 28.5285 24.449 28.7535C24.6735 28.9785 24.7996 29.2833 24.7996 29.6012V32.6012C24.7996 33.7151 24.3571 34.7834 23.5695 35.571C22.7818 36.3587 21.7135 36.8012 20.5996 36.8012H9.79961C8.6857 36.8012 7.61741 36.3587 6.82976 35.571C6.04211 34.7834 5.59961 33.7151 5.59961 32.6012V7.40117ZM22.3996 31.4012V30.65C21.7019 30.4693 21.0539 30.1338 20.5036 29.6684C19.6852 29.8296 18.9483 30.2701 18.4186 30.9144C17.8889 31.5588 17.5994 32.3671 17.5996 33.2012V34.4012H19.3996C19.6076 34.4012 19.8076 34.3812 19.9996 34.3412V33.2012C19.9996 32.8829 20.126 32.5777 20.3511 32.3526C20.5761 32.1276 20.8813 32.0012 21.1996 32.0012H22.3396C22.378 31.8092 22.398 31.6092 22.3996 31.4012ZM18.3364 23.6348L15.5764 20.8724C14.8322 20.1285 14.3963 19.131 14.3558 18.0796C14.3153 17.0281 14.6732 16.0001 15.358 15.2012H15.1996C14.4251 15.2012 13.6622 15.3887 12.9759 15.7476C12.2896 16.1064 11.7003 16.626 11.2583 17.262C10.8164 17.898 10.5349 18.6314 10.4378 19.3998C10.3408 20.1682 10.4311 20.9486 10.7011 21.6745C10.9711 22.4004 11.4127 23.0501 11.9883 23.5684C12.5638 24.0866 13.2562 24.4578 14.0064 24.6504C14.7565 24.843 15.5421 24.8512 16.2961 24.6743C17.0501 24.4975 17.7501 24.1408 18.3364 23.6348ZM12.7996 6.80117V5.60117H10.9996C10.7916 5.60117 10.5916 5.62117 10.3996 5.66117V6.80117C10.3996 7.11943 10.2732 7.42466 10.0481 7.6497C9.82309 7.87474 9.51787 8.00117 9.19961 8.00117H8.05961C8.01961 8.19317 7.99961 8.39317 7.99961 8.60117V10.4012H9.19961C10.1544 10.4012 11.0701 10.0219 11.7452 9.34676C12.4203 8.67162 12.7996 7.75595 12.7996 6.80117ZM9.19961 29.6012H7.99961V31.4012C7.99961 31.6092 8.01961 31.8092 8.05961 32.0012H9.19961C9.51787 32.0012 9.82309 32.1276 10.0481 32.3526C10.2732 32.5777 10.3996 32.8829 10.3996 33.2012V34.3412C10.5916 34.3796 10.7916 34.3996 10.9996 34.4012H12.7996V33.2012C12.7996 32.2464 12.4203 31.3307 11.7452 30.6556C11.0701 29.9805 10.1544 29.6012 9.19961 29.6012ZM19.9996 6.80117V5.66117C19.802 5.62185 19.6011 5.60175 19.3996 5.60117H17.5996V6.80117C17.5996 7.75595 17.9789 8.67162 18.654 9.34676C19.3292 10.0219 20.2448 10.4012 21.1996 10.4012H22.3996V8.60117C22.3996 8.39317 22.3796 8.19317 22.3396 8.00117H21.1996C20.8813 8.00117 20.5761 7.87474 20.3511 7.6497C20.126 7.42466 19.9996 7.11943 19.9996 6.80117Z" fill="#FC4006"/>
</svg>
