<svg width="18" height="18" viewBox="0 0 18 18" fill="none" xmlns="http://www.w3.org/2000/svg">
<g clip-path="url(#clip0_324_8435)">
<path d="M9 12C10.6569 12 12 10.6569 12 9C12 7.34315 10.6569 6 9 6C7.34315 6 6 7.34315 6 9C6 10.6569 7.34315 12 9 12Z" stroke="#FC4006" stroke-width="2" stroke-linecap="round" stroke-linejoin="round"/>
<path d="M4.725 13.275L4.2 13.8M2.25 9H3H2.25ZM9 2.25V3V2.25ZM15 9H15.75H15ZM9 15V15.75V15ZM4.2 4.2L4.725 4.725L4.2 4.2ZM13.8 4.2L13.275 4.725L13.8 4.2ZM13.275 13.275L13.8 13.8L13.275 13.275Z" stroke="#FC4006" stroke-width="2" stroke-linecap="round" stroke-linejoin="round"/>
</g>
<defs>
<clipPath id="clip0_324_8435">
<rect width="18" height="18" fill="white"/>
</clipPath>
</defs>
</svg>
