<svg width="137" height="104" viewBox="0 0 137 104" fill="none" xmlns="http://www.w3.org/2000/svg">
<path opacity="0.24" fill-rule="evenodd" clip-rule="evenodd" d="M68.6665 136C106.222 136 136.667 105.555 136.667 68C136.667 30.4446 106.222 0 68.6665 0C31.1111 0 0.666504 30.4446 0.666504 68C0.666504 105.555 31.1111 136 68.6665 136Z" fill="white"/>
<g opacity="0.56">
<path fill-rule="evenodd" clip-rule="evenodd" d="M95.7085 106.521H46.4168C42.8972 106.521 39.5217 105.123 37.0329 102.634C34.5442 100.145 33.146 96.7695 33.146 93.2499V43.7421C33.146 39.6964 37.15 37.1294 40.6725 38.3503C41.178 38.5248 41.6671 38.7801 42.1398 39.1163L42.8034 39.5902C44.4173 40.7354 46.3481 41.349 48.3271 41.3456C50.306 41.3422 52.2347 40.722 53.8447 39.5713C56.1047 37.9629 58.8096 37.0986 61.5835 37.0986C64.3574 37.0986 67.0623 37.9629 69.3223 39.5713C70.9323 40.722 72.861 41.3422 74.8399 41.3456C76.8189 41.349 78.7497 40.7354 80.3636 39.5902L81.0272 39.1163C84.7923 36.4242 90.021 39.1163 90.021 43.7421V72.3957H103.292C104.046 72.3957 104.769 72.6953 105.303 73.2286C105.836 73.7619 106.136 74.4853 106.136 75.2395V96.0936C106.136 98.8591 105.037 101.511 103.082 103.467C101.126 105.422 98.4739 106.521 95.7085 106.521ZM90.9689 78.0832V96.0936C90.9689 97.3507 91.4683 98.5562 92.3571 99.445C93.246 100.334 94.4515 100.833 95.7085 100.833C96.9655 100.833 98.171 100.334 99.0599 99.445C99.9487 98.5562 100.448 97.3507 100.448 96.0936V78.0832H90.9689ZM74.8543 61.9686C74.8543 61.2144 74.5547 60.4911 74.0214 59.9578C73.4881 59.4245 72.7648 59.1249 72.0106 59.1249H49.2606C48.5064 59.1249 47.7831 59.4245 47.2497 59.9578C46.7164 60.4911 46.4168 61.2144 46.4168 61.9686C46.4168 62.7229 46.7164 63.4462 47.2497 63.9795C47.7831 64.5128 48.5064 64.8124 49.2606 64.8124H72.0106C72.7648 64.8124 73.4881 64.5128 74.0214 63.9795C74.5547 63.4462 74.8543 62.7229 74.8543 61.9686ZM71.0627 73.3436C71.0627 72.5894 70.7631 71.8661 70.2297 71.3328C69.6964 70.7995 68.9731 70.4999 68.2189 70.4999H49.2606C48.5064 70.4999 47.7831 70.7995 47.2497 71.3328C46.7164 71.8661 46.4168 72.5894 46.4168 73.3436C46.4168 74.0979 46.7164 74.8212 47.2497 75.3545C47.7831 75.8878 48.5064 76.1874 49.2606 76.1874H68.2189C68.9731 76.1874 69.6964 75.8878 70.2297 75.3545C70.7631 74.8212 71.0627 74.0979 71.0627 73.3436ZM72.0106 81.8749C72.7648 81.8749 73.4881 82.1745 74.0214 82.7078C74.5547 83.2411 74.8543 83.9644 74.8543 84.7186C74.8543 85.4729 74.5547 86.1962 74.0214 86.7295C73.4881 87.2628 72.7648 87.5624 72.0106 87.5624H49.2606C48.5064 87.5624 47.7831 87.2628 47.2497 86.7295C46.7164 86.1962 46.4168 85.4729 46.4168 84.7186C46.4168 83.9644 46.7164 83.2411 47.2497 82.7078C47.7831 82.1745 48.5064 81.8749 49.2606 81.8749H72.0106Z" fill="white"/>
</g>
</svg>
