<svg width="140" height="95" viewBox="0 0 140 95" fill="none" xmlns="http://www.w3.org/2000/svg">
<path d="M19.4981 43.511C16.9594 43.511 15.6006 44.381 14.6471 45.3286L14.3879 45.6027V36.8096H12.1948V51.0139C12.1948 55.2958 15.4934 57.9656 19.2776 57.9656C23.4462 57.9656 26.6047 54.7564 26.6047 50.6325C26.6047 46.8036 23.3122 43.511 19.4981 43.511ZM19.2776 55.9334C16.5154 55.9334 14.1763 53.7552 14.1763 50.8381C14.1763 47.918 16.1459 45.5223 19.3253 45.5223C22.5047 45.5223 24.3759 48.0938 24.3759 50.7845C24.3789 53.7135 22.3974 55.9334 19.2776 55.9334Z" fill="#599D15"/>
<path d="M39.9416 45.9152H39.9118C38.9792 44.8157 37.543 43.5195 35.0877 43.5195C31.0531 43.5195 28.0049 46.535 28.0049 50.7126C28.0049 55.1136 31.2796 57.9652 34.9446 57.9652C37.2301 57.9652 38.8958 56.8657 39.882 55.6798H39.9387V57.4855H42.1675V43.9695H39.9387V45.9152H39.9416ZM35.1175 55.936C31.8219 55.936 30.2307 53.2811 30.2307 50.7126C30.2307 48.1441 31.8219 45.5189 35.1741 45.5189C37.7992 45.5189 39.9476 47.6137 39.9476 50.796C39.9476 53.8115 37.6294 55.936 35.1175 55.936Z" fill="#599D15"/>
<path d="M59.6527 43.5195C57.3107 43.5195 55.6748 44.9587 54.9984 46.3115C54.4323 44.7323 52.713 43.5195 50.5974 43.5195C48.8483 43.5195 47.4657 44.4522 46.5628 45.6619H46.5062V43.9695H44.2744V57.4855H46.5062V49.9796C46.5062 47.1578 47.9454 45.5219 50.2011 45.5219C52.2034 45.5219 53.4162 47.2144 53.4162 49.4432V57.4855H55.6748V49.9796C55.6748 46.8747 57.4537 45.5219 59.3429 45.5219C61.6283 45.5219 62.5878 47.3544 62.5878 49.4432V57.4855H64.8166V49.6131C64.8166 45.6351 62.701 43.5195 59.6527 43.5195Z" fill="#599D15"/>
<path d="M89.6047 43.5195C85.5403 43.5195 82.3818 46.535 82.3818 50.7126C82.3818 54.8037 85.5135 57.9652 89.6047 57.9652C93.7793 57.9652 96.8275 54.6935 96.8275 50.7126C96.8275 46.6214 93.8091 43.5195 89.6047 43.5195ZM89.6047 55.933C87.0093 55.933 84.6941 53.7608 84.6941 50.7126C84.6941 47.7209 86.7263 45.5219 89.6047 45.5219C92.5665 45.5219 94.5123 47.864 94.5123 50.7126C94.5153 53.6744 92.4533 55.933 89.6047 55.933Z" fill="#599D15"/>
<path d="M73.8746 43.5108C71.3359 43.5108 69.9771 44.3809 69.0236 45.3284L68.7644 45.6025V37.8672H66.5713V51.0137C66.5713 55.2956 69.8698 57.9654 73.6541 57.9654C77.8227 57.9654 80.9812 54.7562 80.9812 50.6323C80.9782 46.8034 77.6856 43.5108 73.8746 43.5108ZM73.6541 55.9332C70.8919 55.9332 68.5528 53.7551 68.5528 50.8379C68.5528 47.9178 70.5224 45.5221 73.7018 45.5221C76.8811 45.5221 78.7524 48.0936 78.7524 50.7843C78.7554 53.7133 76.7738 55.9332 73.6541 55.9332Z" fill="#599D15"/>
<path d="M123.088 49.7385H115.901V43.9697H114.256V57.4857H115.901V51.2432H123.088V57.4857H124.733V43.9697H123.088V49.7385Z" fill="#599D15"/>
<path d="M135.671 47.9328C135.671 46.0704 134.461 43.9697 131.094 43.9697H127.188V57.4857H128.833V51.8392H130.638L134.718 57.4857H136.801L132.54 51.6783C134.244 51.3416 135.671 49.8547 135.671 47.9328ZM128.833 50.3314V45.4775H131.27C133.016 45.4775 133.967 46.3505 133.967 47.9357C133.967 49.2438 133.076 50.3344 131.288 50.3344H128.833V50.3314Z" fill="#599D15"/>
<path d="M139.732 44.4671C139.649 44.2764 139.536 44.1095 139.39 43.9695C139.247 43.8294 139.08 43.7192 138.889 43.6387C138.698 43.5583 138.493 43.5195 138.278 43.5195C138.061 43.5195 137.858 43.5583 137.664 43.6387C137.471 43.7192 137.304 43.8294 137.158 43.9695C137.012 44.1095 136.899 44.2764 136.815 44.4671C136.732 44.6578 136.69 44.8664 136.69 45.0869C136.69 45.3133 136.732 45.5249 136.815 45.7186C136.899 45.9122 137.015 46.0791 137.158 46.2192C137.304 46.3622 137.471 46.4724 137.664 46.5499C137.858 46.6274 138.061 46.6691 138.278 46.6691C138.496 46.6691 138.698 46.6304 138.889 46.5499C139.08 46.4724 139.247 46.3622 139.39 46.2192C139.533 46.0761 139.646 45.9093 139.732 45.7186C139.816 45.5249 139.857 45.3163 139.857 45.0869C139.86 44.8664 139.819 44.6608 139.732 44.4671ZM139.473 45.6262C139.407 45.7901 139.315 45.9331 139.199 46.0553C139.083 46.1745 138.946 46.2698 138.788 46.3413C138.63 46.4099 138.46 46.4456 138.278 46.4456C138.093 46.4456 137.921 46.4099 137.763 46.3413C137.605 46.2728 137.465 46.1774 137.348 46.0553C137.232 45.9331 137.14 45.7931 137.074 45.6262C137.009 45.4623 136.976 45.2835 136.976 45.0898C136.976 44.9021 137.009 44.7263 137.074 44.5624C137.14 44.3985 137.232 44.2585 137.348 44.1393C137.465 44.0201 137.602 43.9248 137.763 43.8562C137.921 43.7877 138.093 43.7519 138.278 43.7519C138.46 43.7519 138.63 43.7847 138.788 43.8562C138.946 43.9248 139.083 44.0201 139.199 44.1393C139.315 44.2585 139.407 44.4015 139.473 44.5624C139.539 44.7263 139.571 44.9021 139.571 45.0898C139.574 45.2835 139.542 45.4623 139.473 45.6262Z" fill="#599D15"/>
<path d="M138.88 45.0657C138.973 44.9883 139.02 44.8661 139.02 44.7022C139.02 44.5264 138.967 44.3923 138.862 44.3059C138.758 44.2195 138.594 44.1748 138.377 44.1748H137.665V46.0193H137.951V45.2266H138.255L138.755 46.0193H139.062L138.535 45.2058C138.675 45.1879 138.788 45.1432 138.88 45.0657ZM138.249 44.9912H137.948V44.4042H138.326C138.374 44.4042 138.421 44.4072 138.472 44.4162C138.523 44.4221 138.564 44.437 138.603 44.4549C138.642 44.4758 138.672 44.5026 138.696 44.5383C138.719 44.5741 138.731 44.6247 138.731 44.6843C138.731 44.7588 138.719 44.8154 138.693 44.8542C138.666 44.8959 138.63 44.9257 138.585 44.9436C138.541 44.9644 138.49 44.9763 138.43 44.9793C138.374 44.9883 138.314 44.9912 138.249 44.9912Z" fill="#599D15"/>
<path d="M105.454 43.5195C101.389 43.5195 98.231 46.535 98.231 50.7126C98.231 54.8037 101.363 57.9652 105.454 57.9652C109.628 57.9652 112.677 54.6935 112.677 50.7126C112.677 46.6214 109.658 43.5195 105.454 43.5195ZM105.454 55.933C102.858 55.933 100.543 53.7608 100.543 50.7126C100.543 47.7209 102.575 45.5219 105.454 45.5219C108.416 45.5219 110.361 47.864 110.361 50.7126C110.364 53.6744 108.302 55.933 105.454 55.933Z" fill="#599D15"/>
<path d="M5.23693 36.8096C5.21905 36.8037 5.21011 36.8245 5.22203 36.8394C7.47172 39.3782 9.10163 42.4502 9.91807 44.4198C8.88709 43.3144 7.90378 42.1642 6.80128 41.3984C4.56649 39.84 2.20656 39.0683 0.0194411 38.7763C0.00156274 38.7733 -0.00737669 38.7971 0.00752191 38.809C5.36506 43.1058 4.11655 45.3525 11.11 46.2405C11.1219 46.2434 11.1338 46.2285 11.1278 46.2166C10.0939 43.0313 9.75716 40.6684 8.00211 38.7912C7.44788 38.2012 5.82096 37.0123 5.23693 36.8096Z" fill="#599D15"/>
</svg>
