<svg width="136" height="104" viewBox="0 0 136 104" fill="none" xmlns="http://www.w3.org/2000/svg">
<path opacity="0.1" fill-rule="evenodd" clip-rule="evenodd" d="M68 136C105.555 136 136 105.555 136 68C136 30.4446 105.555 0 68 0C30.4446 0 0 30.4446 0 68C0 105.555 30.4446 136 68 136Z" fill="white"/>
<g opacity="0.56">
<path fill-rule="evenodd" clip-rule="evenodd" d="M52.0404 31.7795C52.3064 31.4393 52.6465 31.1641 53.0348 30.9749C53.4231 30.7857 53.8493 30.6874 54.2812 30.6875H82.7188C83.1507 30.6876 83.577 30.7861 83.9652 30.9756C84.3534 31.165 84.6933 31.4404 84.9592 31.7809C85.2251 32.1213 85.4099 32.5178 85.4996 32.9404C85.5894 33.3629 85.5817 33.8003 85.4772 34.2194L84.9369 36.375H94.0938C94.848 36.375 95.5713 36.6746 96.1046 37.2079C96.6379 37.7412 96.9375 38.4645 96.9375 39.2188V107.469C96.9375 108.223 96.6379 108.946 96.1046 109.48C95.5713 110.013 94.848 110.312 94.0938 110.312H42.9062C42.152 110.312 41.4287 110.013 40.8954 109.48C40.3621 108.946 40.0625 108.223 40.0625 107.469V39.2188C40.0625 38.4645 40.3621 37.7412 40.8954 37.2079C41.4287 36.6746 42.152 36.375 42.9062 36.375H52.0631L51.5228 34.2194C51.4172 33.8006 51.4084 33.3632 51.4971 32.9404C51.5858 32.5176 51.7753 32.1206 52.0404 31.7795ZM79.0787 36.375H57.9212L59.3431 42.0625H77.6569L79.0787 36.375ZM85.5625 93.25H51.4375V87.5625H85.5625V93.25ZM57.125 81.875L65.6562 79.0312L82.7188 61.9688L77.0312 56.2812L59.9688 73.3438L57.125 81.875Z" fill="white"/>
</g>
</svg>
