<svg width="24" height="24" viewBox="0 0 24 24" fill="none" xmlns="http://www.w3.org/2000/svg">
<path d="M12.0008 2C12.7706 1.99939 13.5352 2.12576 14.2638 2.374C13.5733 3.08786 13.1384 4.01009 13.0268 4.99696C12.9152 5.98384 13.1332 6.97991 13.6468 7.82993C14.1605 8.67996 14.9409 9.33618 15.8665 9.69633C16.792 10.0565 17.8107 10.1003 18.7638 9.821L19.0008 9.743V12.527C19.001 12.643 19.0213 12.758 19.0608 12.867L19.1068 12.974L20.8228 16.407C20.9023 16.566 20.9421 16.7419 20.9388 16.9196C20.9355 17.0974 20.8891 17.2717 20.8037 17.4276C20.7183 17.5835 20.5963 17.7164 20.4483 17.8148C20.3003 17.9133 20.1306 17.9744 19.9538 17.993L19.8388 17.999H4.16283C3.98499 17.9991 3.80979 17.956 3.65225 17.8735C3.4947 17.791 3.3595 17.6715 3.25824 17.5254C3.15698 17.3792 3.09267 17.2106 3.07083 17.0341C3.04899 16.8576 3.07026 16.6785 3.13283 16.512L3.17883 16.407L4.89583 12.974C4.94743 12.8702 4.98059 12.7582 4.99383 12.643L5.00083 12.528V9C5.00083 7.14349 5.73832 5.36301 7.05108 4.05025C8.36383 2.7375 10.1443 2 12.0008 2ZM17.5008 3C18.1639 3 18.7998 3.26339 19.2686 3.73224C19.7374 4.20108 20.0008 4.83696 20.0008 5.5C20.0008 6.16304 19.7374 6.79893 19.2686 7.26777C18.7998 7.73661 18.1639 8 17.5008 8C16.8378 8 16.2019 7.73661 15.7331 7.26777C15.2642 6.79893 15.0008 6.16304 15.0008 5.5C15.0008 4.83696 15.2642 4.20108 15.7331 3.73224C16.2019 3.26339 16.8378 3 17.5008 3ZM12.0008 21C11.3802 21.0003 10.7747 20.8081 10.2678 20.4499C9.76099 20.0917 9.37771 19.5852 9.17083 19H14.8308C14.6239 19.5852 14.2407 20.0917 13.7338 20.4499C13.227 20.8081 12.6215 21.0003 12.0008 21Z" fill="black"/>
<circle cx="17.5" cy="5.5" r="2.5" fill="#FC4006"/>
</svg>
