<svg width="25" height="25" viewBox="0 0 25 25" fill="none" xmlns="http://www.w3.org/2000/svg">
<g clip-path="url(#clip0_1245_14031)">
<path fill-rule="evenodd" clip-rule="evenodd" d="M0.706543 3.05104L14.5412 0.378784L14.4932 24.3708L0.706543 21.5098V3.05104ZM5.61197 15.5101C4.56571 14.2855 4.27412 12.3611 4.77496 10.7625C5.47132 8.53963 7.23796 7.78838 8.71645 8.30293C9.56032 8.59794 10.3116 9.30803 10.7129 10.3955C10.905 10.9169 11.0079 11.5138 11.0148 12.1209C11.0285 13.2118 10.6512 14.4947 9.90336 15.3901C8.75418 16.7622 6.80573 16.9029 5.6154 15.5101H5.61197ZM6.6891 14.3472C6.17455 13.5823 6.0339 12.3816 6.27746 11.3834C6.61706 9.99753 7.48495 9.52757 8.20875 9.85003C8.62383 10.0353 8.99088 10.4778 9.18641 11.157C9.27903 11.4829 9.33048 11.8534 9.33391 12.2341C9.34078 12.9133 9.15554 13.7161 8.78849 14.2752C8.22591 15.1328 7.27226 15.2186 6.6891 14.3507V14.3472ZM15.4434 5.43514H23.4739C23.9233 5.43514 24.2903 5.80219 24.2903 6.25157V6.54658L17.9784 10.8037C17.8961 10.8586 17.6937 11.0164 17.5256 11.1227C17.2786 11.2839 17.2615 11.253 17.0008 11.1055C16.5994 10.8826 15.9065 10.4092 15.44 10.0867V5.43514H15.4434ZM24.2937 8.43672V17.0264C24.2937 17.7124 23.7312 18.2784 23.0417 18.2784H15.4434V11.9254C15.8996 12.2273 16.5068 12.6252 16.8807 12.855C17.1826 13.0403 17.2375 13.126 17.5737 12.9305C17.728 12.8413 17.879 12.7247 17.9819 12.6561L24.2937 8.44015V8.43672Z" fill="#FC4006"/>
</g>
<defs>
<clipPath id="clip0_1245_14031">
<rect width="23.5872" height="24" fill="white" transform="translate(0.706543 0.374756)"/>
</clipPath>
</defs>
</svg>
