<svg width="21" height="20" viewBox="0 0 21 20" fill="none" xmlns="http://www.w3.org/2000/svg">
<g clip-path="url(#clip0_521_2117)">
<path d="M16.4353 1.55673C15.5126 0.504943 13.8445 0.0540161 11.7105 0.0540161H5.51712C5.30598 0.0539835 5.10175 0.129295 4.94117 0.266404C4.7806 0.403512 4.67422 0.593419 4.64116 0.801963L2.06236 17.1574C2.0111 17.4799 2.26083 17.772 2.58772 17.772H6.4113L7.37156 11.6812L7.34176 11.8719C7.41017 11.4414 7.77838 11.1238 8.21441 11.1238H10.0314C13.6008 11.1238 16.3957 9.67402 17.2121 5.48004C17.2363 5.356 17.2573 5.23527 17.2755 5.11733C17.1724 5.06276 17.1724 5.06276 17.2755 5.11733C17.5186 3.56719 17.2738 2.51203 16.4353 1.55673Z" fill="#27346A"/>
<path d="M8.83461 4.55892C8.93911 4.50906 9.05346 4.48327 9.16924 4.48342H14.0247C14.5997 4.48342 15.136 4.52084 15.6261 4.59971C15.7632 4.62159 15.8996 4.6477 16.0351 4.67799C16.2272 4.72038 16.4171 4.77225 16.604 4.83342C16.8449 4.91388 17.0693 5.00759 17.2755 5.11733C17.5186 3.5666 17.2738 2.51203 16.4353 1.55673C15.512 0.504943 13.8445 0.0540161 11.7105 0.0540161H5.51659C5.0805 0.0540161 4.70951 0.3715 4.64116 0.801963L2.06236 17.1568C2.0111 17.4798 2.26083 17.7715 2.58719 17.7715H6.4113L8.40355 5.13772C8.42315 5.01355 8.47263 4.896 8.54771 4.79517C8.6228 4.69435 8.72126 4.61327 8.83461 4.55892Z" fill="#27346A"/>
<path d="M17.2113 5.47972C16.3949 9.6731 13.6001 11.1235 10.0306 11.1235H8.21312C7.7771 11.1235 7.40882 11.441 7.34107 11.8716L6.14643 19.4448C6.1018 19.727 6.32008 19.9828 6.60564 19.9828H9.82882C10.0135 19.9827 10.192 19.9168 10.3324 19.7969C10.4728 19.6769 10.5657 19.5108 10.5946 19.3285L10.626 19.1642L11.2335 15.3142L11.2726 15.1014C11.3014 14.919 11.3944 14.7529 11.5348 14.633C11.6751 14.5131 11.8537 14.4471 12.0383 14.4471H12.5207C15.643 14.4471 18.0878 13.1786 18.8023 9.50998C19.1005 7.97687 18.9462 6.69687 18.1573 5.7978C17.918 5.52548 17.6209 5.30058 17.2747 5.117C17.256 5.23555 17.2356 5.35568 17.2113 5.47972Z" fill="#2790C3"/>
<path d="M16.4205 4.77653C16.2932 4.73936 16.1647 4.70645 16.0352 4.67785C15.8997 4.64804 15.7632 4.62212 15.6262 4.6001C15.1356 4.5207 14.5997 4.48322 14.0242 4.48322H9.16928C9.05342 4.48302 8.93902 4.50904 8.83464 4.55931C8.72114 4.61347 8.62256 4.69449 8.54744 4.79535C8.47231 4.89621 8.42291 5.01386 8.40352 5.13812L7.3716 11.681L7.3418 11.8718C7.40968 11.4412 7.77789 11.1237 8.21398 11.1237H10.0315C13.6009 11.1237 16.3957 9.67388 17.2121 5.47991C17.2364 5.35587 17.2568 5.23567 17.2756 5.11719C17.0689 5.00814 16.845 4.91368 16.604 4.83381C16.5432 4.81365 16.4821 4.79455 16.4206 4.77653" fill="#1F264F"/>
</g>
<defs>
<clipPath id="clip0_521_2117">
<rect width="20" height="20" fill="white" transform="translate(0.5 -0.000183105)"/>
</clipPath>
</defs>
</svg>
