<svg width="137" height="104" viewBox="0 0 137 104" fill="none" xmlns="http://www.w3.org/2000/svg">
<path opacity="0.1" fill-rule="evenodd" clip-rule="evenodd" d="M68.3335 136C105.889 136 136.333 105.555 136.333 68C136.333 30.4446 105.889 0 68.3335 0C30.7781 0 0.333496 30.4446 0.333496 68C0.333496 105.555 30.7781 136 68.3335 136Z" fill="white"/>
<g opacity="0.62" clip-path="url(#clip0_3113_6231)">
<path d="M93.1577 28.408V43.0171H107.766L93.1577 28.408Z" fill="white"/>
<path d="M90.7554 47.8203C89.4286 47.8203 88.353 46.7447 88.353 45.418V27H53.9194C49.9455 27 46.7124 30.2331 46.7124 34.207V61.0635C47.5039 60.9917 48.3048 60.9531 49.1147 60.9531C57.3032 60.9531 64.6334 64.6969 69.4844 70.5625H95.5601C96.8868 70.5625 97.9624 71.6381 97.9624 72.9648C97.9624 74.2916 96.8868 75.3672 95.5601 75.3672H72.6494C74.1843 78.3622 75.1284 81.6247 75.4302 84.9766H95.5601C96.8868 84.9766 97.9624 86.0522 97.9624 87.3789C97.9624 88.7056 96.8868 89.7812 95.5601 89.7812H75.4302C74.7117 97.7152 70.4727 104.648 64.2908 109H101.966C105.94 109 109.173 105.767 109.173 101.793V47.8203H90.7554ZM95.5601 60.9531H60.3257C58.9989 60.9531 57.9233 59.8775 57.9233 58.5508C57.9233 57.224 58.9989 56.1484 60.3257 56.1484H95.5601C96.8868 56.1484 97.9624 57.224 97.9624 58.5508C97.9624 59.8775 96.8868 60.9531 95.5601 60.9531Z" fill="white"/>
<path d="M49.1147 65.7578C37.1929 65.7578 27.4937 75.457 27.4937 87.3789C27.4937 99.3008 37.1929 109 49.1147 109C61.0366 109 70.7358 99.3008 70.7358 87.3789C70.7358 75.457 61.0366 65.7578 49.1147 65.7578ZM55.521 89.7812H49.1147C47.788 89.7812 46.7124 88.7056 46.7124 87.3789V77.7695C46.7124 76.4428 47.788 75.3672 49.1147 75.3672C50.4415 75.3672 51.5171 76.4428 51.5171 77.7695V84.9766H55.521C56.8477 84.9766 57.9233 86.0522 57.9233 87.3789C57.9233 88.7056 56.8477 89.7812 55.521 89.7812Z" fill="white"/>
</g>
<defs>
<clipPath id="clip0_3113_6231">
<rect width="82" height="82" fill="white" transform="translate(27.3335 27)"/>
</clipPath>
</defs>
</svg>
