<svg width="24" height="25" viewBox="0 0 24 25" fill="none" xmlns="http://www.w3.org/2000/svg">
<path d="M16.125 7.01367C16.125 5.91965 15.6904 4.87044 14.9168 4.09686C14.1432 3.32327 13.094 2.88867 12 2.88867C10.906 2.88867 9.85677 3.32327 9.08318 4.09686C8.3096 4.87044 7.875 5.91965 7.875 7.01367C7.875 8.10769 8.3096 9.1569 9.08318 9.93049C9.85677 10.7041 10.906 11.1387 12 11.1387C13.094 11.1387 14.1432 10.7041 14.9168 9.93049C15.6904 9.1569 16.125 8.10769 16.125 7.01367ZM9.375 7.01367C9.375 6.31748 9.65156 5.6498 10.1438 5.15752C10.6361 4.66523 11.3038 4.38867 12 4.38867C12.6962 4.38867 13.3639 4.66523 13.8562 5.15752C14.3484 5.6498 14.625 6.31748 14.625 7.01367C14.625 7.70987 14.3484 8.37754 13.8562 8.86983C13.3639 9.36211 12.6962 9.63867 12 9.63867C11.3038 9.63867 10.6361 9.36211 10.1438 8.86983C9.65156 8.37754 9.375 7.70987 9.375 7.01367ZM10.5765 20.0247L12.195 21.6372L12 21.6387C7.29 21.6387 4.5 18.5952 4.5 15.6387V14.8887C4.5 14.2919 4.73705 13.7196 5.15901 13.2977C5.58097 12.8757 6.15326 12.6387 6.75 12.6387H13.02C12.895 12.7217 12.777 12.8182 12.666 12.9282L11.451 14.1387H6.75C6.55109 14.1387 6.36032 14.2177 6.21967 14.3583C6.07902 14.499 6 14.6898 6 14.8887V15.6387C6 17.5137 7.623 19.5282 10.5765 20.0247ZM10.7205 18.0492C10.6507 17.9795 10.5952 17.8967 10.5574 17.8056C10.5196 17.7145 10.5002 17.6168 10.5002 17.5182C10.5002 17.4195 10.5196 17.3218 10.5574 17.2307C10.5952 17.1396 10.6507 17.0568 10.7205 16.9872L13.725 13.9902C13.7943 13.9186 13.8771 13.8616 13.9687 13.8225C14.0602 13.7833 14.1587 13.7627 14.2583 13.762C14.3578 13.7613 14.4566 13.7804 14.5487 13.8183C14.6408 13.8561 14.7245 13.9119 14.7948 13.9824C14.8651 14.0529 14.9207 14.1368 14.9582 14.229C14.9958 14.3212 15.0147 14.42 15.0137 14.5196C15.0127 14.6191 14.9918 14.7175 14.9524 14.809C14.913 14.9004 14.8557 14.9831 14.784 15.0522L13.065 16.7667H19.9365L18.219 15.0507C18.1474 14.9815 18.0902 14.8987 18.0509 14.8072C18.0116 14.7157 17.9909 14.6173 17.9901 14.5177C17.9892 14.4181 18.0082 14.3194 18.0459 14.2272C18.0836 14.135 18.1393 14.0513 18.2097 13.9809C18.2801 13.9105 18.3639 13.8548 18.456 13.8171C18.5482 13.7793 18.647 13.7604 18.7466 13.7612C18.8461 13.7621 18.9446 13.7828 19.0361 13.8221C19.1276 13.8614 19.2103 13.9185 19.2795 13.9902L22.2795 16.9887C22.4201 17.1293 22.4991 17.32 22.4991 17.5189C22.4991 17.7178 22.4201 17.9085 22.2795 18.0492L19.2795 21.0447C19.2102 21.1162 19.1274 21.1732 19.0358 21.2124C18.9443 21.2516 18.8458 21.2721 18.7462 21.2728C18.6467 21.2735 18.5479 21.2544 18.4558 21.2166C18.3637 21.1787 18.28 21.1229 18.2097 21.0524C18.1394 20.9819 18.0838 20.8981 18.0463 20.8059C18.0087 20.7136 17.9898 20.6149 17.9908 20.5153C17.9918 20.4157 18.0127 20.3173 18.0521 20.2259C18.0915 20.1344 18.1488 20.0518 18.2205 19.9827L19.9395 18.2667H13.0635L14.784 19.9827C14.9208 20.1239 14.9967 20.3133 14.9953 20.5099C14.9939 20.7066 14.9152 20.8948 14.7764 21.0341C14.6375 21.1733 14.4495 21.2525 14.2529 21.2545C14.0562 21.2564 13.8666 21.1811 13.725 21.0447L10.7205 18.0492Z" fill="#FC4006"/>
</svg>
