<svg width="24" height="25" viewBox="0 0 24 25" fill="none" xmlns="http://www.w3.org/2000/svg">
<path d="M19.23 15.5244L16.69 15.2344C16.3914 15.1993 16.0886 15.2324 15.8046 15.3311C15.5206 15.4299 15.2626 15.5917 15.05 15.8044L13.21 17.6444C10.3714 16.2004 8.0641 13.893 6.62004 11.0544L8.47004 9.20442C8.90004 8.77442 9.11004 8.17442 9.04004 7.56442L8.75004 5.04442C8.69356 4.55651 8.45951 4.10644 8.0925 3.78001C7.7255 3.45358 7.25121 3.27361 6.76004 3.27442H5.03004C3.90004 3.27442 2.96004 4.21442 3.03004 5.34442C3.56004 13.8844 10.39 20.7044 18.92 21.2344C20.05 21.3044 20.99 20.3644 20.99 19.2344V17.5044C21 16.4944 20.24 15.6444 19.23 15.5244Z" fill="black"/>
</svg>
