<svg width="21" height="20" viewBox="0 0 21 20" fill="none" xmlns="http://www.w3.org/2000/svg">
<path fill-rule="evenodd" clip-rule="evenodd" d="M8.78632 2.70834H12.213C13.7447 2.70834 14.958 2.70834 15.9072 2.83584C16.8838 2.96751 17.6747 3.24418 18.2988 3.86751C18.9222 4.49168 19.1988 5.28251 19.3305 6.25918C19.4055 6.82001 19.4363 7.47251 19.4488 8.22834C19.4592 8.29174 19.4603 8.35629 19.4522 8.42001C19.4572 8.89112 19.4591 9.40223 19.458 9.95334V10.0467C19.458 11.5783 19.458 12.7917 19.3305 13.7408C19.1988 14.7175 18.9222 15.5083 18.2988 16.1325C17.6747 16.7558 16.8838 17.0325 15.9072 17.1642C14.9572 17.2917 13.7447 17.2917 12.213 17.2917H8.78632C7.25465 17.2917 6.04132 17.2917 5.09215 17.1642C4.11549 17.0325 3.32465 16.7558 2.70049 16.1325C2.07715 15.5083 1.80049 14.7175 1.66882 13.7408C1.54132 12.7908 1.54132 11.5783 1.54132 10.0467V9.95334C1.54021 9.40223 1.54215 8.89112 1.54715 8.42001C1.53875 8.35633 1.53959 8.29178 1.54965 8.22834C1.56299 7.47251 1.59382 6.82001 1.66882 6.25918C1.80049 5.28251 2.07715 4.49168 2.70049 3.86751C3.32465 3.24418 4.11549 2.96751 5.09215 2.83584C6.04215 2.70834 7.25465 2.70834 8.78632 2.70834ZM2.79299 8.95834C2.79187 9.28168 2.79132 9.6289 2.79132 10C2.79132 11.5892 2.79299 12.7183 2.90799 13.575C3.02049 14.4125 3.23215 14.8958 3.58465 15.2483C3.93715 15.6008 4.42049 15.8125 5.25882 15.925C6.11549 16.04 7.24382 16.0417 8.83299 16.0417H12.1663C13.7555 16.0417 14.8847 16.04 15.7413 15.925C16.5788 15.8125 17.0622 15.6008 17.4147 15.2483C17.7672 14.8958 17.9788 14.4125 18.0913 13.5742C18.2063 12.7175 18.208 11.5892 18.208 10C18.208 9.6289 18.2074 9.28168 18.2063 8.95834H2.79299ZM18.1863 7.70834H2.81299C2.82965 7.21918 2.85799 6.79668 2.90799 6.42501C3.02049 5.58751 3.23215 5.10418 3.58465 4.75168C3.93715 4.39918 4.42049 4.18751 5.25882 4.07501C6.11549 3.96001 7.24382 3.95834 8.83299 3.95834H12.1663C13.7555 3.95834 14.8847 3.96001 15.7413 4.07501C16.5788 4.18751 17.0622 4.39918 17.4147 4.75168C17.7672 5.10418 17.9788 5.58751 18.0913 6.42584C18.1413 6.79668 18.1697 7.21918 18.1863 7.70834ZM4.87465 13.3333C4.87465 13.1676 4.9405 13.0086 5.05771 12.8914C5.17492 12.7742 5.33389 12.7083 5.49965 12.7083H8.83299C8.99875 12.7083 9.15772 12.7742 9.27493 12.8914C9.39214 13.0086 9.45799 13.1676 9.45799 13.3333C9.45799 13.4991 9.39214 13.6581 9.27493 13.7753C9.15772 13.8925 8.99875 13.9583 8.83299 13.9583H5.49965C5.33389 13.9583 5.17492 13.8925 5.05771 13.7753C4.9405 13.6581 4.87465 13.4991 4.87465 13.3333ZM10.2913 13.3333C10.2913 13.1676 10.3572 13.0086 10.4744 12.8914C10.5916 12.7742 10.7506 12.7083 10.9163 12.7083H12.1663C12.3321 12.7083 12.491 12.7742 12.6083 12.8914C12.7255 13.0086 12.7913 13.1676 12.7913 13.3333C12.7913 13.4991 12.7255 13.6581 12.6083 13.7753C12.491 13.8925 12.3321 13.9583 12.1663 13.9583H10.9163C10.7506 13.9583 10.5916 13.8925 10.4744 13.7753C10.3572 13.6581 10.2913 13.4991 10.2913 13.3333Z" fill="#FC4006"/>
</svg>
