<svg width="24" height="25" viewBox="0 0 24 25" fill="none" xmlns="http://www.w3.org/2000/svg">
<g clip-path="url(#clip0_464_5483)">
<path d="M20 12.2637V6.01267C20.0001 5.93374 19.9845 5.85556 19.9543 5.78264C19.9241 5.70971 19.8798 5.64345 19.824 5.58767L16.676 2.43967C16.5636 2.32712 16.4111 2.26381 16.252 2.26367H4.6C4.44087 2.26367 4.28826 2.32689 4.17574 2.43941C4.06321 2.55193 4 2.70454 4 2.86367V21.6637C4 21.8228 4.06321 21.9754 4.17574 22.0879C4.28826 22.2005 4.44087 22.2637 4.6 22.2637H13M8 10.2637H16M8 6.26367H12M8 14.2637H11" stroke="#FC4006" stroke-width="1.5" stroke-linecap="round" stroke-linejoin="round"/>
<path d="M16 2.26367V5.66367C16 5.8228 16.0632 5.97541 16.1757 6.08794C16.2883 6.20046 16.4409 6.26367 16.6 6.26367H20M19.992 15.3887L22.548 16.0377C22.814 16.1057 23.001 16.3477 22.993 16.6217C22.821 22.3797 19.5 23.2637 19.5 23.2637C19.5 23.2637 16.179 22.3797 16.007 16.6217C16.0043 16.4884 16.0468 16.3581 16.1276 16.252C16.2084 16.146 16.3227 16.0704 16.452 16.0377L19.008 15.3887C19.331 15.3067 19.669 15.3067 19.992 15.3887Z" stroke="#FC4006" stroke-width="1.5" stroke-linecap="round" stroke-linejoin="round"/>
</g>
<defs>
<clipPath id="clip0_464_5483">
<rect width="24" height="24" fill="white" transform="translate(0 0.263672)"/>
</clipPath>
</defs>
</svg>
