<svg width="25" height="25" viewBox="0 0 25 25" fill="none" xmlns="http://www.w3.org/2000/svg">
<path fill-rule="evenodd" clip-rule="evenodd" d="M14.47 6.97032C14.6106 6.82987 14.8012 6.75098 15 6.75098C15.1988 6.75098 15.3894 6.82987 15.53 6.97032L20.53 11.9703C20.6705 12.1109 20.7493 12.3016 20.7493 12.5003C20.7493 12.6991 20.6705 12.8897 20.53 13.0303L15.53 18.0303C15.4613 18.104 15.3785 18.1631 15.2865 18.2041C15.1945 18.2451 15.0952 18.2671 14.9945 18.2689C14.8938 18.2707 14.7938 18.2522 14.7004 18.2144C14.607 18.1767 14.5222 18.1206 14.451 18.0494C14.3797 17.9781 14.3236 17.8933 14.2859 17.7999C14.2482 17.7065 14.2296 17.6065 14.2314 17.5058C14.2332 17.4051 14.2552 17.3058 14.2962 17.2138C14.3372 17.1218 14.3963 17.039 14.47 16.9703L18.19 13.2503H10C9.287 13.2503 8.2 13.4703 7.313 14.1093C6.465 14.7193 5.75 15.7443 5.75 17.5003C5.75 17.6992 5.67098 17.89 5.53033 18.0306C5.38968 18.1713 5.19891 18.2503 5 18.2503C4.80109 18.2503 4.61032 18.1713 4.46967 18.0306C4.32902 17.89 4.25 17.6992 4.25 17.5003C4.25 15.2563 5.202 13.7803 6.437 12.8913C7.633 12.0303 9.047 11.7503 10 11.7503H18.19L14.47 8.03032C14.3295 7.88969 14.2507 7.69907 14.2507 7.50032C14.2507 7.30157 14.3295 7.11094 14.47 6.97032Z" fill="black"/>
</svg>
