<svg width="123" height="104" viewBox="0 0 123 104" fill="none" xmlns="http://www.w3.org/2000/svg">
<path opacity="0.1" fill-rule="evenodd" clip-rule="evenodd" d="M68.167 136C105.722 136 136.167 105.555 136.167 68C136.167 30.4446 105.722 0 68.167 0C30.6116 0 0.166992 30.4446 0.166992 68C0.166992 105.555 30.6116 136 68.167 136Z" fill="white"/>
<path d="M66.9752 27.4164C66.6068 27.8008 66.5588 27.9609 66.5588 29.002V30.1711L65.0052 30.2832C56.9814 30.7957 50.9756 32.3172 44.8576 35.3281C42.0549 36.7055 39.4123 38.3871 37.1701 40.2129C35.4884 41.5902 32.2052 44.8895 31.0842 46.3629C29.931 47.8844 28.4416 50.1105 28.5217 50.1906C28.5537 50.2227 28.9381 49.9984 29.3865 49.6781C31.6767 47.9965 34.3353 47.452 36.9939 48.1406C38.4834 48.509 39.5884 49.1016 40.6455 50.0305L41.4142 50.7352L42.1349 50.0945C43.6724 48.7332 46.0588 47.8203 48.0607 47.8203C50.0947 47.8203 52.449 48.7012 53.8904 49.9984L54.7072 50.7352L55.4599 50.0625C56.4369 49.1977 58.1025 48.3648 59.4799 48.0445C61.4498 47.5801 64.0603 47.9805 65.8701 49.0535L66.5588 49.4539V54.4828V59.5117H68.2404H69.922V54.3227V49.1176L70.7869 48.7172C72.6127 47.8523 74.7107 47.6121 76.6166 48.0605C77.9138 48.3648 79.5795 49.2137 80.5404 50.0625L81.2931 50.7352L82.1099 49.9984C83.5353 48.7172 85.9056 47.8203 87.8595 47.8203C89.9095 47.8203 92.3119 48.7332 93.8654 50.0945L94.5861 50.7352L95.3549 50.0305C96.4119 49.1016 97.517 48.509 99.0064 48.1406C101.665 47.452 104.324 47.9965 106.614 49.6781C107.062 49.9984 107.447 50.2227 107.479 50.1906C107.559 50.1105 106.069 47.8844 104.916 46.3629C103.795 44.8895 100.512 41.5902 98.8302 40.2129C94.6341 36.8016 89.5252 34.159 83.6795 32.3973C80.1881 31.3242 76.7767 30.7637 71.0111 30.2672L69.922 30.1711V29.4824C69.922 27.7367 69.3935 27 68.1603 27C67.5517 27 67.3115 27.0801 66.9752 27.4164Z" fill="white" fill-opacity="0.62"/>
<path d="M46.5551 50.623C45.418 50.9434 44.7934 51.3438 43.9125 52.3207C42.9996 53.3297 42.6152 54.4188 42.6152 56.0043C42.6152 57.0453 42.6953 57.3656 43.1438 58.2785C43.7203 59.4316 44.5371 60.2484 45.7223 60.825C46.3309 61.1293 46.7152 61.1934 48.0605 61.1934C49.4379 61.1934 49.7582 61.1453 50.3828 60.809C51.3758 60.2965 52.4168 59.2715 52.9133 58.3105C53.5059 57.1574 53.602 55.1555 53.1055 53.8742C52.1605 51.3598 49.1977 49.8863 46.5551 50.623Z" fill="white" fill-opacity="0.62"/>
<path d="M86.5627 50.591C84.817 51.0875 83.3436 52.4488 82.815 54.0824C82.4147 55.2836 82.5428 57.2375 83.0873 58.3105C83.5838 59.2715 84.6248 60.2965 85.6178 60.809C86.2424 61.1453 86.5627 61.1934 87.94 61.1934C89.2854 61.1934 89.6697 61.1293 90.2783 60.825C91.4635 60.2484 92.2803 59.4316 92.8568 58.2785C93.3053 57.3656 93.3854 57.0453 93.3854 56.0043C93.3854 54.2105 93.001 53.2496 91.7998 52.0484C91.1111 51.3758 90.5826 50.9914 90.0221 50.7992C88.933 50.4309 87.4596 50.3348 86.5627 50.591Z" fill="white" fill-opacity="0.62"/>
<path d="M40.4051 62.9389C39.0277 63.4353 37.8906 64.5564 37.4422 65.9017C37.298 66.2861 37.25 69.1369 37.25 75.7994C37.25 84.0955 37.282 85.2166 37.5062 85.665C38.1469 86.9142 38.8996 87.3627 40.5492 87.4908L41.7344 87.5869V97.5326C41.7344 108.808 41.6863 108.407 42.9355 108.808C43.8805 109.112 53.0414 109.016 53.5379 108.695C54.0664 108.343 54.2266 107.831 54.2266 106.549V105.38L53.4898 104.676C52.5609 103.779 50.9434 101.697 50.1586 100.415C47.9965 96.86 46.8914 92.0072 47.3238 87.9392C47.8523 82.9744 49.8863 78.6182 53.2336 75.2549L54.2266 74.2779V71.6193V68.9607H62.0102C67.6957 68.9607 69.9859 68.9127 70.4664 68.7685C72.5164 68.1439 73.2691 65.4053 71.8438 63.7717C70.8668 62.6826 71.2832 62.7146 60.9852 62.7146C52.8492 62.7146 51.6801 62.7467 51.5039 62.9549C51.3918 63.099 50.9434 63.4994 50.5109 63.8678L49.7262 64.5244L48.8453 63.6596L47.9805 62.8107L47.0996 63.6756L46.2188 64.5404L45.2898 63.6275L44.3609 62.7146H42.6953C41.7023 62.7307 40.7574 62.8107 40.4051 62.9389Z" fill="white" fill-opacity="0.62"/>
<path d="M73.9584 63.6756C74.3748 64.4603 74.4549 64.8127 74.4549 65.7256C74.4549 66.7826 74.3428 67.151 73.4779 68.8326C73.4459 68.9127 75.3037 68.9607 77.5939 68.9607H81.774V71.6193V74.2779L82.751 75.2549C86.9951 79.515 89.2693 85.7931 88.6768 91.6068C88.1803 96.5717 86.2904 100.64 82.783 104.371L81.774 105.428V106.565C81.774 107.831 81.9502 108.343 82.4627 108.695C82.9592 109.016 92.1201 109.112 93.065 108.808C94.3143 108.407 94.2662 108.808 94.2662 97.5326V87.5869L95.4514 87.4908C97.101 87.3627 97.8537 86.9142 98.4943 85.665C98.7186 85.2166 98.7506 84.0955 98.7506 75.7193V66.2861L98.2541 65.3092C97.7416 64.2681 97.1971 63.7076 96.124 63.1471C95.5795 62.8748 95.115 62.7947 93.5615 62.7467L91.6717 62.6826L90.7268 63.6115L89.7818 64.5404L88.901 63.6756L88.0201 62.8107L87.1553 63.6596L86.2744 64.5244L85.4896 63.8678C85.0572 63.4994 84.6088 63.099 84.4967 62.9549C84.3205 62.7467 83.5518 62.7146 78.8752 62.7146H73.4619L73.9584 63.6756Z" fill="white" fill-opacity="0.62"/>
<path d="M65.2612 70.7229C57.3655 71.9722 51.3116 77.4335 49.3096 85.121C48.7651 87.2351 48.621 90.6784 49.0053 92.9687C50.3506 101.025 56.5967 107.367 64.5405 108.76C66.3503 109.064 69.6495 109.064 71.4592 108.76C79.3389 107.383 85.601 101.057 86.9784 93.0808C87.2827 91.255 87.2827 88.2921 86.9784 86.4823C85.617 78.7308 79.7393 72.6448 71.9557 70.9472C70.6104 70.6429 66.5745 70.5147 65.2612 70.7229ZM72.212 74.7909C77.0006 76.2163 80.6682 79.5315 82.494 84.0479C83.2788 86.0019 83.5831 87.6034 83.567 89.9417C83.551 94.0257 82.0936 97.6132 79.2268 100.576C76.5522 103.331 73.3651 104.916 69.5854 105.349C65.9819 105.749 62.01 104.692 58.951 102.514C57.7018 101.617 55.7159 99.5671 54.9471 98.3659C52.1604 93.9937 51.6319 88.6925 53.5057 84.0479C55.4917 79.1311 59.6237 75.6878 64.9729 74.4866C65.6936 74.3265 66.7026 74.2624 68.4003 74.3104C70.4342 74.3585 71.0268 74.4386 72.212 74.7909Z" fill="white" fill-opacity="0.62"/>
<path d="M65.5974 77.5133V78.8426L64.5884 79.3391C61.8818 80.6844 60.2482 83.5992 60.7767 86.1938C61.3533 89.1086 63.5154 90.9824 67.5994 92.1195C69.5212 92.648 70.8826 93.625 70.8826 94.4418C70.8826 95.0184 70.2259 95.7711 69.4572 96.0754C68.3521 96.5238 67.3912 96.5559 66.0779 96.1875C65.4212 96.0113 64.7326 95.8191 64.5564 95.7711C64.2841 95.707 64.108 95.9793 63.2912 97.7891C62.5064 99.5188 62.3783 99.9352 62.5705 100.047C62.6986 100.127 63.4193 100.4 64.2041 100.624L65.5974 101.072V102.225V103.395H67.9998H70.4021V102.145L70.4181 100.912L71.6513 100.32C73.2209 99.5828 74.358 98.4777 75.0787 97.0363C75.5591 96.0594 75.6072 95.8191 75.6072 94.5059C75.6072 93.2086 75.5591 92.9523 75.0947 91.9754C74.1017 89.8934 72.2439 88.532 68.9607 87.5391C67.0068 86.9305 66.6384 86.7703 65.9498 86.1297C65.2451 85.473 65.2771 84.9445 66.0459 84.1758C66.3822 83.8395 66.9267 83.4871 67.2791 83.391C68.288 83.1187 69.8255 83.1828 70.8986 83.5352C71.4431 83.7273 71.9076 83.8395 71.9396 83.8074C71.9716 83.7754 72.4361 82.8145 72.9646 81.6773L73.9255 79.6113L73.2689 79.323C72.9005 79.1469 72.0998 78.9066 71.5072 78.7625L70.4021 78.4902V77.3211V76.168H67.9998H65.5974V77.5133Z" fill="white" fill-opacity="0.62"/>
</svg>
