<svg width="24" height="25" viewBox="0 0 24 25" fill="none" xmlns="http://www.w3.org/2000/svg">
<path d="M21.5 9.37482C20.8424 7.37413 19.57 5.63213 17.8641 4.39716C16.1582 3.16219 14.106 2.49731 12 2.49731C9.89402 2.49731 7.84179 3.16219 6.13591 4.39716C4.43004 5.63213 3.15759 7.37413 2.5 9.37482M2 5.37482V9.37482H6M18 15.3748H22V19.3748M2.5 15.3748C3.15759 17.3755 4.43004 19.1175 6.13591 20.3525C7.84179 21.5874 9.89402 22.2523 12 22.2523C14.106 22.2523 16.1582 21.5874 17.8641 20.3525C19.57 19.1175 20.8424 17.3755 21.5 15.3748" stroke="#FC4006" stroke-width="2" stroke-linecap="round" stroke-linejoin="round"/>
</svg>
