<svg width="24" height="24" viewBox="0 0 24 24" fill="none" xmlns="http://www.w3.org/2000/svg">
<path d="M5.77 8.16038L9.38 8.80038H9.39L7.66 10.5304L2.85 9.68038L2 4.87038L3.73 3.15038L4.36 6.76038L5.48 5.64038C6.31424 4.80345 7.30547 4.13941 8.39685 3.68632C9.48823 3.23323 10.6583 3 11.84 3C13.0217 3 14.1918 3.23323 15.2832 3.68632C16.3745 4.13941 17.3658 4.80345 18.2 5.64038C18.2393 5.68105 18.276 5.72271 18.31 5.76538C18.344 5.80871 18.3807 5.85038 18.42 5.89038C18.57 6.05038 18.72 6.22038 18.86 6.39038C18.95 6.50038 19.04 6.62038 19.13 6.74038C19.29 6.96038 19.43 7.18038 19.57 7.41038L19.607 7.46738C19.629 7.49871 19.65 7.53305 19.67 7.57038C19.8546 7.89976 20.0182 8.24044 20.16 8.59038L20.18 8.64038C20.53 9.52038 20.74 10.4304 20.81 11.3604L18.77 11.0704C18.6684 10.3423 18.456 9.63411 18.14 8.97038L18.08 8.85038C17.9331 8.55907 17.766 8.27839 17.58 8.01038C17.5627 7.99105 17.546 7.96938 17.53 7.94538C17.3083 7.62135 17.0572 7.3184 16.78 7.04038C15.4683 5.7293 13.6896 4.9928 11.835 4.9928C9.9804 4.9928 8.20172 5.7293 6.89 7.04038L5.77 8.16038ZM16.02 13.4704L20.83 14.3204L20.84 14.3304L21.69 19.1404L19.96 20.8704L19.32 17.2604L18.2 18.3804C14.68 21.8904 8.98 21.8904 5.47 18.3804L5.23 18.1104C3.8409 16.6136 3.00474 14.6873 2.86 12.6504L4.9 12.9404C5.1 14.4104 5.76 15.8304 6.89 16.9604C7.12 17.1904 7.37 17.4004 7.62 17.5904C10.36 19.6604 14.28 19.4604 16.78 16.9604L17.9 15.8404L14.29 15.2004L16.02 13.4704Z" fill="#FC4006"/>
</svg>
