<svg width="48" height="48" viewBox="0 0 48 48" fill="none" xmlns="http://www.w3.org/2000/svg">
<path d="M22.0098 4L36.6058 8.56C37.0128 8.68709 37.3687 8.94096 37.6212 9.28458C37.8738 9.62819 38.0099 10.0435 38.0098 10.47V14H42.0098C42.5402 14 43.0489 14.2107 43.424 14.5858C43.7991 14.9609 44.0098 15.4696 44.0098 16V32C44.0098 32.5304 43.7991 33.0391 43.424 33.4142C43.0489 33.7893 42.5402 34 42.0098 34L35.5698 34.002C34.7958 35.022 33.8558 35.922 32.7698 36.662L22.0098 44L11.2498 36.664C9.63481 35.5629 8.31327 34.084 7.40005 32.3558C6.48682 30.6277 6.00956 28.7026 6.00977 26.748V10.47C6.01001 10.0439 6.14634 9.62898 6.39889 9.28577C6.65144 8.94256 7.00701 8.68898 7.41377 8.562L22.0098 4ZM22.0098 8.188L10.0098 11.94V26.748C10.0095 27.9725 10.2903 29.1806 10.8305 30.2795C11.3707 31.3783 12.156 32.3385 13.1258 33.086L13.5038 33.358L22.0098 39.158L29.5738 34H20.0098C19.4793 34 18.9706 33.7893 18.5956 33.4142C18.2205 33.0391 18.0098 32.5304 18.0098 32V16C18.0098 15.4696 18.2205 14.9609 18.5956 14.5858C18.9706 14.2107 19.4793 14 20.0098 14H34.0098V11.94L22.0098 8.188ZM22.0098 24V30H40.0098V24H22.0098ZM22.0098 20H40.0098V18H22.0098V20Z" fill="#FC4006"/>
</svg>
