<svg width="21" height="20" viewBox="0 0 21 20" fill="none" xmlns="http://www.w3.org/2000/svg">
<g clip-path="url(#clip0_521_2128)">
<path d="M10.9608 7.26648V12.7331H12.4325V11.3215H13.3092L13.5533 11.3131C14.0356 11.3059 14.3089 11.2968 14.3733 11.2856C14.9206 11.2134 15.2817 10.9373 15.4567 10.4573C15.5456 10.2151 15.59 9.81676 15.59 9.26231C15.59 8.8012 15.5497 8.45592 15.4692 8.22648C15.3153 7.78981 15.0125 7.50092 14.5608 7.35981C14.3642 7.29815 14.0778 7.26731 13.7017 7.26731L10.9608 7.26648ZM16.6192 7.26648L14.9767 12.7331H16.4983L16.7625 11.7881H18.7292L19.01 12.7323H20.5L18.8375 7.26731L16.6192 7.26648ZM8.83667 7.29231C8.27617 7.29069 7.72808 7.45732 7.26333 7.77065C6.81846 8.06795 6.47096 8.48965 6.26417 8.98315H5.64583L5.25917 9.81315H6.06667C6.05494 9.95907 6.05606 10.1057 6.07 10.2515H5.68083L5.29333 11.0806H6.28333C6.50311 11.5732 6.86166 11.991 7.31513 12.283C7.76859 12.575 8.29733 12.7285 8.83667 12.7248C9.39282 12.7264 9.93692 12.5628 10.4 12.2548L10.4108 12.2473V11.2131L10.3692 11.2598C10.1772 11.4792 9.93762 11.6517 9.66872 11.7643C9.39982 11.8768 9.10874 11.9263 8.81777 11.909C8.52679 11.8917 8.24362 11.8081 7.98994 11.6645C7.73626 11.5209 7.51878 11.3212 7.35417 11.0806H9.35083L9.73833 10.2515H7.03167C7.01228 10.1062 7.00893 9.95918 7.02167 9.81315H9.9425L9.94917 9.79898L10.3142 9.01648L10.33 8.98315H7.295C7.4661 8.70234 7.70629 8.47004 7.99265 8.30841C8.27901 8.14677 8.60201 8.06119 8.93083 8.05981C9.50917 8.05981 10.0508 8.31815 10.4167 8.76815L10.44 8.79731L10.7808 8.06815L10.7683 8.05648C10.2462 7.56349 9.55472 7.28992 8.83667 7.29231ZM2.83667 7.29565C2.47111 7.29565 2.13889 7.30898 1.84 7.33565C1.48111 7.36398 1.18611 7.46065 0.955 7.62565C0.793011 7.74133 0.67308 7.9066 0.613333 8.09648C0.542222 8.30315 0.506667 8.57815 0.506667 8.92148C0.506667 9.37148 0.572222 9.70759 0.703333 9.92981C0.852778 10.1909 1.15111 10.3634 1.59833 10.4473C1.76944 10.4762 2.07333 10.5065 2.51 10.5381C3.055 10.5748 3.36 10.6034 3.425 10.624C3.60056 10.6768 3.68833 10.8234 3.68833 11.064C3.69079 11.1525 3.6804 11.2409 3.6575 11.3265C3.63656 11.3823 3.60339 11.4328 3.56042 11.4742C3.51746 11.5156 3.46577 11.5468 3.40917 11.5656C3.33861 11.5923 3.175 11.6056 2.91833 11.6056H2.415C2.29709 11.6051 2.18063 11.5795 2.07333 11.5306C1.93667 11.4634 1.86833 11.3109 1.86833 11.0731V10.9598H0.5C0.5 11.4043 0.532778 11.7218 0.598333 11.9123C0.716667 12.2556 0.960833 12.4834 1.33083 12.5956C1.6325 12.6873 2.16639 12.7329 2.9325 12.7323C3.39139 12.7323 3.7325 12.7115 3.95583 12.6698C4.48917 12.5698 4.83167 12.3329 4.98333 11.959C5.06722 11.7545 5.10917 11.4323 5.10917 10.9923C5.10917 10.8012 5.1 10.6298 5.08167 10.4781C5.0586 10.2442 4.95386 10.0259 4.78583 9.86148C4.57528 9.65981 4.23639 9.53537 3.76917 9.48815C3.62194 9.47259 3.2525 9.44481 2.66083 9.40481L2.385 9.38565C2.28307 9.38219 2.18328 9.35539 2.09333 9.30731C1.99056 9.24453 1.93917 9.1137 1.93917 8.91481C1.93917 8.69481 1.99694 8.55203 2.1125 8.48648C2.22806 8.42092 2.46472 8.38815 2.8225 8.38815C3.18972 8.38815 3.41417 8.44509 3.49583 8.55898C3.54861 8.63565 3.575 8.7862 3.575 9.01065H4.94333C4.95222 8.89009 4.95667 8.79954 4.95667 8.73898C4.95667 8.00287 4.65889 7.55481 4.06333 7.39481C3.81889 7.3287 3.41056 7.29565 2.83667 7.29565ZM17.7483 8.35398L18.4375 10.7231H17.0792L17.7483 8.35398ZM12.4317 8.46231H13.3617C13.5117 8.46231 13.6067 8.46509 13.6467 8.47065C13.8467 8.50565 13.9733 8.60148 14.0267 8.75815C14.0639 8.86981 14.0825 9.0412 14.0825 9.27231C14.0855 9.41506 14.0763 9.5578 14.055 9.69898C14.0256 9.84231 13.9672 9.93787 13.88 9.98565C13.8167 10.0206 13.6397 10.0434 13.3492 10.054H12.4325L12.4317 8.46231Z" fill="#0280F9"/>
</g>
<defs>
<clipPath id="clip0_521_2128">
<rect width="20" height="20" fill="white" transform="translate(0.5 -0.000183105)"/>
</clipPath>
</defs>
</svg>
