<svg width="25" height="24" viewBox="0 0 25 24" fill="none" xmlns="http://www.w3.org/2000/svg">
<g opacity="0.4">
<path fill-rule="evenodd" clip-rule="evenodd" d="M21.3064 7.62337L20.684 6.54328C20.1574 5.62936 18.9905 5.31408 18.0753 5.83847V5.83847C17.6397 6.0951 17.1198 6.16791 16.6305 6.04084C16.1411 5.91378 15.7224 5.59727 15.4666 5.16113C15.3021 4.8839 15.2137 4.56815 15.2103 4.2458V4.2458C15.2251 3.72898 15.0302 3.22816 14.6698 2.85743C14.3094 2.48669 13.8143 2.27762 13.2973 2.27783H12.0433C11.5367 2.27783 11.0511 2.47967 10.6938 2.8387C10.3364 3.19773 10.1369 3.68435 10.1394 4.19088V4.19088C10.1244 5.23668 9.27224 6.07657 8.22632 6.07646C7.90397 6.07311 7.58821 5.9847 7.31099 5.82017V5.82017C6.39582 5.29577 5.22887 5.61105 4.70229 6.52497L4.0341 7.62337C3.50817 8.53615 3.81916 9.70236 4.72975 10.2321V10.2321C5.32166 10.5738 5.68629 11.2053 5.68629 11.8888C5.68629 12.5723 5.32166 13.2038 4.72975 13.5456V13.5456C3.82031 14.0717 3.50898 15.2351 4.0341 16.1451V16.1451L4.66568 17.2344C4.9124 17.6795 5.32636 18.0081 5.81595 18.1472C6.30554 18.2863 6.8304 18.2247 7.27438 17.9758V17.9758C7.71084 17.7211 8.23094 17.6513 8.7191 17.782C9.20725 17.9126 9.62299 18.2328 9.87392 18.6714C10.0385 18.9486 10.1269 19.2644 10.1302 19.5868V19.5868C10.1302 20.6433 10.9867 21.4998 12.0433 21.4998H13.2973C14.3502 21.4998 15.2053 20.6489 15.2103 19.5959V19.5959C15.2079 19.0878 15.4086 18.5998 15.7679 18.2405C16.1272 17.8812 16.6152 17.6804 17.1233 17.6829C17.4449 17.6915 17.7594 17.7795 18.0387 17.9392V17.9392C18.9515 18.4651 20.1177 18.1541 20.6474 17.2435V17.2435L21.3064 16.1451C21.5615 15.7073 21.6315 15.1858 21.501 14.6961C21.3704 14.2065 21.05 13.7891 20.6108 13.5364V13.5364C20.1715 13.2837 19.8511 12.8663 19.7206 12.3767C19.59 11.8871 19.66 11.3656 19.9151 10.9277C20.081 10.6381 20.3211 10.398 20.6108 10.2321V10.2321C21.5159 9.70265 21.8262 8.54325 21.3064 7.63252V7.63252V7.62337Z" stroke="#1B1D21" stroke-width="1.5" stroke-linecap="round" stroke-linejoin="round"/>
<circle cx="12.6747" cy="11.8886" r="2.63616" stroke="#1B1D21" stroke-width="1.5" stroke-linecap="round" stroke-linejoin="round"/>
</g>
</svg>
