<svg width="24" height="25" viewBox="0 0 24 25" fill="none" xmlns="http://www.w3.org/2000/svg">
<path opacity="0.5" d="M19.05 16.1002L9.7 12.5002L19.05 8.90018C19.8 8.60018 20.2 7.75018 19.9 6.95018C19.6 6.20018 18.75 5.80018 17.95 6.10018L4.95 11.1002C4.4 11.3002 4 11.9002 4 12.5002C4 13.1002 4.4 13.7002 4.95 13.9002L17.95 18.9002C18.15 18.9502 18.3 19.0002 18.5 19.0002C19.1 19.0002 19.65 18.6502 19.9 18.0502C20.2 17.2502 19.8 16.4002 19.05 16.1002Z" fill="black"/>
<path d="M5.5 16C7.433 16 9 14.433 9 12.5C9 10.567 7.433 9 5.5 9C3.567 9 2 10.567 2 12.5C2 14.433 3.567 16 5.5 16Z" fill="black"/>
<path d="M18.5 11C20.433 11 22 9.433 22 7.5C22 5.567 20.433 4 18.5 4C16.567 4 15 5.567 15 7.5C15 9.433 16.567 11 18.5 11Z" fill="black"/>
<path d="M18.5 21C20.433 21 22 19.433 22 17.5C22 15.567 20.433 14 18.5 14C16.567 14 15 15.567 15 17.5C15 19.433 16.567 21 18.5 21Z" fill="black"/>
</svg>
