<svg width="25" height="25" viewBox="0 0 25 25" fill="none" xmlns="http://www.w3.org/2000/svg">
<path d="M14 4.70302C14 3.86752 12.9905 3.44977 12.3995 4.04002L8.879 7.56127C8.73959 7.70053 8.57412 7.81095 8.39202 7.88623C8.20993 7.96151 8.01479 8.00018 7.81775 8.00002H5C4.20435 8.00002 3.44129 8.31609 2.87868 8.8787C2.31607 9.44131 2 10.2044 2 11V14C2 14.7957 2.31607 15.5587 2.87868 16.1213C3.44129 16.684 4.20435 17 5 17H7.81775C8.01479 16.9999 8.20993 17.0385 8.39202 17.1138C8.57412 17.1891 8.73959 17.2995 8.879 17.4388L12.3995 20.96C12.9905 21.5503 14 21.1325 14 20.297V4.70302ZM9.9395 8.62177L12.5 6.06127V18.9395L9.9395 16.379C9.6609 16.1003 9.33012 15.8793 8.96607 15.7285C8.60201 15.5776 8.21181 15.5 7.81775 15.5H5C4.60218 15.5 4.22064 15.342 3.93934 15.0607C3.65804 14.7794 3.5 14.3979 3.5 14V11C3.5 10.6022 3.65804 10.2207 3.93934 9.93936C4.22064 9.65806 4.60218 9.50002 5 9.50002H7.81775C8.21176 9.50014 8.60193 9.42264 8.96598 9.27194C9.33004 9.12125 9.66084 8.90032 9.9395 8.62177ZM17.618 7.57552C17.5627 7.49328 17.4916 7.42281 17.4088 7.36821C17.3261 7.3136 17.2334 7.27594 17.136 7.2574C17.0386 7.23886 16.9385 7.23981 16.8415 7.26019C16.7445 7.28057 16.6525 7.31997 16.5708 7.37613C16.4891 7.43229 16.4194 7.50409 16.3656 7.58737C16.3119 7.67065 16.2751 7.76376 16.2576 7.86132C16.24 7.95888 16.242 8.05895 16.2633 8.15575C16.2847 8.25255 16.325 8.34416 16.382 8.42527C17.3458 9.82777 17.7973 11.1823 17.7973 12.5C17.7973 13.8185 17.3458 15.1738 16.382 16.5755C16.325 16.6566 16.2847 16.7482 16.2633 16.845C16.242 16.9418 16.24 17.0419 16.2576 17.1395C16.2751 17.237 16.3119 17.3302 16.3656 17.4134C16.4194 17.4967 16.4891 17.5685 16.5708 17.6247C16.6525 17.6808 16.7445 17.7202 16.8415 17.7406C16.9385 17.761 17.0386 17.7619 17.136 17.7434C17.2334 17.7249 17.3261 17.6872 17.4088 17.6326C17.4916 17.578 17.5627 17.5075 17.618 17.4253C18.7168 15.8278 19.2965 14.1823 19.2965 12.5C19.2965 10.8185 18.7168 9.17377 17.618 7.57552ZM19.7675 4.45702C19.6234 4.31977 19.4307 4.24539 19.2317 4.25025C19.0328 4.2551 18.8439 4.33879 18.7066 4.4829C18.5694 4.62701 18.495 4.81974 18.4998 5.0187C18.5047 5.21765 18.5884 5.40652 18.7325 5.54377C20.5228 7.24852 21.4535 9.84727 21.4535 12.5C21.4535 15.1528 20.5228 17.7523 18.7325 19.457C18.6611 19.525 18.6039 19.6063 18.564 19.6964C18.524 19.7865 18.5023 19.8836 18.4998 19.9821C18.4974 20.0806 18.5145 20.1786 18.5499 20.2706C18.5854 20.3625 18.6387 20.4465 18.7066 20.5179C18.7746 20.5893 18.8559 20.6465 18.946 20.6864C19.0361 20.7264 19.1332 20.7481 19.2317 20.7506C19.3302 20.753 19.4282 20.7359 19.5202 20.7005C19.6121 20.665 19.6961 20.6117 19.7675 20.5438C21.9148 18.4985 22.9528 15.4723 22.9528 12.5C22.9528 9.52777 21.9155 6.50227 19.7675 4.45702Z" fill="black"/>
</svg>
