<svg width="24" height="25" viewBox="0 0 24 25" fill="none" xmlns="http://www.w3.org/2000/svg">
<path d="M3.25 5.26367C3.25 4.53433 3.53973 3.83485 4.05546 3.31913C4.57118 2.8034 5.27065 2.51367 6 2.51367H16C16.7293 2.51367 17.4288 2.8034 17.9445 3.31913C18.4603 3.83485 18.75 4.53433 18.75 5.26367V10.7637C18.75 10.9626 18.671 11.1533 18.5303 11.294C18.3897 11.4347 18.1989 11.5137 18 11.5137C17.8011 11.5137 17.6103 11.4347 17.4697 11.294C17.329 11.1533 17.25 10.9626 17.25 10.7637V5.26367C17.25 4.57367 16.69 4.01367 16 4.01367H6C5.31 4.01367 4.75 4.57367 4.75 5.26367V19.2637C4.75 19.9537 5.31 20.5137 6 20.5137H13.5C13.6989 20.5137 13.8897 20.5927 14.0303 20.7333C14.171 20.874 14.25 21.0648 14.25 21.2637C14.25 21.4626 14.171 21.6534 14.0303 21.794C13.8897 21.9347 13.6989 22.0137 13.5 22.0137H6C5.27065 22.0137 4.57118 21.7239 4.05546 21.2082C3.53973 20.6925 3.25 19.993 3.25 19.2637V5.26367Z" fill="#FC4006"/>
<path d="M18 13.5137C18.1989 13.5137 18.3897 13.5927 18.5303 13.7333C18.671 13.874 18.75 14.0648 18.75 14.2637V14.6817C19.777 14.7197 20.75 15.4767 20.75 16.5967C20.75 16.7956 20.671 16.9864 20.5303 17.127C20.3897 17.2677 20.1989 17.3467 20 17.3467C19.8011 17.3467 19.6103 17.2677 19.4697 17.127C19.329 16.9864 19.25 16.7956 19.25 16.5967C19.25 16.4547 19.088 16.1807 18.669 16.1807H17.163C17.0435 16.1775 16.9267 16.2172 16.834 16.2927C16.766 16.3527 16.75 16.4097 16.75 16.4467C16.7485 16.497 16.7545 16.5472 16.768 16.5957C16.7813 16.6055 16.7953 16.6142 16.81 16.6217C16.85 16.6417 16.91 16.6657 17.003 16.6937L19.421 17.3947C19.697 17.4767 20.051 17.6127 20.329 17.9077C20.629 18.2277 20.75 18.6377 20.75 19.0807C20.75 20.1477 19.794 20.8467 18.837 20.8467H18.75V21.2637C18.75 21.4626 18.671 21.6534 18.5303 21.794C18.3897 21.9347 18.1989 22.0137 18 22.0137C17.8011 22.0137 17.6103 21.9347 17.4697 21.794C17.329 21.6534 17.25 21.4626 17.25 21.2637V20.8457C16.223 20.8077 15.25 20.0507 15.25 18.9307C15.25 18.7318 15.329 18.541 15.4697 18.4003C15.6103 18.2597 15.8011 18.1807 16 18.1807C16.1989 18.1807 16.3897 18.2597 16.5303 18.4003C16.671 18.541 16.75 18.7318 16.75 18.9307C16.75 19.0727 16.912 19.3467 17.331 19.3467H18.837C18.9565 19.3499 19.0733 19.3101 19.166 19.2347C19.234 19.1747 19.25 19.1177 19.25 19.0807C19.2515 19.0304 19.2455 18.9801 19.232 18.9317C19.2187 18.9219 19.2047 18.9132 19.19 18.9057C19.15 18.8857 19.09 18.8617 18.997 18.8337L16.579 18.1327C16.303 18.0507 15.949 17.9147 15.671 17.6197C15.371 17.2997 15.25 16.8897 15.25 16.4467C15.25 15.3797 16.206 14.6807 17.163 14.6807H17.25V14.2637C17.25 14.0648 17.329 13.874 17.4697 13.7333C17.6103 13.5927 17.8011 13.5137 18 13.5137ZM6.25 11.2637C6.25 11.0648 6.32902 10.874 6.46967 10.7333C6.61032 10.5927 6.80109 10.5137 7 10.5137H7.5C7.69891 10.5137 7.88968 10.5927 8.03033 10.7333C8.17098 10.874 8.25 11.0648 8.25 11.2637C8.25 11.4626 8.17098 11.6533 8.03033 11.794C7.88968 11.9347 7.69891 12.0137 7.5 12.0137H7C6.80109 12.0137 6.61032 11.9347 6.46967 11.794C6.32902 11.6533 6.25 11.4626 6.25 11.2637ZM9.25 11.2637C9.25 11.0648 9.32902 10.874 9.46967 10.7333C9.61032 10.5927 9.80109 10.5137 10 10.5137H15C15.1989 10.5137 15.3897 10.5927 15.5303 10.7333C15.671 10.874 15.75 11.0648 15.75 11.2637C15.75 11.4626 15.671 11.6533 15.5303 11.794C15.3897 11.9347 15.1989 12.0137 15 12.0137H10C9.80109 12.0137 9.61032 11.9347 9.46967 11.794C9.32902 11.6533 9.25 11.4626 9.25 11.2637ZM6.25 14.2637C6.25 14.0648 6.32902 13.874 6.46967 13.7333C6.61032 13.5927 6.80109 13.5137 7 13.5137H7.5C7.69891 13.5137 7.88968 13.5927 8.03033 13.7333C8.17098 13.874 8.25 14.0648 8.25 14.2637C8.25 14.4626 8.17098 14.6533 8.03033 14.794C7.88968 14.9347 7.69891 15.0137 7.5 15.0137H7C6.80109 15.0137 6.61032 14.9347 6.46967 14.794C6.32902 14.6533 6.25 14.4626 6.25 14.2637ZM9.25 14.2637C9.25 14.0648 9.32902 13.874 9.46967 13.7333C9.61032 13.5927 9.80109 13.5137 10 13.5137H13.5C13.6989 13.5137 13.8897 13.5927 14.0303 13.7333C14.171 13.874 14.25 14.0648 14.25 14.2637C14.25 14.4626 14.171 14.6533 14.0303 14.794C13.8897 14.9347 13.6989 15.0137 13.5 15.0137H10C9.80109 15.0137 9.61032 14.9347 9.46967 14.794C9.32902 14.6533 9.25 14.4626 9.25 14.2637ZM6.25 17.2637C6.25 17.0648 6.32902 16.874 6.46967 16.7333C6.61032 16.5927 6.80109 16.5137 7 16.5137H7.5C7.69891 16.5137 7.88968 16.5927 8.03033 16.7333C8.17098 16.874 8.25 17.0648 8.25 17.2637C8.25 17.4626 8.17098 17.6533 8.03033 17.794C7.88968 17.9347 7.69891 18.0137 7.5 18.0137H7C6.80109 18.0137 6.61032 17.9347 6.46967 17.794C6.32902 17.6533 6.25 17.4626 6.25 17.2637ZM9.25 17.2637C9.25 17.0648 9.32902 16.874 9.46967 16.7333C9.61032 16.5927 9.80109 16.5137 10 16.5137H12C12.1989 16.5137 12.3897 16.5927 12.5303 16.7333C12.671 16.874 12.75 17.0648 12.75 17.2637C12.75 17.4626 12.671 17.6533 12.5303 17.794C12.3897 17.9347 12.1989 18.0137 12 18.0137H10C9.80109 18.0137 9.61032 17.9347 9.46967 17.794C9.32902 17.6533 9.25 17.4626 9.25 17.2637ZM6 6.76367C6 6.29767 6 6.06467 6.076 5.88067C6.17771 5.63613 6.37227 5.44193 6.617 5.34067C6.801 5.26367 7.034 5.26367 7.5 5.26367H14.5C14.966 5.26367 15.199 5.26367 15.383 5.33967C15.6275 5.44138 15.8217 5.63595 15.923 5.88067C16 6.06467 16 6.29767 16 6.76367C16 7.22967 16 7.46267 15.924 7.64667C15.8223 7.89121 15.6277 8.08542 15.383 8.18667C15.199 8.26367 14.966 8.26367 14.5 8.26367H7.5C7.034 8.26367 6.801 8.26367 6.617 8.18767C6.37246 8.08596 6.17826 7.8914 6.077 7.64667C6 7.46267 6 7.22967 6 6.76367Z" fill="#FC4006"/>
</svg>
