<svg width="25" height="25" viewBox="0 0 25 25" fill="none" xmlns="http://www.w3.org/2000/svg">
<path fill-rule="evenodd" clip-rule="evenodd" d="M10.53 6.97032C10.3894 6.82987 10.1988 6.75098 10 6.75098C9.80125 6.75098 9.61063 6.82987 9.47 6.97032L4.47 11.9703C4.32955 12.1109 4.25066 12.3016 4.25066 12.5003C4.25066 12.6991 4.32955 12.8897 4.47 13.0303L9.47 18.0303C9.53866 18.104 9.62146 18.1631 9.71346 18.2041C9.80546 18.2451 9.90478 18.2671 10.0055 18.2689C10.1062 18.2707 10.2062 18.2522 10.2996 18.2144C10.393 18.1767 10.4778 18.1206 10.549 18.0494C10.6203 17.9781 10.6764 17.8933 10.7141 17.7999C10.7518 17.7065 10.7704 17.6065 10.7686 17.5058C10.7668 17.4051 10.7448 17.3058 10.7038 17.2138C10.6628 17.1218 10.6037 17.039 10.53 16.9703L6.81 13.2503H15C15.713 13.2503 16.8 13.4703 17.687 14.1093C18.535 14.7193 19.25 15.7443 19.25 17.5003C19.25 17.6992 19.329 17.89 19.4697 18.0306C19.6103 18.1713 19.8011 18.2503 20 18.2503C20.1989 18.2503 20.3897 18.1713 20.5303 18.0306C20.671 17.89 20.75 17.6992 20.75 17.5003C20.75 15.2563 19.798 13.7803 18.563 12.8913C17.367 12.0303 15.953 11.7503 15 11.7503H6.81L10.53 8.03032C10.6705 7.88969 10.7493 7.69907 10.7493 7.50032C10.7493 7.30157 10.6705 7.11094 10.53 6.97032Z" fill="black"/>
</svg>
