<svg width="25" height="24" viewBox="0 0 25 24" fill="none" xmlns="http://www.w3.org/2000/svg">
<path d="M12.4996 4.75C12.2041 4.75 11.9116 4.8082 11.6386 4.92127C11.3656 5.03434 11.1176 5.20008 10.9086 5.40901C10.6997 5.61794 10.534 5.86598 10.4209 6.13896C10.3078 6.41194 10.2496 6.70453 10.2496 7C10.2496 7.29547 10.3078 7.58806 10.4209 7.86104C10.534 8.13402 10.6997 8.38206 10.9086 8.59099C11.1176 8.79992 11.3656 8.96566 11.6386 9.07873C11.9116 9.1918 12.2041 9.25 12.4996 9.25C13.0964 9.25 13.6687 9.01295 14.0906 8.59099C14.5126 8.16903 14.7496 7.59674 14.7496 7C14.7496 6.40326 14.5126 5.83097 14.0906 5.40901C13.6687 4.98705 13.0964 4.75 12.4996 4.75ZM8.74962 7C8.74962 6.00544 9.14471 5.05161 9.84797 4.34835C10.5512 3.64509 11.5051 3.25 12.4996 3.25C13.4942 3.25 14.448 3.64509 15.1513 4.34835C15.8545 5.05161 16.2496 6.00544 16.2496 7C16.2496 7.99456 15.8545 8.94839 15.1513 9.65165C14.448 10.3549 13.4942 10.75 12.4996 10.75C11.5051 10.75 10.5512 10.3549 9.84797 9.65165C9.14471 8.94839 8.74962 7.99456 8.74962 7ZM9.81362 12.819C9.94562 12.917 10.1156 13.032 10.3186 13.146C10.8316 13.436 11.5836 13.736 12.4986 13.736C13.4136 13.736 14.1666 13.436 14.6796 13.146C14.8826 13.032 15.0526 12.917 15.1846 12.819C15.3726 12.869 15.559 12.9243 15.7436 12.985L16.7036 13.3C17.4236 13.537 17.9676 14.112 18.1616 14.823L18.5586 17.687C18.6336 18.231 18.3486 18.626 17.9526 18.72C16.9056 18.97 15.1406 19.25 12.4996 19.25C9.85862 19.25 8.09262 18.97 7.04562 18.72C6.65062 18.626 6.36562 18.231 6.43962 17.687L6.83662 14.823C6.93527 14.4685 7.12012 14.1439 7.37469 13.8781C7.62926 13.6124 7.94565 13.4138 8.29562 13.3L9.25562 12.985C9.43962 12.925 9.62562 12.8697 9.81362 12.819ZM10.5236 11.464L10.2326 11.177L9.83062 11.269C9.47996 11.349 9.13195 11.446 8.78662 11.56L7.82662 11.875C7.23024 12.0689 6.69254 12.4103 6.2635 12.8677C5.83447 13.3251 5.52801 13.8835 5.37262 14.491L5.36262 14.531L4.95462 17.481C4.79362 18.645 5.41662 19.874 6.69862 20.179C7.86862 20.458 9.75062 20.75 12.4986 20.75C15.2476 20.75 17.1296 20.458 18.2996 20.18C19.5816 19.874 20.2056 18.645 20.0446 17.482L19.6356 14.532L19.6256 14.492C19.4703 13.8842 19.1637 13.3255 18.7345 12.8679C18.3053 12.4104 17.7673 12.0688 17.1706 11.875L16.2116 11.56C15.867 11.4467 15.519 11.35 15.1676 11.27L14.7656 11.177L14.4756 11.463L14.4746 11.464C14.436 11.4992 14.3959 11.5329 14.3546 11.565C14.2257 11.6674 14.0886 11.7591 13.9446 11.839C13.505 12.0931 13.0074 12.2298 12.4996 12.236C11.9919 12.2298 11.4943 12.0931 11.0546 11.839C10.8657 11.7323 10.6871 11.6066 10.5236 11.464Z" fill="#A4A5A6"/>
</svg>
