<svg width="48" height="48" viewBox="0 0 48 48" fill="none" xmlns="http://www.w3.org/2000/svg">
<path d="M39.0457 43.98H8.97571C5.96971 43.98 3.64971 41.712 4.04371 38.732L4.27171 36.994C4.68571 34.594 6.88171 33.084 9.26571 32.566L23.8557 30H24.1437L38.7337 32.566C41.1577 33.126 43.3137 34.552 43.7277 36.994L43.9557 38.754C44.3497 41.734 42.0297 44 39.0237 44L39.0457 43.98ZM33.9997 14C33.9997 16.6522 32.9461 19.1957 31.0708 21.0711C29.1954 22.9464 26.6519 24 23.9997 24C21.3475 24 18.804 22.9464 16.9286 21.0711C15.0533 19.1957 13.9997 16.6522 13.9997 14C13.9997 11.3478 15.0533 8.8043 16.9286 6.92893C18.804 5.05357 21.3475 4 23.9997 4C26.6519 4 29.1954 5.05357 31.0708 6.92893C32.9461 8.8043 33.9997 11.3478 33.9997 14Z" stroke="#FC4006" stroke-width="3" stroke-linecap="round" stroke-linejoin="round"/>
</svg>
