<svg width="82" height="60" viewBox="0 0 82 60" fill="none" xmlns="http://www.w3.org/2000/svg">
<path d="M77.8773 11.2324C77.0482 11.1366 76.2092 11.2854 75.4636 11.6603L55.9785 21.3964V38.5148L75.4636 48.2509C76.1152 48.5766 76.8392 48.7305 77.567 48.6981C78.2947 48.6657 79.0022 48.448 79.6223 48.0657C80.2424 47.6835 80.7547 47.1492 81.1106 46.5136C81.4665 45.878 81.6543 45.162 81.6561 44.4335V15.4777C81.655 14.4303 81.2696 13.4196 80.5732 12.6372C79.8768 11.8547 78.9175 11.3549 77.8773 11.2324Z" fill="#FC4006"/>
<path d="M13.1826 0C6.14262 0 0.34375 5.79887 0.34375 12.8388V47.0757C0.34375 54.1156 6.14262 59.9145 13.1826 59.9145H47.4194C54.4594 59.9145 60.2582 54.1156 60.2582 47.0757V12.8388C60.2582 5.79887 54.4594 0 47.4194 0H13.1826Z" fill="#FC4006"/>
</svg>
