<svg width="20" height="20" viewBox="0 0 20 20" fill="none" xmlns="http://www.w3.org/2000/svg">
<g clip-path="url(#clip0_691_3018)">
<path d="M0.500743 9.8809C0.500278 11.5613 0.939348 13.2021 1.77423 14.6483L0.420898 19.5895L5.47764 18.2636C6.87628 19.025 8.44333 19.424 10.0358 19.4241H10.04C15.2969 19.4241 19.5762 15.1463 19.5785 9.88842C19.5795 7.34059 18.5882 4.94477 16.7871 3.14229C14.9863 1.33997 12.5914 0.346866 10.0396 0.345703C4.78198 0.345703 0.502991 4.62322 0.500821 9.8809" fill="url(#paint0_linear_691_3018)"/>
<path d="M0.161071 9.87721C0.160528 11.6181 0.615334 13.3175 1.47999 14.8155L0.078125 19.9339L5.31619 18.5605C6.75944 19.3474 8.3844 19.7622 10.0379 19.7629H10.0422C15.4877 19.7629 19.9208 15.3312 19.9231 9.88512C19.924 7.24574 18.897 4.7638 17.0316 2.89674C15.166 1.02992 12.6853 0.00108527 10.0422 0C4.59564 0 0.163241 4.43101 0.161071 9.87721ZM3.28053 14.5575L3.08495 14.2471C2.26278 12.9398 1.82882 11.4291 1.82944 9.87783C1.83115 5.35109 5.51518 1.66822 10.0453 1.66822C12.2391 1.66915 14.3008 2.52434 15.8515 4.07597C17.4021 5.62775 18.2553 7.69054 18.2548 9.8845C18.2528 14.4112 14.5687 18.0946 10.0422 18.0946H10.0389C8.56502 18.0938 7.11952 17.698 5.8589 16.95L5.5589 16.7721L2.45053 17.5871L3.28053 14.5575Z" fill="url(#paint1_linear_691_3018)"/>
<path d="M7.57167 5.74874C7.38671 5.33765 7.19206 5.32936 7.01617 5.32215C6.87214 5.31595 6.70748 5.31641 6.54299 5.31641C6.37834 5.31641 6.11082 5.37835 5.88469 5.62525C5.65834 5.87238 5.02051 6.46959 5.02051 7.68424C5.02051 8.89889 5.90524 10.0728 6.02857 10.2377C6.15206 10.4023 7.73655 12.9747 10.246 13.9643C12.3316 14.7867 12.756 14.6232 13.2086 14.5819C13.6614 14.5408 14.6694 13.9849 14.8751 13.4084C15.0809 12.8319 15.0809 12.3378 15.0192 12.2346C14.9575 12.1317 14.7928 12.0699 14.5459 11.9465C14.299 11.8231 13.0852 11.2257 12.8589 11.1433C12.6325 11.061 12.4679 11.0199 12.3033 11.2671C12.1386 11.5139 11.6659 12.0699 11.5217 12.2346C11.3778 12.3996 11.2337 12.4201 10.9869 12.2966C10.7398 12.1728 9.94469 11.9124 9.00136 11.0714C8.26741 10.417 7.7719 9.60882 7.62787 9.36161C7.48384 9.11479 7.61245 8.98099 7.73624 8.85796C7.84717 8.74734 7.98322 8.56967 8.10679 8.42556C8.22989 8.28138 8.27097 8.17851 8.3533 8.01386C8.4357 7.84905 8.39446 7.70486 8.33283 7.58138C8.27097 7.45789 7.79121 6.23688 7.57167 5.74874Z" fill="white"/>
</g>
<defs>
<linearGradient id="paint0_linear_691_3018" x1="958.301" y1="1924.73" x2="958.301" y2="0.345703" gradientUnits="userSpaceOnUse">
<stop stop-color="#1FAF38"/>
<stop offset="1" stop-color="#60D669"/>
</linearGradient>
<linearGradient id="paint1_linear_691_3018" x1="992.326" y1="1993.39" x2="992.326" y2="0" gradientUnits="userSpaceOnUse">
<stop stop-color="#F9F9F9"/>
<stop offset="1" stop-color="white"/>
</linearGradient>
<clipPath id="clip0_691_3018">
<rect width="19.85" height="20" fill="white" transform="translate(0.0751953)"/>
</clipPath>
</defs>
</svg>
